SplineFontDB: 3.2
FontName: Waree-Bold
FullName: Waree Bold
FamilyName: Waree
Weight: Bold
Copyright: Copyright (c) 2003 by Bitstream, Inc. All Rights Reserved.\n\nTLWG changes are in public domain.
Version: 001.002
ItalicAngle: 0
UnderlinePosition: -170
UnderlineWidth: 10
Ascent: 1638
Descent: 410
InvalidEm: 0
LayerCount: 3
Layer: 0 0 "Back" 1
Layer: 1 0 "Fore" 0
Layer: 2 1 "Quad" 0
FSType: 0
OS2Version: 4
OS2_WeightWidthSlopeOnly: 0
OS2_UseTypoMetrics: 1
CreationTime: 1153662462
ModificationTime: 1588062746
PfmFamily: 33
TTFWeight: 700
TTFWidth: 5
LineGap: 0
VLineGap: 0
Panose: 2 11 6 4 2 2 2 2 2 4
OS2TypoAscent: 2543
OS2TypoAOffset: 0
OS2TypoDescent: -882
OS2TypoDOffset: 0
OS2TypoLinegap: 0
OS2WinAscent: 0
OS2WinAOffset: 1
OS2WinDescent: 0
OS2WinDOffset: 1
HheadAscent: 0
HheadAOffset: 1
HheadDescent: 0
HheadDOffset: 1
OS2SubXSize: 1331
OS2SubYSize: 1433
OS2SubXOff: -219
OS2SubYOff: 286
OS2SupXSize: 1331
OS2SupYSize: 1433
OS2SupXOff: 753
OS2SupYOff: 983
OS2StrikeYSize: 102
OS2StrikeYPos: 530
OS2Vendor: 'PfEd'
Lookup: 4 0 0 "'frac' Diagonal Fractions in Thai lookup 3" { "'frac' Diagonal Fractions in Thai lookup 3"  } ['frac' ('thai' <'KUY ' 'PAL ' 'THA ' 'dflt' > ) ]
Lookup: 4 0 1 "'liga' Standard Ligatures in Latin lookup 2" { "'liga' Standard Ligatures in Latin lookup 2"  } ['liga' ('latn' <'dflt' > ) ]
Lookup: 6 0 0 "'ccmp' Thai Tone Tilde Reordering" { "'ccmp' Thai Tone Tilde Reordering"  } ['ccmp' ('DFLT' <'dflt' > 'latn' <'dflt' > 'thai' <'KUY ' 'MLY ' 'PAL ' 'SAN ' 'THA ' 'dflt' > ) ]
Lookup: 6 0 0 "'ccmp' Thai Tone Macron Reordering" { "'ccmp' Thai Tone Macron Reordering"  } ['ccmp' ('DFLT' <'dflt' > 'latn' <'dflt' > 'thai' <'KUY ' 'MLY ' 'PAL ' 'SAN ' 'THA ' 'dflt' > ) ]
Lookup: 6 0 0 "'ccmp' Thai Below Vowel Macron Reordering" { "'ccmp' Thai Below Vowel Macron Reordering"  } ['ccmp' ('DFLT' <'dflt' > 'latn' <'dflt' > 'thai' <'KUY ' 'MLY ' 'PAL ' 'SAN ' 'THA ' 'dflt' > ) ]

StartChar: .notdef
Encoding: 65536 -1 0
Width: 1229
Flags: W
HStem: -362 114<217 1012> 1329 115<217 1012>
VStem: 102 115<-248 1329> 1012 114<-248 1329>
LayerCount: 3
Fore
SplineSet
102 -362 m 1
 102 1444 l 1
 1126 1444 l 1
 1126 -362 l 1
 102 -362 l 1
217 -248 m 1
 1012 -248 l 1
 1012 1329 l 1
 217 1329 l 1
 217 -248 l 1
EndSplineSet
Validated: 1
Layer: 2
SplineSet
102 -362 m 1,0,-1
 102 1444 l 1,1,-1
 1126 1444 l 1,2,-1
 1126 -362 l 1,3,-1
 102 -362 l 1,0,-1
217 -248 m 1,4,-1
 1012 -248 l 1,5,-1
 1012 1329 l 1,6,-1
 217 1329 l 1,7,-1
 217 -248 l 1,4,-1
EndSplineSet
EndChar

StartChar: uni0E4D.high
Encoding: 63262 63262 2
Width: 0
VWidth: 2348
Flags: W
HStem: 2036 114<-330.524 -199.802> 2294 114<-331.131 -198.713>
VStem: -450 113<2156.84 2288.14> -193 114<2155.51 2287.16>
AnchorPoint: "AboveMark" -260 2529 basemark 0
AnchorPoint: "AboveMark" -260 1999 mark 0
LayerCount: 3
Fore
SplineSet
-450 2222 m 0
 -450 2354 -334 2408 -265 2408 c 0
 -158 2408 -79 2324 -79 2222 c 0
 -79 2114 -164 2036 -264 2036 c 0
 -370 2036 -450 2120 -450 2222 c 0
-265 2294 m 0
 -306 2294 -337 2260 -337 2222 c 0
 -337 2180 -303 2150 -265 2150 c 0
 -223 2150 -193 2183 -193 2222 c 0
 -193 2264 -226 2294 -265 2294 c 0
EndSplineSet
Validated: 1
Layer: 2
SplineSet
-450 2222 m 0,0,1
 -450 2311 -450 2311 -389.5 2359.5 c 128,-1,2
 -329 2408 -329 2408 -265 2408 c 0,3,4
 -186 2408 -186 2408 -132.5 2353.5 c 128,-1,5
 -79 2299 -79 2299 -79 2222 c 0,6,7
 -79 2142 -79 2142 -133.5 2089 c 128,-1,8
 -188 2036 -188 2036 -264 2036 c 0,9,10
 -343 2036 -343 2036 -396.5 2090.5 c 128,-1,11
 -450 2145 -450 2145 -450 2222 c 0,0,1
-265 2294 m 128,-1,13
 -295 2294 -295 2294 -316 2272.5 c 128,-1,14
 -337 2251 -337 2251 -337 2222 c 0,15,16
 -337 2191 -337 2191 -315.5 2170.5 c 128,-1,17
 -294 2150 -294 2150 -265 2150 c 0,18,19
 -234 2150 -234 2150 -213.5 2171 c 128,-1,20
 -193 2192 -193 2192 -193 2222 c 0,21,22
 -193 2253 -193 2253 -214 2273.5 c 128,-1,12
 -235 2294 -235 2294 -265 2294 c 128,-1,13
EndSplineSet
EndChar

StartChar: exclam
Encoding: 33 33 5
Width: 934
Flags: W
HStem: 0 356<287 647> 1473 20G<287 647>
VStem: 287 360<0 356 802.501 1493>
LayerCount: 3
Fore
SplineSet
287 1493 m 1
 647 1493 l 1
 647 920 l 1
 596 502 l 1
 338 502 l 1
 287 920 l 1
 287 1493 l 1
287 356 m 1
 647 356 l 1
 647 0 l 1
 287 0 l 1
 287 356 l 1
EndSplineSet
Validated: 1
Layer: 2
SplineSet
287 1493 m 1,0,-1
 647 1493 l 1,1,-1
 647 920 l 1,2,-1
 596 502 l 1,3,-1
 338 502 l 1,4,-1
 287 920 l 1,5,-1
 287 1493 l 1,0,-1
287 356 m 1,6,-1
 647 356 l 1,7,-1
 647 0 l 1,8,-1
 287 0 l 1,9,-1
 287 356 l 1,6,-1
EndSplineSet
EndChar

StartChar: quotedbl
Encoding: 34 34 6
Width: 1067
Flags: W
HStem: 938 555<195 432 635 872>
VStem: 195 237<938 1493> 635 237<938 1493>
LayerCount: 3
Fore
SplineSet
872 1493 m 1
 872 938 l 1
 635 938 l 1
 635 1493 l 1
 872 1493 l 1
432 1493 m 1
 432 938 l 1
 195 938 l 1
 195 1493 l 1
 432 1493 l 1
EndSplineSet
Validated: 1
Layer: 2
SplineSet
872 1493 m 1,0,-1
 872 938 l 1,1,-1
 635 938 l 1,2,-1
 635 1493 l 1,3,-1
 872 1493 l 1,0,-1
432 1493 m 1,4,-1
 432 938 l 1,5,-1
 195 938 l 1,6,-1
 195 1493 l 1,7,-1
 432 1493 l 1,4,-1
EndSplineSet
EndChar

StartChar: numbersign
Encoding: 35 35 7
Width: 1716
Flags: W
HStem: 0 21G<322 550.013 809 1035.01> 383 215<139 418 690 905 1178 1462> 872 213<254 537 815 1024 1300 1577>
DStem2: 322 0 545 0 0.241604 0.970375<53.8776 394.848 669.194 898.112 1171.97 1514.88> 809 0 1030 0 0.242225 0.97022<53.5317 394.848 669.573 898.11 1171.62 1515.12>
LayerCount: 3
Fore
SplineSet
911 1470 m 1
 815 1085 l 1
 1079 1085 l 1
 1176 1470 l 1
 1397 1470 l 1
 1300 1085 l 1
 1577 1085 l 1
 1577 872 l 1
 1247 872 l 1
 1178 598 l 1
 1462 598 l 1
 1462 383 l 1
 1126 383 l 1
 1030 0 l 1
 809 0 l 1
 905 383 l 1
 641 383 l 1
 545 0 l 1
 322 0 l 1
 418 383 l 1
 139 383 l 1
 139 598 l 1
 467 598 l 1
 537 872 l 1
 254 872 l 1
 254 1085 l 1
 592 1085 l 1
 688 1470 l 1
 911 1470 l 1
1024 872 m 1
 760 872 l 1
 690 598 l 1
 954 598 l 1
 1024 872 l 1
EndSplineSet
Validated: 1
Layer: 2
SplineSet
911 1470 m 1,0,-1
 815 1085 l 1,1,-1
 1079 1085 l 1,2,-1
 1176 1470 l 1,3,-1
 1397 1470 l 1,4,-1
 1300 1085 l 1,5,-1
 1577 1085 l 1,6,-1
 1577 872 l 1,7,-1
 1247 872 l 1,8,-1
 1178 598 l 1,9,-1
 1462 598 l 1,10,-1
 1462 383 l 1,11,-1
 1126 383 l 1,12,-1
 1030 0 l 1,13,-1
 809 0 l 1,14,-1
 905 383 l 1,15,-1
 641 383 l 1,16,-1
 545 0 l 1,17,-1
 322 0 l 1,18,-1
 418 383 l 1,19,-1
 139 383 l 1,20,-1
 139 598 l 1,21,-1
 467 598 l 1,22,-1
 537 872 l 1,23,-1
 254 872 l 1,24,-1
 254 1085 l 1,25,-1
 592 1085 l 1,26,-1
 688 1470 l 1,27,-1
 911 1470 l 1,0,-1
1024 872 m 1,28,-1
 760 872 l 1,29,-1
 690 598 l 1,30,-1
 954 598 l 1,31,-1
 1024 872 l 1,28,-1
EndSplineSet
EndChar

StartChar: dollar
Encoding: 36 36 8
Width: 1425
Flags: W
HStem: 0 228<363.045 633 795 933.6> 1097 228<522.201 633 795 1063.06> 1536 20G<633 795>
VStem: 160 317<879.304 1059.32> 633 162<-301 0 232 510 836 1097 1325.57 1556> 969 317<267.706 469.569>
LayerCount: 3
Fore
SplineSet
1286 397 m 0
 1286 120 1078 18 795 2 c 1
 795 -301 l 1
 633 -301 l 1
 633 0 l 1
 503 5 339 26 162 92 c 1
 162 354 l 1
 332 267 490 233 633 228 c 1
 633 539 l 1
 600 545 l 1
 298 598 160 701 160 936 c 0
 160 1197 359 1314 633 1325 c 1
 633 1556 l 1
 795 1556 l 1
 795 1329 l 1
 937 1318 1069 1294 1196 1260 c 1
 1196 1006 l 1
 1093 1049 957 1092 795 1100 c 1
 795 813 l 1
 827 807 l 1
 1114 762 1286 673 1286 397 c 0
633 1097 m 1
 543 1092 477 1047 477 971 c 0
 477 917 501 851 633 836 c 1
 633 1097 l 1
795 232 m 1
 897 233 969 267 969 365 c 0
 969 472 895 499 795 510 c 1
 795 232 l 1
EndSplineSet
Validated: 1
Layer: 2
SplineSet
1286 397 m 0,0,1
 1286 30 1286 30 795 2 c 1,2,-1
 795 -301 l 1,3,-1
 633 -301 l 1,4,-1
 633 0 l 1,5,6
 383 10 383 10 162 92 c 1,7,-1
 162 354 l 1,8,9
 392 236 392 236 633 228 c 1,10,-1
 633 539 l 1,11,-1
 600 545 l 2,12,13
 368 586 368 586 264 674.5 c 128,-1,14
 160 763 160 763 160 936 c 0,15,16
 160 1032 160 1032 195 1105 c 128,-1,17
 230 1178 230 1178 294 1224.5 c 128,-1,18
 358 1271 358 1271 443 1296 c 128,-1,19
 528 1321 528 1321 633 1325 c 1,20,-1
 633 1556 l 1,21,-1
 795 1556 l 1,22,-1
 795 1329 l 1,23,24
 997 1313 997 1313 1196 1260 c 1,25,-1
 1196 1006 l 1,26,27
 994 1090 994 1090 795 1100 c 1,28,-1
 795 813 l 1,29,-1
 827 807 l 2,30,31
 918 793 918 793 985.5 773.5 c 128,-1,32
 1053 754 1053 754 1112 722.5 c 128,-1,33
 1171 691 1171 691 1207.5 647.5 c 128,-1,34
 1244 604 1244 604 1265 541.5 c 128,-1,35
 1286 479 1286 479 1286 397 c 0,0,1
633 1097 m 1,36,37
 563 1093 563 1093 520 1060 c 128,-1,38
 477 1027 477 1027 477 971 c 0,39,40
 477 854 477 854 633 836 c 1,41,-1
 633 1097 l 1,36,37
795 232 m 1,42,43
 969 234 969 234 969 365 c 0,44,45
 969 439 969 439 924.5 470 c 128,-1,46
 880 501 880 501 795 510 c 1,47,-1
 795 232 l 1,42,43
EndSplineSet
EndChar

StartChar: percent
Encoding: 37 37 9
Width: 2052
Flags: W
HStem: -29 170<1489.56 1684.25> 616 168<1489.4 1678.86> 707 167<367.456 562.386> 1352 168<367.456 562.166>
VStem: 66 249<932.218 1295.1> 614 250<930.209 1296.93> 1186 252<195.678 560.665> 1735 252<195.678 561.384>
DStem2: 449 -29 670 -29 0.516364 0.856369<114.117 1808.28>
LayerCount: 3
Fore
SplineSet
1735 379 m 0xdf
 1735 504 1698 616 1587 616 c 256
 1527 616 1438 579 1438 379 c 0
 1438 253 1475 141 1587 141 c 256
 1699 141 1735 253 1735 379 c 0xdf
1186 379 m 0
 1186 634 1341 784 1587 784 c 256
 1834 784 1987 634 1987 379 c 256
 1987 123 1834 -29 1587 -29 c 256
 1340 -29 1186 123 1186 379 c 0
670 -29 m 1
 449 -29 l 1
 1382 1520 l 1
 1604 1520 l 1
 670 -29 l 1
66 1114 m 256
 66 1369 218 1520 465 1520 c 256
 712 1520 864 1369 864 1114 c 256
 864 859 712 707 465 707 c 256xbf
 218 707 66 859 66 1114 c 256
614 1114 m 0
 614 1240 576 1352 465 1352 c 0
 353 1352 315 1240 315 1114 c 0
 315 988 353 874 465 874 c 256
 577 874 614 987 614 1114 c 0
EndSplineSet
Validated: 1
Layer: 2
SplineSet
1735 379 m 0,0,1
 1735 446 1735 446 1722 496.5 c 128,-1,2
 1709 547 1709 547 1674.5 581.5 c 128,-1,3
 1640 616 1640 616 1587 616 c 0,4,5
 1561 616 1561 616 1538 606.5 c 128,-1,6
 1515 597 1515 597 1491 573.5 c 128,-1,7
 1467 550 1467 550 1452.5 500 c 128,-1,8
 1438 450 1438 450 1438 379 c 0,9,10
 1438 274 1438 274 1473.5 207.5 c 128,-1,11
 1509 141 1509 141 1587 141 c 128,-1,12
 1665 141 1665 141 1700 207.5 c 128,-1,13
 1735 274 1735 274 1735 379 c 0,0,1
1186 379 m 0,14,15
 1186 569 1186 569 1293.5 676.5 c 128,-1,16
 1401 784 1401 784 1587 784 c 128,-1,17
 1773 784 1773 784 1880 676.5 c 128,-1,18
 1987 569 1987 569 1987 379 c 0,19,20
 1987 188 1987 188 1880 79.5 c 128,-1,21
 1773 -29 1773 -29 1587 -29 c 128,-1,22
 1401 -29 1401 -29 1293.5 79.5 c 128,-1,23
 1186 188 1186 188 1186 379 c 0,14,15
670 -29 m 1,24,-1
 449 -29 l 1,25,-1
 1382 1520 l 1,26,-1
 1604 1520 l 1,27,-1
 670 -29 l 1,24,-1
66 1114 m 256,28,29
 66 1305 66 1305 172.5 1412.5 c 128,-1,30
 279 1520 279 1520 465 1520 c 128,-1,31
 651 1520 651 1520 757.5 1412.5 c 128,-1,32
 864 1305 864 1305 864 1114 c 128,-1,33
 864 923 864 923 757.5 815 c 128,-1,34
 651 707 651 707 465 707 c 128,-1,35
 279 707 279 707 172.5 815 c 128,-1,36
 66 923 66 923 66 1114 c 256,28,29
614 1114 m 0,37,38
 614 1181 614 1181 600.5 1232 c 128,-1,39
 587 1283 587 1283 552.5 1317.5 c 128,-1,40
 518 1352 518 1352 465 1352 c 0,41,42
 387 1352 387 1352 351 1285.5 c 128,-1,43
 315 1219 315 1219 315 1114 c 128,-1,44
 315 1009 315 1009 351 941.5 c 128,-1,45
 387 874 387 874 465 874 c 128,-1,46
 543 874 543 874 578.5 941 c 128,-1,47
 614 1008 614 1008 614 1114 c 0,37,38
EndSplineSet
EndChar

StartChar: ampersand
Encoding: 38 38 10
Width: 1786
Flags: W
HStem: -29 258<600.888 933.206> 0 21G<1258.02 1700> 1278 242<730.425 1091.84>
VStem: 123 346<358.411 651.813> 346 356<1056.3 1248.72> 1321 311<671.249 895>
DStem2: 799 991 600 743 0.67271 -0.739906<47.0226 608.096 900.023 1054.13>
LayerCount: 3
Fore
SplineSet
864 1278 m 0xac
 775 1278 702 1246 702 1165 c 0
 702 1113 745 1050 799 991 c 2
 1208 541 l 1
 1293 653 1316 782 1321 895 c 1
 1632 895 l 1
 1612 648 1537 463 1407 322 c 1
 1700 0 l 1
 1276 0 l 1x6c
 1178 109 l 1
 1096 54 945 -29 711 -29 c 0
 362 -29 123 169 123 467 c 0xb4
 123 658 210 801 428 944 c 1
 386 996 346 1066 346 1161 c 0
 346 1376 524 1520 811 1520 c 0
 954 1520 1091 1493 1206 1462 c 1
 1206 1184 l 1
 1121 1227 1001 1278 864 1278 c 0xac
469 506 m 0xb4
 469 353 596 229 758 229 c 0
 858 229 933 264 991 311 c 1
 600 743 l 1
 513 680 469 601 469 506 c 0xb4
EndSplineSet
Validated: 1
Layer: 2
SplineSet
864 1278 m 0,0,1
 792 1278 792 1278 747 1250 c 128,-1,2
 702 1222 702 1222 702 1165 c 0,3,4
 702 1097 702 1097 799 991 c 2,5,-1
 1208 541 l 1,6,7
 1311 677 1311 677 1321 895 c 1,8,-1
 1632 895 l 1,9,10
 1603 534 1603 534 1407 322 c 1,11,-1
 1700 0 l 1,12,-1
 1276 0 l 1,13,-1
 1178 109 l 1,14,15
 972 -29 972 -29 711 -29 c 0,16,17
 448 -29 448 -29 285.5 107.5 c 128,-1,18
 123 244 123 244 123 467 c 0,19,20
 123 612 123 612 194.5 725 c 128,-1,21
 266 838 266 838 428 944 c 1,22,23
 346 1046 346 1046 346 1161 c 0,24,25
 346 1323 346 1323 471.5 1421.5 c 128,-1,26
 597 1520 597 1520 811 1520 c 0,27,28
 991 1520 991 1520 1206 1462 c 1,29,-1
 1206 1184 l 1,30,31
 1020 1278 1020 1278 864 1278 c 0,0,1
469 506 m 0,32,33
 469 391 469 391 553 310 c 128,-1,34
 637 229 637 229 758 229 c 0,35,36
 890 229 890 229 991 311 c 1,37,-1
 600 743 l 1,38,39
 469 648 469 648 469 506 c 0,32,33
EndSplineSet
EndChar

StartChar: quotesingle
Encoding: 39 39 11
Width: 627
Flags: W
HStem: 938 555<195 432>
VStem: 195 237<938 1493>
LayerCount: 3
Fore
SplineSet
432 1493 m 1
 432 938 l 1
 195 938 l 1
 195 1493 l 1
 432 1493 l 1
EndSplineSet
Validated: 1
Layer: 2
SplineSet
432 1493 m 1,0,-1
 432 938 l 1,1,-1
 195 938 l 1,2,-1
 195 1493 l 1,3,-1
 432 1493 l 1,0,-1
EndSplineSet
EndChar

StartChar: parenleft
Encoding: 40 40 12
Width: 936
Flags: W
VStem: 176 340<300.784 983.862>
LayerCount: 3
Fore
SplineSet
516 643 m 256
 516 278 646 -37 772 -270 c 1
 475 -270 l 1
 329 -34 176 277 176 641 c 256
 176 1006 331 1323 475 1554 c 1
 772 1554 l 1
 648 1324 516 1006 516 643 c 256
EndSplineSet
Validated: 1
Layer: 2
SplineSet
516 643 m 256,0,1
 516 203 516 203 772 -270 c 1,2,-1
 475 -270 l 1,3,4
 413 -171 413 -171 365.5 -76.5 c 128,-1,5
 318 18 318 18 272 135 c 128,-1,6
 226 252 226 252 201 381.5 c 128,-1,7
 176 511 176 511 176 641 c 0,8,9
 176 1074 176 1074 475 1554 c 1,10,-1
 772 1554 l 1,11,12
 516 1079 516 1079 516 643 c 256,0,1
EndSplineSet
EndChar

StartChar: parenright
Encoding: 41 41 13
Width: 936
Flags: W
VStem: 420 340<301.011 982.762>
LayerCount: 3
Fore
SplineSet
760 641 m 256
 760 277 607 -34 461 -270 c 1
 164 -270 l 1
 288 -39 420 280 420 643 c 256
 420 1003 290 1320 164 1554 c 1
 461 1554 l 1
 605 1323 760 1006 760 641 c 256
EndSplineSet
Validated: 1
Layer: 2
SplineSet
760 641 m 256,0,1
 760 511 760 511 735 381.5 c 128,-1,2
 710 252 710 252 664 135 c 128,-1,3
 618 18 618 18 570.5 -76.5 c 128,-1,4
 523 -171 523 -171 461 -270 c 1,5,-1
 164 -270 l 1,6,7
 420 207 420 207 420 643 c 128,-1,8
 420 1079 420 1079 164 1554 c 1,9,-1
 461 1554 l 1,10,11
 760 1074 760 1074 760 641 c 256,0,1
EndSplineSet
EndChar

StartChar: asterisk
Encoding: 42 42 14
Width: 1071
Flags: W
HStem: 1500 20G<451 621>
VStem: 451 170<569 913 1176 1520>
DStem2: 451 1176 375 1044 0.881925 -0.47139<-380.356 -4.80278 281.823 654.32> 375 1044 451 913 0.881925 0.47139<-376.025 0 286.626 658.651>
LayerCount: 3
Fore
SplineSet
1030 1217 m 1
 700 1044 l 1
 1030 870 l 1
 954 729 l 1
 621 913 l 1
 621 569 l 1
 451 569 l 1
 451 913 l 1
 117 729 l 1
 41 870 l 1
 375 1044 l 1
 41 1217 l 1
 117 1358 l 1
 451 1176 l 1
 451 1520 l 1
 621 1520 l 1
 621 1176 l 1
 954 1358 l 1
 1030 1217 l 1
EndSplineSet
Validated: 1
Layer: 2
SplineSet
1030 1217 m 1,0,-1
 700 1044 l 1,1,-1
 1030 870 l 1,2,-1
 954 729 l 1,3,-1
 621 913 l 1,4,-1
 621 569 l 1,5,-1
 451 569 l 1,6,-1
 451 913 l 1,7,-1
 117 729 l 1,8,-1
 41 870 l 1,9,-1
 375 1044 l 1,10,-1
 41 1217 l 1,11,-1
 117 1358 l 1,12,-1
 451 1176 l 1,13,-1
 451 1520 l 1,14,-1
 621 1520 l 1,15,-1
 621 1176 l 1,16,-1
 954 1358 l 1,17,-1
 1030 1217 l 1,0,-1
EndSplineSet
EndChar

StartChar: plus
Encoding: 43 43 15
Width: 1716
Flags: W
HStem: 0 21G<739 977> 524 236<217 739 977 1499>
VStem: 739 238<0 524 760 1284>
LayerCount: 3
Fore
SplineSet
977 1284 m 1
 977 760 l 1
 1499 760 l 1
 1499 524 l 1
 977 524 l 1
 977 0 l 1
 739 0 l 1
 739 524 l 1
 217 524 l 1
 217 760 l 1
 739 760 l 1
 739 1284 l 1
 977 1284 l 1
EndSplineSet
Validated: 1
Layer: 2
SplineSet
977 1284 m 1,0,-1
 977 760 l 1,1,-1
 1499 760 l 1,2,-1
 1499 524 l 1,3,-1
 977 524 l 1,4,-1
 977 0 l 1,5,-1
 739 0 l 1,6,-1
 739 524 l 1,7,-1
 217 524 l 1,8,-1
 217 760 l 1,9,-1
 739 760 l 1,10,-1
 739 1284 l 1,11,-1
 977 1284 l 1,0,-1
EndSplineSet
EndChar

StartChar: comma
Encoding: 44 44 16
Width: 778
Flags: W
HStem: -291 678<209 322>
VStem: 209 360<82 387>
LayerCount: 3
Fore
SplineSet
209 387 m 1
 569 387 l 1
 569 82 l 1
 322 -291 l 1
 109 -291 l 1
 209 82 l 1
 209 387 l 1
EndSplineSet
Validated: 1
Layer: 2
SplineSet
209 387 m 1,0,-1
 569 387 l 1,1,-1
 569 82 l 1,2,-1
 322 -291 l 1,3,-1
 109 -291 l 1,4,-1
 209 82 l 1,5,-1
 209 387 l 1,0,-1
EndSplineSet
EndChar

StartChar: hyphen
Encoding: 45 45 17
Width: 850
Flags: W
HStem: 444 291<111 739>
VStem: 111 628<444 735>
LayerCount: 3
Fore
SplineSet
111 735 m 1
 739 735 l 1
 739 444 l 1
 111 444 l 1
 111 735 l 1
EndSplineSet
Validated: 1
Layer: 2
SplineSet
111 735 m 1,0,-1
 739 735 l 1,1,-1
 739 444 l 1,2,-1
 111 444 l 1,3,-1
 111 735 l 1,0,-1
EndSplineSet
EndChar

StartChar: period
Encoding: 46 46 18
Width: 778
Flags: W
HStem: 0 387<209 569>
VStem: 209 360<0 387>
LayerCount: 3
Fore
SplineSet
209 387 m 1
 569 387 l 1
 569 0 l 1
 209 0 l 1
 209 387 l 1
EndSplineSet
Validated: 1
Layer: 2
SplineSet
209 387 m 1,0,-1
 569 387 l 1,1,-1
 569 0 l 1,2,-1
 209 0 l 1,3,-1
 209 387 l 1,0,-1
EndSplineSet
EndChar

StartChar: slash
Encoding: 47 47 19
Width: 748
Flags: W
HStem: 1473 20G<519.749 748>
DStem2: 0 -190 221 -190 0.298824 0.954308<66.0401 1763.28>
LayerCount: 3
Fore
SplineSet
526 1493 m 1
 748 1493 l 1
 221 -190 l 1
 0 -190 l 1
 526 1493 l 1
EndSplineSet
Validated: 1
Layer: 2
SplineSet
526 1493 m 1,0,-1
 748 1493 l 1,1,-1
 221 -190 l 1,2,-1
 0 -190 l 1,3,-1
 526 1493 l 1,0,-1
EndSplineSet
EndChar

StartChar: zero
Encoding: 48 48 20
Width: 1425
Flags: W
HStem: -29 262<594.271 831.403> 1257 263<594.04 831.403>
VStem: 98 385<407.203 1084.04> 942 385<407.84 1079.67>
LayerCount: 3
Fore
SplineSet
713 233 m 0
 896 233 942 419 942 748 c 0
 942 1076 896 1257 713 1257 c 256
 529 1257 483 1075 483 748 c 0
 483 418 529 233 713 233 c 0
713 1520 m 0
 1136 1520 1327 1204 1327 745 c 0
 1327 288 1136 -29 713 -29 c 0
 290 -29 98 286 98 745 c 0
 98 1204 288 1520 713 1520 c 0
EndSplineSet
Validated: 1
Layer: 2
SplineSet
713 233 m 0,0,1
 780 233 780 233 825.5 266 c 128,-1,2
 871 299 871 299 896.5 368 c 128,-1,3
 922 437 922 437 932 527.5 c 128,-1,4
 942 618 942 618 942 748 c 128,-1,5
 942 878 942 878 932 967 c 128,-1,6
 922 1056 922 1056 896.5 1124 c 128,-1,7
 871 1192 871 1192 826 1224.5 c 128,-1,8
 781 1257 781 1257 713 1257 c 0,9,10
 582 1257 582 1257 532.5 1133.5 c 128,-1,11
 483 1010 483 1010 483 748 c 0,12,13
 483 618 483 618 493.5 527.5 c 128,-1,14
 504 437 504 437 529 368 c 128,-1,15
 554 299 554 299 599.5 266 c 128,-1,16
 645 233 645 233 713 233 c 0,0,1
713 1520 m 0,17,18
 868 1520 868 1520 986.5 1464 c 128,-1,19
 1105 1408 1105 1408 1179 1304.5 c 128,-1,20
 1253 1201 1253 1201 1290 1060.5 c 128,-1,21
 1327 920 1327 920 1327 745 c 0,22,23
 1327 571 1327 571 1290 431 c 128,-1,24
 1253 291 1253 291 1179 187 c 128,-1,25
 1105 83 1105 83 986.5 27 c 128,-1,26
 868 -29 868 -29 713 -29 c 128,-1,27
 558 -29 558 -29 439 27 c 128,-1,28
 320 83 320 83 246 186.5 c 128,-1,29
 172 290 172 290 135 430 c 128,-1,30
 98 570 98 570 98 745 c 0,31,32
 98 884 98 884 121 1002 c 128,-1,33
 144 1120 144 1120 192.5 1216 c 128,-1,34
 241 1312 241 1312 313 1379.5 c 128,-1,35
 385 1447 385 1447 486.5 1483.5 c 128,-1,36
 588 1520 588 1520 713 1520 c 0,17,18
EndSplineSet
EndChar

StartChar: one
Encoding: 49 49 21
Width: 1425
Flags: W
HStem: 0 266<240 580 944 1284> 1473 20G<481.611 944>
VStem: 580 364<266 1231>
LayerCount: 3
Fore
SplineSet
240 266 m 1
 580 266 l 1
 580 1231 l 1
 231 1159 l 1
 231 1421 l 1
 578 1493 l 1
 944 1493 l 1
 944 266 l 1
 1284 266 l 1
 1284 0 l 1
 240 0 l 1
 240 266 l 1
EndSplineSet
Validated: 1
Layer: 2
SplineSet
240 266 m 1,0,-1
 580 266 l 1,1,-1
 580 1231 l 1,2,-1
 231 1159 l 1,3,-1
 231 1421 l 1,4,-1
 578 1493 l 1,5,-1
 944 1493 l 1,6,-1
 944 266 l 1,7,-1
 1284 266 l 1,8,-1
 1284 0 l 1,9,-1
 240 0 l 1,10,-1
 240 266 l 1,0,-1
EndSplineSet
EndChar

StartChar: two
Encoding: 50 50 22
Width: 1425
Flags: W
HStem: 0 283<590 1247> 1257 263<380.865 750.383>
VStem: 850 387<883.179 1159.04>
DStem2: 162 283 590 283 0.749758 0.661713<320.896 930.23>
LayerCount: 3
Fore
SplineSet
672 1520 m 0
 1003 1520 1237 1377 1237 1073 c 0
 1237 869 1110 739 909 563 c 2
 590 283 l 1
 1247 283 l 1
 1247 0 l 1
 162 0 l 1
 162 283 l 1
 707 764 l 1
 788 837 850 920 850 1024 c 0
 850 1164 750 1257 592 1257 c 0
 425 1257 250 1156 166 1104 c 1
 166 1432 l 1
 308 1479 484 1520 672 1520 c 0
EndSplineSet
Validated: 1
Layer: 2
SplineSet
672 1520 m 0,0,1
 841 1520 841 1520 966 1472.5 c 128,-1,2
 1091 1425 1091 1425 1164 1323 c 128,-1,3
 1237 1221 1237 1221 1237 1073 c 0,4,5
 1237 1013 1237 1013 1221 957.5 c 128,-1,6
 1205 902 1205 902 1180 856.5 c 128,-1,7
 1155 811 1155 811 1110 759 c 128,-1,8
 1065 707 1065 707 1021 665 c 128,-1,9
 977 623 977 623 909 563 c 2,10,-1
 590 283 l 1,11,-1
 1247 283 l 1,12,-1
 1247 0 l 1,13,-1
 162 0 l 1,14,-1
 162 283 l 1,15,-1
 707 764 l 2,16,17
 850 893 850 893 850 1024 c 0,18,19
 850 1129 850 1129 780 1193 c 128,-1,20
 710 1257 710 1257 592 1257 c 0,21,22
 413 1257 413 1257 166 1104 c 1,23,-1
 166 1432 l 1,24,25
 432 1520 432 1520 672 1520 c 0,0,1
EndSplineSet
EndChar

StartChar: three
Encoding: 51 51 23
Width: 1425
Flags: W
HStem: -29 262<293.641 778.732> 645 248<393 765.525> 1257 263<304.366 764.455>
VStem: 842 385<962.354 1190.27> 877 385<319.749 559.12>
LayerCount: 3
Fore
SplineSet
1227 1137 m 0xf0
 1227 946 1117 846 954 805 c 1
 1123 761 1262 653 1262 424 c 0
 1262 87 968 -29 596 -29 c 0
 470 -29 312 -12 137 45 c 1
 137 342 l 1
 242 289 391 233 561 233 c 0
 732 233 877 285 877 438 c 0xe8
 877 521 836 645 547 645 c 2
 393 645 l 1
 393 893 l 1
 555 893 l 2
 768 893 842 967 842 1077 c 0
 842 1207 724 1257 578 1257 c 0
 427 1257 296 1216 201 1174 c 1
 201 1456 l 1
 373 1504 524 1520 647 1520 c 0
 1073 1520 1227 1367 1227 1137 c 0xf0
EndSplineSet
Validated: 1
Layer: 2
SplineSet
1227 1137 m 0,0,1
 1227 874 1227 874 954 805 c 1,2,3
 1021 788 1021 788 1074 758.5 c 128,-1,4
 1127 729 1127 729 1170.5 684.5 c 128,-1,5
 1214 640 1214 640 1238 573.5 c 128,-1,6
 1262 507 1262 507 1262 424 c 0,7,8
 1262 301 1262 301 1211 211.5 c 128,-1,9
 1160 122 1160 122 1067.5 70.5 c 128,-1,10
 975 19 975 19 858 -5 c 128,-1,11
 741 -29 741 -29 596 -29 c 0,12,13
 364 -29 364 -29 137 45 c 1,14,-1
 137 342 l 1,15,16
 353 233 353 233 561 233 c 0,17,18
 652 233 652 233 720 251.5 c 128,-1,19
 788 270 788 270 832.5 317.5 c 128,-1,20
 877 365 877 365 877 438 c 0,21,22
 877 645 877 645 547 645 c 2,23,-1
 393 645 l 1,24,-1
 393 893 l 1,25,-1
 555 893 l 2,26,27
 842 893 842 893 842 1077 c 0,28,29
 842 1169 842 1169 769 1213 c 128,-1,30
 696 1257 696 1257 578 1257 c 0,31,32
 389 1257 389 1257 201 1174 c 1,33,-1
 201 1456 l 1,34,35
 430 1520 430 1520 647 1520 c 0,36,37
 1227 1520 1227 1520 1227 1137 c 0,0,1
EndSplineSet
EndChar

StartChar: four
Encoding: 52 52 24
Width: 1425
Flags: W
HStem: 0 21G<754 1118> 272 279<332 754 1118 1331> 1473 20G<676.577 1118>
VStem: 754 364<0 272 551 1176>
DStem2: 92 602 332 551 0.557278 0.830326<91.4001 845.525>
LayerCount: 3
Fore
SplineSet
754 1176 m 1
 332 551 l 1
 754 551 l 1
 754 1176 l 1
690 1493 m 1
 1118 1493 l 1
 1118 551 l 1
 1331 551 l 1
 1331 272 l 1
 1118 272 l 1
 1118 0 l 1
 754 0 l 1
 754 272 l 1
 92 272 l 1
 92 602 l 1
 690 1493 l 1
EndSplineSet
Validated: 1
Layer: 2
SplineSet
754 1176 m 1,0,-1
 332 551 l 1,1,-1
 754 551 l 1,2,-1
 754 1176 l 1,0,-1
690 1493 m 1,3,-1
 1118 1493 l 1,4,-1
 1118 551 l 1,5,-1
 1331 551 l 1,6,-1
 1331 272 l 1,7,-1
 1118 272 l 1,8,-1
 1118 0 l 1,9,-1
 754 0 l 1,10,-1
 754 272 l 1,11,-1
 92 272 l 1,12,-1
 92 602 l 1,13,-1
 690 1493 l 1,3,-1
EndSplineSet
EndChar

StartChar: five
Encoding: 53 53 25
Width: 1425
Flags: W
HStem: -29 262<363.986 778.096> 741 263<526.312 775.779> 1210 283<524 1174>
VStem: 217 307<979 1210> 897 385<339.308 633.945>
LayerCount: 3
Fore
SplineSet
596 741 m 0
 444 741 297 686 217 653 c 1
 217 1493 l 1
 1174 1493 l 1
 1174 1210 l 1
 524 1210 l 1
 524 979 l 1
 594 998 651 1004 705 1004 c 0
 1060 1004 1282 823 1282 487 c 0
 1282 145 1029 -29 657 -29 c 0
 466 -29 300 12 158 70 c 1
 158 373 l 1
 254 318 422 233 596 233 c 0
 775 233 897 323 897 487 c 0
 897 652 775 741 596 741 c 0
EndSplineSet
Validated: 1
Layer: 2
SplineSet
596 741 m 0,0,1
 430 741 430 741 217 653 c 1,2,-1
 217 1493 l 1,3,-1
 1174 1493 l 1,4,-1
 1174 1210 l 1,5,-1
 524 1210 l 1,6,-1
 524 979 l 1,7,8
 616 1004 616 1004 705 1004 c 0,9,10
 975 1004 975 1004 1128.5 870 c 128,-1,11
 1282 736 1282 736 1282 487 c 0,12,13
 1282 237 1282 237 1113 104 c 128,-1,14
 944 -29 944 -29 657 -29 c 0,15,16
 400 -29 400 -29 158 70 c 1,17,-1
 158 373 l 1,18,19
 402 233 402 233 596 233 c 0,20,21
 733 233 733 233 815 299.5 c 128,-1,22
 897 366 897 366 897 487 c 128,-1,23
 897 608 897 608 815 674.5 c 128,-1,24
 733 741 733 741 596 741 c 0,0,1
EndSplineSet
EndChar

StartChar: six
Encoding: 54 54 26
Width: 1425
Flags: W
HStem: -29 242<608.64 868.084> 737 248<610.862 868.023> 1266 252<679.692 1110.75>
VStem: 127 412<397.004 879.05> 944 371<290.589 662.517>
LayerCount: 3
Fore
SplineSet
944 475 m 256
 944 667 863 737 741 737 c 0
 594 737 539 632 539 475 c 256
 539 283 620 213 741 213 c 0
 889 213 944 317 944 475 c 256
825 1518 m 0
 974 1518 1099 1494 1217 1454 c 1
 1217 1178 l 1
 1131 1219 1011 1266 874 1266 c 0
 631 1266 514 1123 494 887 c 1
 593 960 700 985 805 985 c 0
 1115 985 1315 789 1315 500 c 0
 1315 174 1086 -29 737 -29 c 0
 322 -29 127 275 127 725 c 0
 127 1205 376 1518 825 1518 c 0
EndSplineSet
Validated: 1
Layer: 2
SplineSet
944 475 m 256,0,1
 944 737 944 737 741 737 c 0,2,3
 539 737 539 737 539 475 c 128,-1,4
 539 213 539 213 741 213 c 0,5,6
 944 213 944 213 944 475 c 256,0,1
825 1518 m 0,7,8
 1028 1518 1028 1518 1217 1454 c 1,9,-1
 1217 1178 l 1,10,11
 1032 1266 1032 1266 874 1266 c 0,12,13
 697 1266 697 1266 603 1168 c 128,-1,14
 509 1070 509 1070 494 887 c 1,15,16
 627 985 627 985 805 985 c 0,17,18
 1036 985 1036 985 1175.5 851.5 c 128,-1,19
 1315 718 1315 718 1315 500 c 0,20,21
 1315 257 1315 257 1157.5 114 c 128,-1,22
 1000 -29 1000 -29 737 -29 c 0,23,24
 584 -29 584 -29 467 25 c 128,-1,25
 350 79 350 79 276 179.5 c 128,-1,26
 202 280 202 280 164.5 417 c 128,-1,27
 127 554 127 554 127 725 c 0,28,29
 127 966 127 966 207 1143.5 c 128,-1,30
 287 1321 287 1321 445.5 1419.5 c 128,-1,31
 604 1518 604 1518 825 1518 c 0,7,8
EndSplineSet
EndChar

StartChar: seven
Encoding: 55 55 27
Width: 1425
Flags: W
HStem: 0 21G<305 689.122> 1210 283<137 856>
DStem2: 305 0 680 0 0.414984 0.909828<155.619 1329.55>
LayerCount: 3
Fore
SplineSet
137 1493 m 1
 1262 1493 l 1
 1262 1276 l 1
 680 0 l 1
 305 0 l 1
 856 1210 l 1
 137 1210 l 1
 137 1493 l 1
EndSplineSet
Validated: 1
Layer: 2
SplineSet
137 1493 m 1,0,-1
 1262 1493 l 1,1,-1
 1262 1276 l 1,2,-1
 680 0 l 1,3,-1
 305 0 l 1,4,-1
 856 1210 l 1,5,-1
 137 1210 l 1,6,-1
 137 1493 l 1,0,-1
EndSplineSet
EndChar

StartChar: eight
Encoding: 56 56 28
Width: 1425
Flags: W
HStem: -29 242<567.37 860.499> 668 241<574.501 846.207> 1278 242<581.315 844.641>
VStem: 125 364<290.405 592.844> 158 364<964.839 1221.2> 901 365<964.589 1222.46> 934 364<288.135 592.858>
LayerCount: 3
Fore
SplineSet
934 440 m 0xf2
 934 587 857 668 713 668 c 0
 569 668 489 588 489 440 c 256
 489 292 569 213 713 213 c 0
 856 213 934 293 934 440 c 0xf2
125 420 m 0
 125 633 254 746 432 795 c 1
 276 842 158 942 158 1133 c 0
 158 1288 232 1520 713 1520 c 0
 1025 1520 1266 1419 1266 1133 c 0xec
 1266 998 1206 860 991 795 c 1
 1169 746 1298 634 1298 420 c 0
 1298 151 1133 -29 713 -29 c 0
 364 -29 125 95 125 420 c 0
713 1278 m 0
 590 1278 522 1212 522 1094 c 0
 522 975 590 909 713 909 c 0
 834 909 901 975 901 1094 c 256
 901 1213 834 1278 713 1278 c 0
EndSplineSet
Validated: 1
Layer: 2
SplineSet
934 440 m 0,0,1
 934 551 934 551 877.5 609.5 c 128,-1,2
 821 668 821 668 713 668 c 128,-1,3
 605 668 605 668 547 609.5 c 128,-1,4
 489 551 489 551 489 440 c 128,-1,5
 489 329 489 329 547 271 c 128,-1,6
 605 213 605 213 713 213 c 0,7,8
 820 213 820 213 877 271.5 c 128,-1,9
 934 330 934 330 934 440 c 0,0,1
125 420 m 0,10,11
 125 710 125 710 432 795 c 1,12,13
 158 878 158 878 158 1133 c 0,14,15
 158 1170 158 1170 163.5 1203.5 c 128,-1,16
 169 1237 169 1237 184.5 1277 c 128,-1,17
 200 1317 200 1317 225 1350.5 c 128,-1,18
 250 1384 250 1384 293 1416 c 128,-1,19
 336 1448 336 1448 392.5 1470.5 c 128,-1,20
 449 1493 449 1493 531 1506.5 c 128,-1,21
 613 1520 613 1520 713 1520 c 0,22,23
 834 1520 834 1520 931.5 1499 c 128,-1,24
 1029 1478 1029 1478 1105.5 1434 c 128,-1,25
 1182 1390 1182 1390 1224 1313.5 c 128,-1,26
 1266 1237 1266 1237 1266 1133 c 0,27,28
 1266 878 1266 878 991 795 c 1,29,30
 1298 710 1298 710 1298 420 c 0,31,32
 1298 208 1298 208 1157 89.5 c 128,-1,33
 1016 -29 1016 -29 713 -29 c 0,34,35
 579 -29 579 -29 473.5 -4 c 128,-1,36
 368 21 368 21 288.5 73.5 c 128,-1,37
 209 126 209 126 167 213.5 c 128,-1,38
 125 301 125 301 125 420 c 0,10,11
713 1278 m 0,39,40
 621 1278 621 1278 571.5 1230.5 c 128,-1,41
 522 1183 522 1183 522 1094 c 128,-1,42
 522 1005 522 1005 571.5 957 c 128,-1,43
 621 909 621 909 713 909 c 0,44,45
 804 909 804 909 852.5 957 c 128,-1,46
 901 1005 901 1005 901 1094 c 128,-1,47
 901 1183 901 1183 852.5 1230.5 c 128,-1,48
 804 1278 804 1278 713 1278 c 0,39,40
EndSplineSet
EndChar

StartChar: nine
Encoding: 57 57 29
Width: 1425
Flags: W
HStem: -29 252<306.35 740.063> 502 250<553.059 811.366> 1276 242<553.769 811.666>
VStem: 106 371<831.149 1197.33> 883 411<609.744 1092.6>
LayerCount: 3
Fore
SplineSet
594 -29 m 0
 445 -29 321 -6 205 33 c 1
 205 309 l 1
 362 236 470 223 547 223 c 0
 693 223 898 274 928 602 c 1
 872 561 772 502 616 502 c 0
 307 502 106 696 106 987 c 0
 106 1314 333 1518 682 1518 c 0
 1098 1518 1294 1214 1294 764 c 0
 1294 283 1044 -29 594 -29 c 0
477 1014 m 0
 477 823 558 752 680 752 c 256
 802 752 883 823 883 1014 c 0
 883 1171 827 1276 680 1276 c 256
 558 1276 477 1203 477 1014 c 0
EndSplineSet
Validated: 1
Layer: 2
SplineSet
594 -29 m 0,0,1
 389 -29 389 -29 205 33 c 1,2,-1
 205 309 l 1,3,4
 390 223 390 223 547 223 c 0,5,6
 893 223 893 223 928 602 c 1,7,8
 791 502 791 502 616 502 c 0,9,10
 385 502 385 502 245.5 635 c 128,-1,11
 106 768 106 768 106 987 c 0,12,13
 106 1231 106 1231 262.5 1374.5 c 128,-1,14
 419 1518 419 1518 682 1518 c 0,15,16
 835 1518 835 1518 952.5 1464 c 128,-1,17
 1070 1410 1070 1410 1144.5 1309.5 c 128,-1,18
 1219 1209 1219 1209 1256.5 1072 c 128,-1,19
 1294 935 1294 935 1294 764 c 0,20,21
 1294 398 1294 398 1110.5 184.5 c 128,-1,22
 927 -29 927 -29 594 -29 c 0,0,1
477 1014 m 128,-1,24
 477 752 477 752 680 752 c 128,-1,25
 883 752 883 752 883 1014 c 128,-1,26
 883 1276 883 1276 680 1276 c 128,-1,23
 477 1276 477 1276 477 1014 c 128,-1,24
EndSplineSet
EndChar

StartChar: colon
Encoding: 58 58 30
Width: 819
Flags: W
HStem: 0 387<229 590> 733 387<229 590>
VStem: 229 361<0 387 733 1120>
LayerCount: 3
Fore
SplineSet
229 1120 m 1
 590 1120 l 1
 590 733 l 1
 229 733 l 1
 229 1120 l 1
229 387 m 1
 590 387 l 1
 590 0 l 1
 229 0 l 1
 229 387 l 1
EndSplineSet
Validated: 1
Layer: 2
SplineSet
229 1120 m 1,0,-1
 590 1120 l 1,1,-1
 590 733 l 1,2,-1
 229 733 l 1,3,-1
 229 1120 l 1,0,-1
229 387 m 1,4,-1
 590 387 l 1,5,-1
 590 0 l 1,6,-1
 229 0 l 1,7,-1
 229 387 l 1,4,-1
EndSplineSet
EndChar

StartChar: semicolon
Encoding: 59 59 31
Width: 819
Flags: W
HStem: 733 387<229 590>
VStem: 229 361<82 387 733 1120>
LayerCount: 3
Fore
SplineSet
229 387 m 1
 590 387 l 1
 590 82 l 1
 342 -291 l 1
 129 -291 l 1
 229 82 l 1
 229 387 l 1
229 1120 m 1
 590 1120 l 1
 590 733 l 1
 229 733 l 1
 229 1120 l 1
EndSplineSet
Validated: 1
Layer: 2
SplineSet
229 387 m 1,0,-1
 590 387 l 1,1,-1
 590 82 l 1,2,-1
 342 -291 l 1,3,-1
 129 -291 l 1,4,-1
 229 82 l 1,5,-1
 229 387 l 1,0,-1
229 1120 m 1,6,-1
 590 1120 l 1,7,-1
 590 733 l 1,8,-1
 229 733 l 1,9,-1
 229 1120 l 1,6,-1
EndSplineSet
EndChar

StartChar: less
Encoding: 60 60 32
Width: 1716
Flags: W
HStem: 1203 20G<1443.62 1499>
DStem2: 535 641 217 524 0.940541 -0.339681<0 1018.78>
LayerCount: 3
Fore
SplineSet
1499 973 m 1
 535 641 l 1
 1499 311 l 1
 1499 61 l 1
 217 524 l 1
 217 760 l 1
 1499 1223 l 1
 1499 973 l 1
EndSplineSet
Validated: 1
Layer: 2
SplineSet
1499 973 m 1,0,-1
 535 641 l 1,1,-1
 1499 311 l 1,2,-1
 1499 61 l 1,3,-1
 217 524 l 1,4,-1
 217 760 l 1,5,-1
 1499 1223 l 1,6,-1
 1499 973 l 1,0,-1
EndSplineSet
EndChar

StartChar: equal
Encoding: 61 61 33
Width: 1716
Flags: W
HStem: 295 237<217 1499> 752 235<217 1499>
LayerCount: 3
Fore
SplineSet
217 987 m 1
 1499 987 l 1
 1499 752 l 1
 217 752 l 1
 217 987 l 1
217 532 m 1
 1499 532 l 1
 1499 295 l 1
 217 295 l 1
 217 532 l 1
EndSplineSet
Validated: 1
Layer: 2
SplineSet
217 987 m 1,0,-1
 1499 987 l 1,1,-1
 1499 752 l 1,2,-1
 217 752 l 1,3,-1
 217 987 l 1,0,-1
217 532 m 1,4,-1
 1499 532 l 1,5,-1
 1499 295 l 1,6,-1
 217 295 l 1,7,-1
 217 532 l 1,4,-1
EndSplineSet
EndChar

StartChar: greater
Encoding: 62 62 34
Width: 1716
Flags: W
HStem: 1203 20G<217 272.378>
DStem2: 217 1223 217 973 0.940541 -0.339681<84.9201 1105.32> 217 311 217 61 0.940541 0.339681<0 1019.72>
LayerCount: 3
Fore
SplineSet
217 973 m 1
 217 1223 l 1
 1499 760 l 1
 1499 524 l 1
 217 61 l 1
 217 311 l 1
 1182 641 l 1
 217 973 l 1
EndSplineSet
Validated: 1
Layer: 2
SplineSet
217 973 m 1,0,-1
 217 1223 l 1,1,-1
 1499 760 l 1,2,-1
 1499 524 l 1,3,-1
 217 61 l 1,4,-1
 217 311 l 1,5,-1
 1182 641 l 1,6,-1
 217 973 l 1,0,-1
EndSplineSet
EndChar

StartChar: question
Encoding: 63 63 35
Width: 1188
Flags: W
HStem: 0 356<348 709> 1124 21G<141 180> 1257 263<311.449 650.538>
VStem: 348 361<0 356 504 663.658> 694 361<989.861 1214.94>
LayerCount: 3
Fore
SplineSet
555 1520 m 0xe8
 852 1520 1055 1407 1055 1130 c 0xe8
 1055 993 1002 900 883 788 c 1
 819 731 l 1
 747 665 709 622 709 549 c 2
 709 504 l 1
 348 504 l 1
 348 553 l 2xf0
 348 682 405 753 520 860 c 1
 584 918 l 2
 639 968 694 1032 694 1108 c 0
 694 1207 620 1257 512 1257 c 0
 366 1257 219 1174 141 1124 c 1
 141 1438 l 1
 249 1475 397 1520 555 1520 c 0xe8
348 356 m 1xf0
 709 356 l 1
 709 0 l 1
 348 0 l 1
 348 356 l 1xf0
EndSplineSet
Validated: 1
Layer: 2
SplineSet
555 1520 m 0,0,1
 669 1520 669 1520 759 1497.5 c 128,-1,2
 849 1475 849 1475 916 1429 c 128,-1,3
 983 1383 983 1383 1019 1307.5 c 128,-1,4
 1055 1232 1055 1232 1055 1130 c 0,5,6
 1055 1030 1055 1030 1015 952 c 128,-1,7
 975 874 975 874 883 788 c 2,8,-1
 819 731 l 2,9,10
 759 676 759 676 734 638 c 128,-1,11
 709 600 709 600 709 549 c 2,12,-1
 709 504 l 1,13,-1
 348 504 l 1,14,-1
 348 553 l 2,15,16
 348 644 348 644 387 708 c 128,-1,17
 426 772 426 772 520 860 c 2,18,-1
 584 918 l 2,19,20
 694 1018 694 1018 694 1108 c 0,21,22
 694 1180 694 1180 644.5 1218.5 c 128,-1,23
 595 1257 595 1257 512 1257 c 0,24,25
 348 1257 348 1257 141 1124 c 1,26,-1
 141 1438 l 1,27,28
 380 1520 380 1520 555 1520 c 0,0,1
348 356 m 1,29,-1
 709 356 l 1,30,-1
 709 0 l 1,31,-1
 348 0 l 1,32,-1
 348 356 l 1,29,-1
EndSplineSet
EndChar

StartChar: at
Encoding: 64 64 36
Width: 2048
Flags: W
HStem: -356 188<791.313 1281.54> 88 186<911.017 1144.63 1450 1555.69> 801 186<906.003 1144.16> 1253 187<794.613 1306.02>
VStem: 135 187<298.47 782.096> 602 229<360.026 717.804> 1221 229<360.167 716.473> 1241 209<836 967> 1716 187<438.661 869.562>
LayerCount: 3
Fore
SplineSet
1024 801 m 0xfe80
 895 801 831 686 831 539 c 0
 831 391 894 274 1026 274 c 0
 1157 274 1221 391 1221 539 c 0
 1221 687 1156 801 1024 801 c 0xfe80
1903 655 m 0
 1903 285 1669 84 1280 84 c 2
 1241 84 l 1
 1241 238 l 1
 1203 148 1115 88 989 88 c 0
 757 88 602 270 602 537 c 256
 602 803 757 987 989 987 c 0
 1115 987 1203 925 1241 836 c 1
 1241 967 l 1
 1450 967 l 1
 1450 274 l 1xfd80
 1619 300 1716 444 1716 651 c 0
 1716 1012 1407 1253 1053 1253 c 0
 615 1253 322 926 322 543 c 0
 322 136 632 -168 1036 -168 c 0
 1218 -168 1394 -92 1503 6 c 1
 1610 -156 l 1
 1465 -268 1267 -356 1038 -356 c 0
 554 -356 135 4 135 543 c 0
 135 1079 569 1440 1038 1440 c 0
 1545 1440 1903 1088 1903 655 c 0
EndSplineSet
Validated: 1
Layer: 2
SplineSet
1024 801 m 0,0,1
 931 801 931 801 881 728 c 128,-1,2
 831 655 831 655 831 539 c 0,3,4
 831 422 831 422 881 348 c 128,-1,5
 931 274 931 274 1026 274 c 0,6,7
 1120 274 1120 274 1170.5 348 c 128,-1,8
 1221 422 1221 422 1221 539 c 0,9,10
 1221 655 1221 655 1170 728 c 128,-1,11
 1119 801 1119 801 1024 801 c 0,0,1
1903 655 m 0,12,13
 1903 380 1903 380 1738.5 232 c 128,-1,14
 1574 84 1574 84 1280 84 c 2,15,-1
 1241 84 l 1,16,-1
 1241 238 l 1,17,18
 1212 169 1212 169 1146.5 128.5 c 128,-1,19
 1081 88 1081 88 989 88 c 0,20,21
 815 88 815 88 708.5 212 c 128,-1,22
 602 336 602 336 602 537 c 0,23,24
 602 737 602 737 709 862 c 128,-1,25
 816 987 816 987 989 987 c 0,26,27
 1081 987 1081 987 1146 946 c 128,-1,28
 1211 905 1211 905 1241 836 c 1,29,-1
 1241 967 l 1,30,-1
 1450 967 l 1,31,-1
 1450 274 l 1,32,33
 1576 293 1576 293 1646 394 c 128,-1,34
 1716 495 1716 495 1716 651 c 0,35,36
 1716 783 1716 783 1662 897 c 128,-1,37
 1608 1011 1608 1011 1517.5 1088 c 128,-1,38
 1427 1165 1427 1165 1306 1209 c 128,-1,39
 1185 1253 1185 1253 1053 1253 c 0,40,41
 893 1253 893 1253 755 1196 c 128,-1,42
 617 1139 617 1139 523 1042 c 128,-1,43
 429 945 429 945 375.5 815.5 c 128,-1,44
 322 686 322 686 322 543 c 0,45,46
 322 393 322 393 377 260.5 c 128,-1,47
 432 128 432 128 527 34.5 c 128,-1,48
 622 -59 622 -59 754.5 -113.5 c 128,-1,49
 887 -168 887 -168 1036 -168 c 0,50,51
 1168 -168 1168 -168 1293 -119.5 c 128,-1,52
 1418 -71 1418 -71 1503 6 c 1,53,-1
 1610 -156 l 1,54,55
 1351 -356 1351 -356 1038 -356 c 0,56,57
 894 -356 894 -356 758.5 -315 c 128,-1,58
 623 -274 623 -274 510.5 -194.5 c 128,-1,59
 398 -115 398 -115 313.5 -7 c 128,-1,60
 229 101 229 101 182 243 c 128,-1,61
 135 385 135 385 135 543 c 0,62,63
 135 700 135 700 183.5 841.5 c 128,-1,64
 232 983 232 983 318 1091 c 128,-1,65
 404 1199 404 1199 517 1278 c 128,-1,66
 630 1357 630 1357 764 1398.5 c 128,-1,67
 898 1440 898 1440 1038 1440 c 0,68,69
 1224 1440 1224 1440 1386.5 1378 c 128,-1,70
 1549 1316 1549 1316 1661.5 1210 c 128,-1,71
 1774 1104 1774 1104 1838.5 960 c 128,-1,72
 1903 816 1903 816 1903 655 c 0,12,13
EndSplineSet
EndChar

StartChar: A
Encoding: 65 65 37
Width: 1585
Flags: W
HStem: 0 21G<10 403.985 1181.09 1575> 272 277<588 997> 1473 20G<555.592 1029.41>
LayerCount: 3
Fore
SplineSet
1094 272 m 1
 492 272 l 1
 397 0 l 1
 10 0 l 1
 563 1493 l 1
 1022 1493 l 1
 1575 0 l 1
 1188 0 l 1
 1094 272 l 1
588 549 m 1
 997 549 l 1
 793 1143 l 1
 588 549 l 1
EndSplineSet
Validated: 1
Layer: 2
SplineSet
1094 272 m 1,0,-1
 492 272 l 1,1,-1
 397 0 l 1,2,-1
 10 0 l 1,3,-1
 563 1493 l 1,4,-1
 1022 1493 l 1,5,-1
 1575 0 l 1,6,-1
 1188 0 l 1,7,-1
 1094 272 l 1,0,-1
588 549 m 1,8,-1
 997 549 l 1,9,-1
 793 1143 l 1,10,-1
 588 549 l 1,8,-1
EndSplineSet
EndChar

StartChar: B
Encoding: 66 66 38
Width: 1561
Flags: W
HStem: 0 262<573 960.37> 653 262<573 927.432> 1231 262<573 925.432>
VStem: 188 385<262 653 915 1231> 971 385<957.727 1185.8> 1032 385<326.075 590.818>
LayerCount: 3
Fore
SplineSet
971 1073 m 0xf8
 971 1132 950 1231 786 1231 c 2
 573 1231 l 1
 573 915 l 1
 786 915 l 2
 901 915 971 963 971 1073 c 0xf8
1032 459 m 0xf4
 1032 575 970 653 799 653 c 2
 573 653 l 1
 573 262 l 1
 799 262 l 2
 919 262 1032 301 1032 459 c 0xf4
1356 1098 m 0xf8
 1356 942 1277 845 1157 799 c 1
 1314 753 1417 625 1417 428 c 0xf4
 1417 171 1264 0 827 0 c 2
 188 0 l 1
 188 1493 l 1
 766 1493 l 2
 1233 1493 1356 1335 1356 1098 c 0xf8
EndSplineSet
Validated: 1
Layer: 2
SplineSet
971 1073 m 0,0,1
 971 1100 971 1100 964.5 1123.5 c 128,-1,2
 958 1147 958 1147 940.5 1173.5 c 128,-1,3
 923 1200 923 1200 883.5 1215.5 c 128,-1,4
 844 1231 844 1231 786 1231 c 2,5,-1
 573 1231 l 1,6,-1
 573 915 l 1,7,-1
 786 915 l 2,8,9
 971 915 971 915 971 1073 c 0,0,1
1032 459 m 0,10,11
 1032 653 1032 653 799 653 c 2,12,-1
 573 653 l 1,13,-1
 573 262 l 1,14,-1
 799 262 l 2,15,16
 1032 262 1032 262 1032 459 c 0,10,11
1356 1098 m 0,17,18
 1356 985 1356 985 1303.5 910 c 128,-1,19
 1251 835 1251 835 1157 799 c 1,20,21
 1278 764 1278 764 1347.5 668 c 128,-1,22
 1417 572 1417 572 1417 428 c 0,23,24
 1417 328 1417 328 1385.5 252 c 128,-1,25
 1354 176 1354 176 1286.5 118 c 128,-1,26
 1219 60 1219 60 1103 30 c 128,-1,27
 987 0 987 0 827 0 c 2,28,-1
 188 0 l 1,29,-1
 188 1493 l 1,30,-1
 766 1493 l 2,31,32
 937 1493 937 1493 1054.5 1465.5 c 128,-1,33
 1172 1438 1172 1438 1237 1383.5 c 128,-1,34
 1302 1329 1302 1329 1329 1260.5 c 128,-1,35
 1356 1192 1356 1192 1356 1098 c 0,17,18
EndSplineSet
EndChar

StartChar: C
Encoding: 67 67 39
Width: 1503
Flags: W
HStem: -29 279<733.053 1191.49> 1241 279<732.91 1189.52>
VStem: 102 398<511.364 979.178>
LayerCount: 3
Fore
SplineSet
942 250 m 0
 1126 250 1261 315 1372 391 c 1
 1372 82 l 1
 1247 17 1095 -29 911 -29 c 0
 411 -29 102 267 102 745 c 0
 102 1224 410 1520 911 1520 c 0
 1049 1520 1209 1494 1372 1409 c 1
 1372 1100 l 1
 1248 1184 1114 1241 942 1241 c 0
 659 1241 500 1047 500 745 c 0
 500 444 659 250 942 250 c 0
EndSplineSet
Validated: 1
Layer: 2
SplineSet
942 250 m 0,0,1
 1166 250 1166 250 1372 391 c 1,2,-1
 1372 82 l 1,3,4
 1159 -29 1159 -29 911 -29 c 0,5,6
 536 -29 536 -29 319 178.5 c 128,-1,7
 102 386 102 386 102 745 c 128,-1,8
 102 1104 102 1104 318.5 1312 c 128,-1,9
 535 1520 535 1520 911 1520 c 0,10,11
 1159 1520 1159 1520 1372 1409 c 1,12,-1
 1372 1100 l 1,13,14
 1164 1241 1164 1241 942 1241 c 0,15,16
 732 1241 732 1241 616 1107.5 c 128,-1,17
 500 974 500 974 500 745 c 128,-1,18
 500 516 500 516 616 383 c 128,-1,19
 732 250 732 250 942 250 c 0,0,1
EndSplineSet
EndChar

StartChar: D
Encoding: 68 68 40
Width: 1700
Flags: W
HStem: 0 291<573 950.353> 1202 291<573 951.996>
VStem: 188 385<291 1202> 1196 397<530.929 973.071>
LayerCount: 3
Fore
SplineSet
1196 748 m 0
 1196 1050 1022 1202 711 1202 c 2
 573 1202 l 1
 573 291 l 1
 711 291 l 2
 1021 291 1196 446 1196 748 c 0
188 1493 m 1
 594 1493 l 2
 953 1493 1195 1466 1386 1280 c 0
 1535 1136 1593 954 1593 748 c 0
 1593 328 1345 120 1098 48 c 0
 986 16 818 0 594 0 c 2
 188 0 l 1
 188 1493 l 1
EndSplineSet
Validated: 1
Layer: 2
SplineSet
1196 748 m 0,0,1
 1196 972 1196 972 1071 1087 c 128,-1,2
 946 1202 946 1202 711 1202 c 2,3,-1
 573 1202 l 1,4,-1
 573 291 l 1,5,-1
 711 291 l 2,6,7
 945 291 945 291 1070.5 407 c 128,-1,8
 1196 523 1196 523 1196 748 c 0,0,1
188 1493 m 1,9,-1
 594 1493 l 2,10,11
 743 1493 743 1493 845 1485.5 c 128,-1,12
 947 1478 947 1478 1050 1456.5 c 128,-1,13
 1153 1435 1153 1435 1234.5 1391.5 c 128,-1,14
 1316 1348 1316 1348 1386 1280 c 0,15,16
 1593 1080 1593 1080 1593 748 c 0,17,18
 1593 626 1593 626 1565 521 c 128,-1,19
 1537 416 1537 416 1490 340.5 c 128,-1,20
 1443 265 1443 265 1378.5 205 c 128,-1,21
 1314 145 1314 145 1244.5 108 c 128,-1,22
 1175 71 1175 71 1098 48 c 0,23,24
 930 0 930 0 594 0 c 2,25,-1
 188 0 l 1,26,-1
 188 1493 l 1,9,-1
EndSplineSet
EndChar

StartChar: E
Encoding: 69 69 41
Width: 1399
Flags: W
HStem: 0 291<573 1249> 633 291<573 1188> 1202 291<573 1227>
VStem: 188 385<291 633 924 1202>
LayerCount: 3
Fore
SplineSet
188 1493 m 1
 1227 1493 l 1
 1227 1202 l 1
 573 1202 l 1
 573 924 l 1
 1188 924 l 1
 1188 633 l 1
 573 633 l 1
 573 291 l 1
 1249 291 l 1
 1249 0 l 1
 188 0 l 1
 188 1493 l 1
EndSplineSet
Validated: 1
Layer: 2
SplineSet
188 1493 m 1,0,-1
 1227 1493 l 1,1,-1
 1227 1202 l 1,2,-1
 573 1202 l 1,3,-1
 573 924 l 1,4,-1
 1188 924 l 1,5,-1
 1188 633 l 1,6,-1
 573 633 l 1,7,-1
 573 291 l 1,8,-1
 1249 291 l 1,9,-1
 1249 0 l 1,10,-1
 188 0 l 1,11,-1
 188 1493 l 1,0,-1
EndSplineSet
EndChar

StartChar: F
Encoding: 70 70 42
Width: 1399
Flags: W
HStem: 0 21G<188 573> 633 291<573 1188> 1202 291<573 1227>
VStem: 188 385<0 633 924 1202>
LayerCount: 3
Fore
SplineSet
188 1493 m 1
 1227 1493 l 1
 1227 1202 l 1
 573 1202 l 1
 573 924 l 1
 1188 924 l 1
 1188 633 l 1
 573 633 l 1
 573 0 l 1
 188 0 l 1
 188 1493 l 1
EndSplineSet
Validated: 1
Layer: 2
SplineSet
188 1493 m 1,0,-1
 1227 1493 l 1,1,-1
 1227 1202 l 1,2,-1
 573 1202 l 1,3,-1
 573 924 l 1,4,-1
 1188 924 l 1,5,-1
 1188 633 l 1,6,-1
 573 633 l 1,7,-1
 573 0 l 1,8,-1
 188 0 l 1,9,-1
 188 1493 l 1,0,-1
EndSplineSet
EndChar

StartChar: G
Encoding: 71 71 43
Width: 1681
Flags: W
HStem: -29 279<747.648 1162.01> 571 258<930 1165> 1241 279<750.503 1256.79>
VStem: 102 398<499.359 984.292> 1165 365<266.875 571>
LayerCount: 3
Fore
SplineSet
961 250 m 0
 1039 250 1109 259 1165 281 c 1
 1165 571 l 1
 930 571 l 1
 930 829 l 1
 1530 829 l 1
 1530 111 l 1
 1363 30 1159 -29 911 -29 c 0
 411 -29 102 267 102 745 c 0
 102 1233 419 1520 932 1520 c 0
 1143 1520 1324 1478 1475 1409 c 1
 1475 1100 l 1
 1347 1173 1179 1241 979 1241 c 0
 670 1241 500 1063 500 745 c 0
 500 433 661 250 961 250 c 0
EndSplineSet
Validated: 1
Layer: 2
SplineSet
961 250 m 0,0,1
 1086 250 1086 250 1165 281 c 1,2,-1
 1165 571 l 1,3,-1
 930 571 l 1,4,-1
 930 829 l 1,5,-1
 1530 829 l 1,6,-1
 1530 111 l 1,7,8
 1241 -29 1241 -29 911 -29 c 0,9,10
 536 -29 536 -29 319 178.5 c 128,-1,11
 102 386 102 386 102 745 c 0,12,13
 102 1109 102 1109 323.5 1314.5 c 128,-1,14
 545 1520 545 1520 932 1520 c 0,15,16
 1232 1520 1232 1520 1475 1409 c 1,17,-1
 1475 1100 l 1,18,19
 1228 1241 1228 1241 979 1241 c 0,20,21
 748 1241 748 1241 624 1112.5 c 128,-1,22
 500 984 500 984 500 745 c 0,23,24
 500 509 500 509 619 379.5 c 128,-1,25
 738 250 738 250 961 250 c 0,0,1
EndSplineSet
EndChar

StartChar: H
Encoding: 72 72 44
Width: 1714
Flags: W
HStem: 0 21G<188 573 1141 1526> 633 291<573 1141> 1473 20G<188 573 1141 1526>
VStem: 188 385<0 633 924 1493> 1141 385<0 633 924 1493>
LayerCount: 3
Fore
SplineSet
188 1493 m 1
 573 1493 l 1
 573 924 l 1
 1141 924 l 1
 1141 1493 l 1
 1526 1493 l 1
 1526 0 l 1
 1141 0 l 1
 1141 633 l 1
 573 633 l 1
 573 0 l 1
 188 0 l 1
 188 1493 l 1
EndSplineSet
Validated: 1
Layer: 2
SplineSet
188 1493 m 1,0,-1
 573 1493 l 1,1,-1
 573 924 l 1,2,-1
 1141 924 l 1,3,-1
 1141 1493 l 1,4,-1
 1526 1493 l 1,5,-1
 1526 0 l 1,6,-1
 1141 0 l 1,7,-1
 1141 633 l 1,8,-1
 573 633 l 1,9,-1
 573 0 l 1,10,-1
 188 0 l 1,11,-1
 188 1493 l 1,0,-1
EndSplineSet
EndChar

StartChar: I
Encoding: 73 73 45
Width: 762
Flags: W
HStem: 0 21G<188 573> 1473 20G<188 573>
VStem: 188 385<0 1493>
LayerCount: 3
Fore
SplineSet
188 1493 m 1
 573 1493 l 1
 573 0 l 1
 188 0 l 1
 188 1493 l 1
EndSplineSet
Validated: 1
Layer: 2
SplineSet
188 1493 m 1,0,-1
 573 1493 l 1,1,-1
 573 0 l 1,2,-1
 188 0 l 1,3,-1
 188 1493 l 1,0,-1
EndSplineSet
EndChar

StartChar: J
Encoding: 74 74 46
Width: 762
Flags: W
HStem: -410 291<-115 99.0634> 1473 20G<188 573>
VStem: 188 385<-19.8933 1493>
LayerCount: 3
Fore
SplineSet
-55 -119 m 2
 67 -119 188 -66 188 145 c 2
 188 1493 l 1
 573 1493 l 1
 573 145 l 2
 573 -240 357 -410 -37 -410 c 2
 -115 -410 l 1
 -115 -119 l 1
 -55 -119 l 2
EndSplineSet
Validated: 1
Layer: 2
SplineSet
-55 -119 m 2,0,1
 -16 -119 -16 -119 17.5 -112 c 128,-1,2
 51 -105 51 -105 83 -86.5 c 128,-1,3
 115 -68 115 -68 137.5 -39 c 128,-1,4
 160 -10 160 -10 174 37 c 128,-1,5
 188 84 188 84 188 145 c 2,6,-1
 188 1493 l 1,7,-1
 573 1493 l 1,8,-1
 573 145 l 2,9,10
 573 -139 573 -139 418.5 -274.5 c 128,-1,11
 264 -410 264 -410 -37 -410 c 2,12,-1
 -115 -410 l 1,13,-1
 -115 -119 l 1,14,-1
 -55 -119 l 2,0,1
EndSplineSet
EndChar

StartChar: K
Encoding: 75 75 47
Width: 1587
Flags: W
HStem: 0 21G<188 573 1146.8 1649> 1473 20G<188 573 1107.63 1575>
VStem: 188 385<0 588 948 1493>
DStem2: 573 948 856 786 0.713032 0.701132<88.2047 777.849> 856 786 573 588 0.710235 -0.703965<0 774.2>
LayerCount: 3
Fore
SplineSet
188 1493 m 1
 573 1493 l 1
 573 948 l 1
 1128 1493 l 1
 1575 1493 l 1
 856 786 l 1
 1649 0 l 1
 1167 0 l 1
 573 588 l 1
 573 0 l 1
 188 0 l 1
 188 1493 l 1
EndSplineSet
Validated: 1
Layer: 2
SplineSet
188 1493 m 1,0,-1
 573 1493 l 1,1,-1
 573 948 l 1,2,-1
 1128 1493 l 1,3,-1
 1575 1493 l 1,4,-1
 856 786 l 1,5,-1
 1649 0 l 1,6,-1
 1167 0 l 1,7,-1
 573 588 l 1,8,-1
 573 0 l 1,9,-1
 188 0 l 1,10,-1
 188 1493 l 1,0,-1
EndSplineSet
EndChar

StartChar: L
Encoding: 76 76 48
Width: 1305
Flags: W
HStem: 0 291<573 1249> 1473 20G<188 573>
VStem: 188 385<291 1493>
LayerCount: 3
Fore
SplineSet
188 1493 m 1
 573 1493 l 1
 573 291 l 1
 1249 291 l 1
 1249 0 l 1
 188 0 l 1
 188 1493 l 1
EndSplineSet
Validated: 1
Layer: 2
SplineSet
188 1493 m 1,0,-1
 573 1493 l 1,1,-1
 573 291 l 1,2,-1
 1249 291 l 1,3,-1
 1249 0 l 1,4,-1
 188 0 l 1,5,-1
 188 1493 l 1,0,-1
EndSplineSet
EndChar

StartChar: M
Encoding: 77 77 49
Width: 2038
Flags: W
HStem: 0 21G<188 553 1485 1849> 1473 20G<188 686.511 1351.44 1849>
VStem: 188 365<0 1092> 1485 364<0 1092>
DStem2: 678 1493 553 1092 0.392954 -0.919558<319.624 868.331> 1018 694 1141 287 0.392954 0.919558<0 549.494>
LayerCount: 3
Fore
SplineSet
188 1493 m 1
 678 1493 l 1
 1018 694 l 1
 1360 1493 l 1
 1849 1493 l 1
 1849 0 l 1
 1485 0 l 1
 1485 1092 l 1
 1141 287 l 1
 897 287 l 1
 553 1092 l 1
 553 0 l 1
 188 0 l 1
 188 1493 l 1
EndSplineSet
Validated: 1
Layer: 2
SplineSet
188 1493 m 1,0,-1
 678 1493 l 1,1,-1
 1018 694 l 1,2,-1
 1360 1493 l 1,3,-1
 1849 1493 l 1,4,-1
 1849 0 l 1,5,-1
 1485 0 l 1,6,-1
 1485 1092 l 1,7,-1
 1141 287 l 1,8,-1
 897 287 l 1,9,-1
 553 1092 l 1,10,-1
 553 0 l 1,11,-1
 188 0 l 1,12,-1
 188 1493 l 1,0,-1
EndSplineSet
EndChar

StartChar: N
Encoding: 78 78 50
Width: 1714
Flags: W
HStem: 0 21G<188 553 1085.39 1526> 1473 20G<188 628.605 1161 1526>
VStem: 188 365<0 1024> 1161 365<469 1493>
DStem2: 618 1493 553 1024 0.468482 -0.883473<383.897 1159.06>
LayerCount: 3
Fore
SplineSet
188 1493 m 1
 618 1493 l 1
 1161 469 l 1
 1161 1493 l 1
 1526 1493 l 1
 1526 0 l 1
 1096 0 l 1
 553 1024 l 1
 553 0 l 1
 188 0 l 1
 188 1493 l 1
EndSplineSet
Validated: 1
Layer: 2
SplineSet
188 1493 m 1,0,-1
 618 1493 l 1,1,-1
 1161 469 l 1,2,-1
 1161 1493 l 1,3,-1
 1526 1493 l 1,4,-1
 1526 0 l 1,5,-1
 1096 0 l 1,6,-1
 553 1024 l 1,7,-1
 553 0 l 1,8,-1
 188 0 l 1,9,-1
 188 1493 l 1,0,-1
EndSplineSet
EndChar

StartChar: O
Encoding: 79 79 51
Width: 1741
Flags: W
HStem: -29 279<697.504 1042.94> 1241 279<697.504 1042.94>
VStem: 102 398<482.559 1008.04> 1241 397<482.559 1007.82>
LayerCount: 3
Fore
SplineSet
1241 745 m 0
 1241 1029 1129 1241 870 1241 c 0
 612 1241 500 1030 500 745 c 0
 500 461 612 250 870 250 c 0
 1129 250 1241 461 1241 745 c 0
102 745 m 0
 102 1236 394 1520 870 1520 c 0
 1347 1520 1638 1236 1638 745 c 0
 1638 255 1347 -29 870 -29 c 0
 394 -29 102 255 102 745 c 0
EndSplineSet
Validated: 1
Layer: 2
SplineSet
1241 745 m 128,-1,1
 1241 854 1241 854 1219 943 c 128,-1,2
 1197 1032 1197 1032 1153 1099.5 c 128,-1,3
 1109 1167 1109 1167 1037 1204 c 128,-1,4
 965 1241 965 1241 870 1241 c 0,5,6
 745 1241 745 1241 660.5 1175.5 c 128,-1,7
 576 1110 576 1110 538 1001 c 128,-1,8
 500 892 500 892 500 745 c 0,9,10
 500 520 500 520 592.5 385 c 128,-1,11
 685 250 685 250 870 250 c 0,12,13
 965 250 965 250 1037 287 c 128,-1,14
 1109 324 1109 324 1153 391.5 c 128,-1,15
 1197 459 1197 459 1219 547.5 c 128,-1,0
 1241 636 1241 636 1241 745 c 128,-1,1
102 745 m 128,-1,17
 102 1111 102 1111 306.5 1315.5 c 128,-1,18
 511 1520 511 1520 870 1520 c 0,19,20
 1230 1520 1230 1520 1434 1316 c 128,-1,21
 1638 1112 1638 1112 1638 745 c 0,22,23
 1638 379 1638 379 1433.5 175 c 128,-1,24
 1229 -29 1229 -29 870 -29 c 128,-1,25
 511 -29 511 -29 306.5 175 c 128,-1,16
 102 379 102 379 102 745 c 128,-1,17
EndSplineSet
EndChar

StartChar: P
Encoding: 80 80 52
Width: 1501
Flags: W
HStem: 0 21G<188 573> 518 279<573 939.548> 1214 279<573 939.548>
VStem: 188 385<0 518 797 1214> 1020 397<871.715 1140.07>
LayerCount: 3
Fore
SplineSet
1417 1006 m 0
 1417 673 1184 518 827 518 c 2
 573 518 l 1
 573 0 l 1
 188 0 l 1
 188 1493 l 1
 827 1493 l 2
 1184 1493 1417 1339 1417 1006 c 0
1020 1006 m 256
 1020 1144 931 1214 786 1214 c 2
 573 1214 l 1
 573 797 l 1
 786 797 l 2
 931 797 1020 868 1020 1006 c 256
EndSplineSet
Validated: 1
Layer: 2
SplineSet
1417 1006 m 128,-1,1
 1417 763 1417 763 1260 640.5 c 128,-1,2
 1103 518 1103 518 827 518 c 2,3,-1
 573 518 l 1,4,-1
 573 0 l 1,5,-1
 188 0 l 1,6,-1
 188 1493 l 1,7,-1
 827 1493 l 2,8,9
 1104 1493 1104 1493 1260.5 1371 c 128,-1,0
 1417 1249 1417 1249 1417 1006 c 128,-1,1
1020 1006 m 256,10,11
 1020 1108 1020 1108 958.5 1161 c 128,-1,12
 897 1214 897 1214 786 1214 c 2,13,-1
 573 1214 l 1,14,-1
 573 797 l 1,15,-1
 786 797 l 2,16,17
 897 797 897 797 958.5 850.5 c 128,-1,18
 1020 904 1020 904 1020 1006 c 256,10,11
EndSplineSet
EndChar

StartChar: Q
Encoding: 81 81 53
Width: 1741
Flags: W
HStem: -27 277<704.834 911> 1241 279<697.504 1043.66>
VStem: 102 398<473.634 1008.04> 1241 397<479.815 1008.56>
LayerCount: 3
Fore
SplineSet
1638 745 m 0
 1638 388 1474 152 1221 37 c 1
 1522 -299 l 1
 1155 -299 l 1
 911 -27 l 1
 881 -27 l 2
 384 -27 102 261 102 745 c 0
 102 1236 394 1520 870 1520 c 0
 1352 1520 1638 1240 1638 745 c 0
1241 745 m 0
 1241 1029 1129 1241 870 1241 c 0
 612 1241 500 1030 500 745 c 0
 500 458 605 250 870 250 c 0
 1129 250 1241 461 1241 745 c 0
EndSplineSet
Validated: 1
Layer: 2
SplineSet
1638 745 m 0,0,1
 1638 485 1638 485 1527.5 305.5 c 128,-1,2
 1417 126 1417 126 1221 37 c 1,3,-1
 1522 -299 l 1,4,-1
 1155 -299 l 1,5,-1
 911 -27 l 1,6,-1
 881 -27 l 2,7,8
 510 -27 510 -27 306 176.5 c 128,-1,9
 102 380 102 380 102 745 c 0,10,11
 102 1111 102 1111 306.5 1315.5 c 128,-1,12
 511 1520 511 1520 870 1520 c 0,13,14
 1233 1520 1233 1520 1435.5 1317.5 c 128,-1,15
 1638 1115 1638 1115 1638 745 c 0,0,1
1241 745 m 128,-1,17
 1241 854 1241 854 1219 943 c 128,-1,18
 1197 1032 1197 1032 1153 1099.5 c 128,-1,19
 1109 1167 1109 1167 1037 1204 c 128,-1,20
 965 1241 965 1241 870 1241 c 0,21,22
 745 1241 745 1241 660.5 1175.5 c 128,-1,23
 576 1110 576 1110 538 1001 c 128,-1,24
 500 892 500 892 500 745 c 0,25,26
 500 635 500 635 521 546.5 c 128,-1,27
 542 458 542 458 585.5 390.5 c 128,-1,28
 629 323 629 323 701 286.5 c 128,-1,29
 773 250 773 250 870 250 c 0,30,31
 965 250 965 250 1037 287 c 128,-1,32
 1109 324 1109 324 1153 391.5 c 128,-1,33
 1197 459 1197 459 1219 547.5 c 128,-1,16
 1241 636 1241 636 1241 745 c 128,-1,17
EndSplineSet
EndChar

StartChar: R
Encoding: 82 82 54
Width: 1577
Flags: W
HStem: 0 21G<188 573 1116.19 1536> 565 266<573 836.2> 1214 279<573 891.955>
VStem: 188 385<0 565 831 1214> 961 385<885.863 1160.45>
DStem2: 1327 424 944 371 0.442129 -0.896951<-267.448 291.439>
LayerCount: 3
Fore
SplineSet
961 1024 m 0
 961 1170 882 1214 735 1214 c 2
 573 1214 l 1
 573 831 l 1
 735 831 l 2
 907 831 961 897 961 1024 c 0
1346 1081 m 0
 1346 851 1216 747 1059 698 c 1
 1185 669 1260 558 1327 424 c 2
 1536 0 l 1
 1126 0 l 1
 944 371 l 2
 879 504 819 565 682 565 c 2
 573 565 l 1
 573 0 l 1
 188 0 l 1
 188 1493 l 1
 776 1493 l 2
 1217 1493 1346 1328 1346 1081 c 0
EndSplineSet
Validated: 1
Layer: 2
SplineSet
961 1024 m 0,0,1
 961 1129 961 1129 906 1171.5 c 128,-1,2
 851 1214 851 1214 735 1214 c 2,3,-1
 573 1214 l 1,4,-1
 573 831 l 1,5,-1
 735 831 l 2,6,7
 860 831 860 831 910.5 878 c 128,-1,8
 961 925 961 925 961 1024 c 0,0,1
1346 1081 m 0,9,10
 1346 788 1346 788 1059 698 c 1,11,12
 1146 678 1146 678 1207.5 609 c 128,-1,13
 1269 540 1269 540 1327 424 c 2,14,-1
 1536 0 l 1,15,-1
 1126 0 l 1,16,-1
 944 371 l 2,17,18
 893 476 893 476 836.5 520.5 c 128,-1,19
 780 565 780 565 682 565 c 2,20,-1
 573 565 l 1,21,-1
 573 0 l 1,22,-1
 188 0 l 1,23,-1
 188 1493 l 1,24,-1
 776 1493 l 2,25,26
 937 1493 937 1493 1050 1464 c 128,-1,27
 1163 1435 1163 1435 1227 1379 c 128,-1,28
 1291 1323 1291 1323 1318.5 1250.5 c 128,-1,29
 1346 1178 1346 1178 1346 1081 c 0,9,10
EndSplineSet
EndChar

StartChar: S
Encoding: 83 83 55
Width: 1475
Flags: W
HStem: -29 279<421.321 885.236> 1130 21G<1121 1227> 1241 279<554.88 1045.06>
VStem: 147 349<995.219 1183.92> 954 371<309.432 518.653>
DStem2: 702 934 578 621 0.98035 -0.197266<-192.258 291.695>
LayerCount: 3
Fore
SplineSet
705 1520 m 0
 914 1520 1101 1480 1227 1446 c 1
 1227 1130 l 1
 1015 1225 856 1241 766 1241 c 0
 562 1241 496 1179 496 1085 c 0
 496 998 562 963 702 934 c 2
 866 901 l 2
 1175 839 1325 724 1325 459 c 0
 1325 106 1102 -29 731 -29 c 0
 567 -29 375 -2 160 78 c 1
 160 403 l 1
 291 334 484 250 694 250 c 0
 916 250 954 347 954 412 c 0
 954 517 883 554 727 588 c 2
 578 621 l 2
 312 680 147 795 147 1057 c 0
 147 1373 366 1520 705 1520 c 0
EndSplineSet
Validated: 1
Layer: 2
SplineSet
705 1520 m 0,0,1
 953 1520 953 1520 1227 1446 c 1,2,-1
 1227 1130 l 1,3,4
 979 1241 979 1241 766 1241 c 0,5,6
 620 1241 620 1241 558 1200.5 c 128,-1,7
 496 1160 496 1160 496 1085 c 0,8,9
 496 1022 496 1022 544 989.5 c 128,-1,10
 592 957 592 957 702 934 c 2,11,-1
 866 901 l 2,12,13
 1106 853 1106 853 1215.5 752.5 c 128,-1,14
 1325 652 1325 652 1325 459 c 0,15,16
 1325 203 1325 203 1173 87 c 128,-1,17
 1021 -29 1021 -29 731 -29 c 0,18,19
 448 -29 448 -29 160 78 c 1,20,-1
 160 403 l 1,21,22
 450 250 450 250 694 250 c 0,23,24
 773 250 773 250 827.5 265.5 c 128,-1,25
 882 281 882 281 908 307.5 c 128,-1,26
 934 334 934 334 944 359 c 128,-1,27
 954 384 954 384 954 412 c 0,28,29
 954 487 954 487 902.5 524 c 128,-1,30
 851 561 851 561 727 588 c 2,31,-1
 578 621 l 2,32,33
 365 668 365 668 256 769 c 128,-1,34
 147 870 147 870 147 1057 c 0,35,36
 147 1288 147 1288 295 1404 c 128,-1,37
 443 1520 443 1520 705 1520 c 0,0,1
EndSplineSet
EndChar

StartChar: T
Encoding: 84 84 56
Width: 1397
Flags: W
HStem: 0 21G<506 891> 1202 291<10 506 891 1386>
VStem: 506 385<0 1202>
LayerCount: 3
Fore
SplineSet
10 1493 m 1
 1386 1493 l 1
 1386 1202 l 1
 891 1202 l 1
 891 0 l 1
 506 0 l 1
 506 1202 l 1
 10 1202 l 1
 10 1493 l 1
EndSplineSet
Validated: 1
Layer: 2
SplineSet
10 1493 m 1,0,-1
 1386 1493 l 1,1,-1
 1386 1202 l 1,2,-1
 891 1202 l 1,3,-1
 891 0 l 1,4,-1
 506 0 l 1,5,-1
 506 1202 l 1,6,-1
 10 1202 l 1,7,-1
 10 1493 l 1,0,-1
EndSplineSet
EndChar

StartChar: U
Encoding: 85 85 57
Width: 1663
Flags: W
HStem: -29 283<676.748 987.552> 1473 20G<188 573 1090 1475>
VStem: 188 385<365.668 1493> 1090 385<365.668 1493>
LayerCount: 3
Fore
SplineSet
831 -29 m 0
 403 -29 188 171 188 598 c 2
 188 1493 l 1
 573 1493 l 1
 573 598 l 2
 573 374 634 254 831 254 c 0
 1037 254 1090 385 1090 598 c 2
 1090 1493 l 1
 1475 1493 l 1
 1475 598 l 2
 1475 171 1260 -29 831 -29 c 0
EndSplineSet
Validated: 1
Layer: 2
SplineSet
831 -29 m 0,0,1
 508 -29 508 -29 348 125.5 c 128,-1,2
 188 280 188 280 188 598 c 2,3,-1
 188 1493 l 1,4,-1
 573 1493 l 1,5,-1
 573 598 l 2,6,7
 573 422 573 422 631 338 c 128,-1,8
 689 254 689 254 831 254 c 0,9,10
 977 254 977 254 1033.5 340 c 128,-1,11
 1090 426 1090 426 1090 598 c 2,12,-1
 1090 1493 l 1,13,-1
 1475 1493 l 1,14,-1
 1475 598 l 2,15,16
 1475 279 1475 279 1315 125 c 128,-1,17
 1155 -29 1155 -29 831 -29 c 0,0,1
EndSplineSet
EndChar

StartChar: V
Encoding: 86 86 58
Width: 1585
Flags: W
HStem: 0 21G<555.592 1029.41> 1473 20G<10 404.187 1180.83 1575>
DStem2: 397 1493 10 1493 0.347335 -0.937741<0 1170.94> 793 391 1022 0 0.347335 0.937741<0 1170.59>
LayerCount: 3
Fore
SplineSet
10 1493 m 1
 397 1493 l 1
 793 391 l 1
 1188 1493 l 1
 1575 1493 l 1
 1022 0 l 1
 563 0 l 1
 10 1493 l 1
EndSplineSet
Validated: 1
Layer: 2
SplineSet
10 1493 m 1,0,-1
 397 1493 l 1,1,-1
 793 391 l 1,2,-1
 1188 1493 l 1,3,-1
 1575 1493 l 1,4,-1
 1022 0 l 1,5,-1
 563 0 l 1,6,-1
 10 1493 l 1,0,-1
EndSplineSet
EndChar

StartChar: W
Encoding: 87 87 59
Width: 2259
Flags: W
HStem: 0 21G<411.244 864.722 1394.22 1847.72> 1473 20G<61 434.756 939.281 1319.72 1824.24 2195>
DStem2: 430 1493 61 1493 0.231327 -0.972876<0 1115.25> 688 408 860 0 0.229804 0.973237<0 808.657> 1315 1493 1128 1135 0.232238 -0.972659<304.783 1114.79> 1571 408 1843 0 0.229475 0.973314<0 1115.25>
LayerCount: 3
Fore
SplineSet
61 1493 m 1
 430 1493 l 1
 688 408 l 1
 944 1493 l 1
 1315 1493 l 1
 1571 408 l 1
 1829 1493 l 1
 2195 1493 l 1
 1843 0 l 1
 1399 0 l 1
 1128 1135 l 1
 860 0 l 1
 416 0 l 1
 61 1493 l 1
EndSplineSet
Validated: 1
Layer: 2
SplineSet
61 1493 m 1,0,-1
 430 1493 l 1,1,-1
 688 408 l 1,2,-1
 944 1493 l 1,3,-1
 1315 1493 l 1,4,-1
 1571 408 l 1,5,-1
 1829 1493 l 1,6,-1
 2195 1493 l 1,7,-1
 1843 0 l 1,8,-1
 1399 0 l 1,9,-1
 1128 1135 l 1,10,-1
 860 0 l 1,11,-1
 416 0 l 1,12,-1
 61 1493 l 1,0,-1
EndSplineSet
EndChar

StartChar: X
Encoding: 88 88 60
Width: 1579
Flags: W
HStem: 0 21G<39 455.569 1123.31 1538> 1473 20G<59 474.597 1100.44 1518>
DStem2: 39 0 442 0 0.562191 0.827007<226.563 842.855> 461 1493 59 1493 0.563021 -0.826443<0 581.627> 788 1012 1020 762 0.563021 0.826443<0 581.064> 1020 762 788 510 0.562191 -0.827007<77.9774 695.956>
LayerCount: 3
Fore
SplineSet
1020 762 m 1
 1538 0 l 1
 1137 0 l 1
 788 510 l 1
 442 0 l 1
 39 0 l 1
 557 762 l 1
 59 1493 l 1
 461 1493 l 1
 788 1012 l 1
 1114 1493 l 1
 1518 1493 l 1
 1020 762 l 1
EndSplineSet
Validated: 1
Layer: 2
SplineSet
1020 762 m 1,0,-1
 1538 0 l 1,1,-1
 1137 0 l 1,2,-1
 788 510 l 1,3,-1
 442 0 l 1,4,-1
 39 0 l 1,5,-1
 557 762 l 1,6,-1
 59 1493 l 1,7,-1
 461 1493 l 1,8,-1
 788 1012 l 1,9,-1
 1114 1493 l 1,10,-1
 1518 1493 l 1,11,-1
 1020 762 l 1,0,-1
EndSplineSet
EndChar

StartChar: Y
Encoding: 89 89 61
Width: 1483
Flags: W
HStem: 0 21G<549 934> 1473 20G<-20 413.782 1068.22 1503>
VStem: 549 385<0 629>
DStem2: 401 1493 -20 1493 0.550007 -0.83516<0 631.307> 741 961 934 629 0.550007 0.83516<0 631.307>
LayerCount: 3
Fore
SplineSet
-20 1493 m 1
 401 1493 l 1
 741 961 l 1
 1081 1493 l 1
 1503 1493 l 1
 934 629 l 1
 934 0 l 1
 549 0 l 1
 549 629 l 1
 -20 1493 l 1
EndSplineSet
Validated: 1
Layer: 2
SplineSet
-20 1493 m 1,0,-1
 401 1493 l 1,1,-1
 741 961 l 1,2,-1
 1081 1493 l 1,3,-1
 1503 1493 l 1,4,-1
 934 629 l 1,5,-1
 934 0 l 1,6,-1
 549 0 l 1,7,-1
 549 629 l 1,8,-1
 -20 1493 l 1,0,-1
EndSplineSet
EndChar

StartChar: Z
Encoding: 90 90 62
Width: 1485
Flags: W
HStem: 0 291<569 1393> 1202 291<115 893>
DStem2: 92 233 569 291 0.637128 0.770758<348.614 1257.2>
LayerCount: 3
Fore
SplineSet
115 1493 m 1
 1370 1493 l 1
 1370 1260 l 1
 569 291 l 1
 1393 291 l 1
 1393 0 l 1
 92 0 l 1
 92 233 l 1
 893 1202 l 1
 115 1202 l 1
 115 1493 l 1
EndSplineSet
Validated: 1
Layer: 2
SplineSet
115 1493 m 1,0,-1
 1370 1493 l 1,1,-1
 1370 1260 l 1,2,-1
 569 291 l 1,3,-1
 1393 291 l 1,4,-1
 1393 0 l 1,5,-1
 92 0 l 1,6,-1
 92 233 l 1,7,-1
 893 1202 l 1,8,-1
 115 1202 l 1,9,-1
 115 1493 l 1,0,-1
EndSplineSet
EndChar

StartChar: bracketleft
Encoding: 91 91 63
Width: 936
Flags: W
HStem: -270 225<516 797> 1331 225<516 797>
VStem: 176 621<-270 -45 1331 1556> 176 340<-45 1331>
LayerCount: 3
Fore
SplineSet
176 1556 m 1xe0
 797 1556 l 1
 797 1331 l 1xe0
 516 1331 l 1
 516 -45 l 1xd0
 797 -45 l 1
 797 -270 l 1
 176 -270 l 1
 176 1556 l 1xe0
EndSplineSet
Validated: 1
Layer: 2
SplineSet
176 1556 m 1,0,-1
 797 1556 l 1,1,-1
 797 1331 l 1,2,-1
 516 1331 l 1,3,-1
 516 -45 l 1,4,-1
 797 -45 l 1,5,-1
 797 -270 l 1,6,-1
 176 -270 l 1,7,-1
 176 1556 l 1,0,-1
EndSplineSet
EndChar

StartChar: backslash
Encoding: 92 92 64
Width: 748
Flags: W
HStem: 1473 20G<0 227.263>
DStem2: 221 1493 0 1493 0.298824 -0.954308<0 1697.24>
LayerCount: 3
Fore
SplineSet
526 -190 m 1
 0 1493 l 1
 221 1493 l 1
 748 -190 l 1
 526 -190 l 1
EndSplineSet
Validated: 1
Layer: 2
SplineSet
526 -190 m 1,0,-1
 0 1493 l 1,1,-1
 221 1493 l 1,2,-1
 748 -190 l 1,3,-1
 526 -190 l 1,0,-1
EndSplineSet
EndChar

StartChar: bracketright
Encoding: 93 93 65
Width: 936
Flags: W
HStem: -270 225<139 420> 1331 225<139 420>
VStem: 139 621<-270 -45 1331 1556> 420 340<-45 1331>
LayerCount: 3
Fore
SplineSet
760 -270 m 1xe0
 139 -270 l 1
 139 -45 l 1xe0
 420 -45 l 1
 420 1331 l 1xd0
 139 1331 l 1
 139 1556 l 1
 760 1556 l 1
 760 -270 l 1xe0
EndSplineSet
Validated: 1
Layer: 2
SplineSet
760 -270 m 1,0,-1
 139 -270 l 1,1,-1
 139 -45 l 1,2,-1
 420 -45 l 1,3,-1
 420 1331 l 1,4,-1
 139 1331 l 1,5,-1
 139 1556 l 1,6,-1
 760 1556 l 1,7,-1
 760 -270 l 1,0,-1
EndSplineSet
EndChar

StartChar: asciicircum
Encoding: 94 94 66
Width: 1716
Flags: W
HStem: 936 557
LayerCount: 3
Fore
SplineSet
981 1493 m 1
 1509 936 l 1
 1268 936 l 1
 858 1237 l 1
 449 936 l 1
 207 936 l 1
 735 1493 l 1
 981 1493 l 1
EndSplineSet
Validated: 1
Layer: 2
SplineSet
981 1493 m 1,0,-1
 1509 936 l 1,1,-1
 1268 936 l 1,2,-1
 858 1237 l 1,3,-1
 449 936 l 1,4,-1
 207 936 l 1,5,-1
 735 1493 l 1,6,-1
 981 1493 l 1,0,-1
EndSplineSet
EndChar

StartChar: underscore
Encoding: 95 95 67
Width: 1024
Flags: W
HStem: -483 190<0 1024>
LayerCount: 3
Fore
SplineSet
1024 -293 m 1
 1024 -483 l 1
 0 -483 l 1
 0 -293 l 1
 1024 -293 l 1
EndSplineSet
Validated: 1
Layer: 2
SplineSet
1024 -293 m 1,0,-1
 1024 -483 l 1,1,-1
 0 -483 l 1,2,-1
 0 -293 l 1,3,-1
 1024 -293 l 1,0,-1
EndSplineSet
EndChar

StartChar: grave
Encoding: 96 96 68
Width: 1024
Flags: W
HStem: 1262 376
VStem: 94 565
LayerCount: 3
Fore
SplineSet
377 1638 m 1
 659 1262 l 1
 463 1262 l 1
 94 1638 l 1
 377 1638 l 1
EndSplineSet
Validated: 1
Layer: 2
SplineSet
377 1638 m 1,0,-1
 659 1262 l 1,1,-1
 463 1262 l 1,2,-1
 94 1638 l 1,3,-1
 377 1638 l 1,0,-1
EndSplineSet
EndChar

StartChar: a
Encoding: 97 97 69
Width: 1382
Flags: W
HStem: -29 238<362 693.816> 0 21G<860 1221> 504 213<500.863 860> 909 238<297.183 797.83>
VStem: 88 361<248.325 456.666> 860 361<0 166 312.603 504 717 852.296>
LayerCount: 3
Fore
SplineSet
621 209 m 0xbc
 756 209 860 315 860 463 c 2
 860 504 l 1
 674 504 l 2
 549 504 449 468 449 354 c 0
 449 259 518 209 621 209 c 0xbc
649 1147 m 0
 1028 1147 1221 1016 1221 639 c 2
 1221 0 l 1
 860 0 l 1x7c
 860 166 l 1
 778 50 674 -29 479 -29 c 0
 245 -29 88 118 88 336 c 0
 88 565 217 717 649 717 c 2
 860 717 l 1
 860 745 l 2
 860 843 797 909 584 909 c 0
 423 909 294 875 186 817 c 1
 186 1090 l 1
 366 1134 522 1147 649 1147 c 0
EndSplineSet
Validated: 1
Layer: 2
SplineSet
621 209 m 0,0,1
 723 209 723 209 791.5 281 c 128,-1,2
 860 353 860 353 860 463 c 2,3,-1
 860 504 l 1,4,-1
 674 504 l 2,5,6
 449 504 449 504 449 354 c 0,7,8
 449 284 449 284 495.5 246.5 c 128,-1,9
 542 209 542 209 621 209 c 0,0,1
649 1147 m 0,10,11
 795 1147 795 1147 899 1120.5 c 128,-1,12
 1003 1094 1003 1094 1076.5 1034.5 c 128,-1,13
 1150 975 1150 975 1185.5 877 c 128,-1,14
 1221 779 1221 779 1221 639 c 2,15,-1
 1221 0 l 1,16,-1
 860 0 l 1,17,-1
 860 166 l 1,18,19
 793 71 793 71 704.5 21 c 128,-1,20
 616 -29 616 -29 479 -29 c 0,21,22
 304 -29 304 -29 196 71.5 c 128,-1,23
 88 172 88 172 88 336 c 0,24,25
 88 426 88 426 115.5 493 c 128,-1,26
 143 560 143 560 206 612 c 128,-1,27
 269 664 269 664 380 690.5 c 128,-1,28
 491 717 491 717 649 717 c 2,29,-1
 860 717 l 1,30,-1
 860 745 l 2,31,32
 860 824 860 824 797.5 866.5 c 128,-1,33
 735 909 735 909 584 909 c 0,34,35
 357 909 357 909 186 817 c 1,36,-1
 186 1090 l 1,37,38
 419 1147 419 1147 649 1147 c 0,10,11
EndSplineSet
EndChar

StartChar: b
Encoding: 98 98 70
Width: 1466
Flags: W
HStem: -29 260<701.673 1043.77> 0 21G<172 530> 887 260<701.304 1044.49> 1536 20G<172 530>
VStem: 172 358<0 162 341.97 776.437 956 1556> 1004 370<345.535 772.061>
LayerCount: 3
Fore
SplineSet
530 559 m 256xbc
 530 372 597 231 768 231 c 256
 939 231 1004 370 1004 559 c 256
 1004 747 940 887 768 887 c 256
 597 887 530 747 530 559 c 256xbc
901 -29 m 0
 720 -29 612 54 530 162 c 1
 530 0 l 1
 172 0 l 1x7c
 172 1556 l 1
 530 1556 l 1
 530 956 l 1
 611 1063 719 1147 901 1147 c 0
 1185 1147 1374 900 1374 559 c 256
 1374 217 1184 -29 901 -29 c 0
EndSplineSet
Validated: 1
Layer: 2
SplineSet
530 559 m 256,0,1
 530 409 530 409 588 320 c 128,-1,2
 646 231 646 231 768 231 c 128,-1,3
 890 231 890 231 947 319.5 c 128,-1,4
 1004 408 1004 408 1004 559 c 0,5,6
 1004 632 1004 632 991 690 c 128,-1,7
 978 748 978 748 951 793 c 128,-1,8
 924 838 924 838 877.5 862.5 c 128,-1,9
 831 887 831 887 768 887 c 0,10,11
 646 887 646 887 588 798 c 128,-1,12
 530 709 530 709 530 559 c 256,0,1
901 -29 m 0,13,14
 775 -29 775 -29 687 21.5 c 128,-1,15
 599 72 599 72 530 162 c 1,16,-1
 530 0 l 1,17,-1
 172 0 l 1,18,-1
 172 1556 l 1,19,-1
 530 1556 l 1,20,-1
 530 956 l 1,21,22
 598 1046 598 1046 686 1096.5 c 128,-1,23
 774 1147 774 1147 901 1147 c 0,24,25
 1112 1147 1112 1147 1243 982 c 128,-1,26
 1374 817 1374 817 1374 559 c 128,-1,27
 1374 301 1374 301 1243 136 c 128,-1,28
 1112 -29 1112 -29 901 -29 c 0,13,14
EndSplineSet
EndChar

StartChar: c
Encoding: 99 99 71
Width: 1214
Flags: W
HStem: -29 256<604.808 985.333> 891 256<604.808 981.406>
VStem: 88 373<373.953 744.047>
LayerCount: 3
Fore
SplineSet
733 1147 m 0
 871 1147 988 1117 1077 1085 c 1
 1077 793 l 1
 1001 845 904 891 778 891 c 0
 576 891 461 768 461 559 c 256
 461 350 576 227 778 227 c 0
 875 227 982 254 1077 326 c 1
 1077 33 l 1
 988 0 871 -29 733 -29 c 0
 335 -29 88 181 88 559 c 256
 88 937 335 1147 733 1147 c 0
EndSplineSet
Validated: 1
Layer: 2
SplineSet
733 1147 m 0,0,1
 905 1147 905 1147 1077 1085 c 1,2,-1
 1077 793 l 1,3,4
 934 891 934 891 778 891 c 0,5,6
 627 891 627 891 544 803.5 c 128,-1,7
 461 716 461 716 461 559 c 128,-1,8
 461 402 461 402 544 314.5 c 128,-1,9
 627 227 627 227 778 227 c 0,10,11
 946 227 946 227 1077 326 c 1,12,-1
 1077 33 l 1,13,14
 910 -29 910 -29 733 -29 c 0,15,16
 431 -29 431 -29 259.5 124.5 c 128,-1,17
 88 278 88 278 88 559 c 128,-1,18
 88 840 88 840 259.5 993.5 c 128,-1,19
 431 1147 431 1147 733 1147 c 0,0,1
EndSplineSet
EndChar

StartChar: d
Encoding: 100 100 72
Width: 1466
Flags: W
HStem: -29 260<422.19 764.766> 0 21G<934 1294> 887 260<422.579 764.138> 1536 20G<934 1294>
VStem: 92 371<347.222 772.261> 934 360<0 162 341.157 776.437 956 1556>
LayerCount: 3
Fore
SplineSet
565 1147 m 0xbc
 745 1147 854 1062 934 956 c 1
 934 1556 l 1
 1294 1556 l 1
 1294 0 l 1
 934 0 l 1x7c
 934 162 l 1
 855 56 748 -29 565 -29 c 0
 281 -29 92 218 92 559 c 256
 92 901 282 1147 565 1147 c 0xbc
463 559 m 256
 463 277 604 231 698 231 c 0xbc
 869 231 934 370 934 559 c 256
 934 747 870 887 698 887 c 0
 528 887 463 747 463 559 c 256
EndSplineSet
Validated: 1
Layer: 2
SplineSet
565 1147 m 0,0,1
 790 1147 790 1147 934 956 c 1,2,-1
 934 1556 l 1,3,-1
 1294 1556 l 1,4,-1
 1294 0 l 1,5,-1
 934 0 l 1,6,-1
 934 162 l 1,7,8
 867 72 867 72 779.5 21.5 c 128,-1,9
 692 -29 692 -29 565 -29 c 0,10,11
 354 -29 354 -29 223 136 c 128,-1,12
 92 301 92 301 92 559 c 128,-1,13
 92 817 92 817 223 982 c 128,-1,14
 354 1147 354 1147 565 1147 c 0,0,1
463 559 m 256,15,16
 463 478 463 478 479 417 c 128,-1,17
 495 356 495 356 518.5 321.5 c 128,-1,18
 542 287 542 287 575 265.5 c 128,-1,19
 608 244 608 244 637 237.5 c 128,-1,20
 666 231 666 231 698 231 c 0,21,22
 820 231 820 231 877 319.5 c 128,-1,23
 934 408 934 408 934 559 c 0,24,25
 934 632 934 632 921 690 c 128,-1,26
 908 748 908 748 881 793 c 128,-1,27
 854 838 854 838 807.5 862.5 c 128,-1,28
 761 887 761 887 698 887 c 0,29,30
 577 887 577 887 520 798.5 c 128,-1,31
 463 710 463 710 463 559 c 256,15,16
EndSplineSet
EndChar

StartChar: e
Encoding: 101 101 73
Width: 1389
Flags: W
HStem: -29 238<570.324 1026.56> 461 221<457 922> 909 238<555.199 838.978>
VStem: 88 365<334.293 461 682 792.846>
LayerCount: 3
Fore
SplineSet
709 1147 m 0
 1057 1147 1290 925 1290 563 c 2
 1290 461 l 1
 453 461 l 1
 464 356 515 209 762 209 c 0
 952 209 1121 281 1237 344 c 1
 1237 68 l 1
 1106 19 932 -29 729 -29 c 0
 330 -29 88 178 88 559 c 0
 88 928 323 1147 709 1147 c 0
922 682 m 1
 922 819 836 909 707 909 c 0
 560 909 477 820 457 682 c 1
 922 682 l 1
EndSplineSet
Validated: 1
Layer: 2
SplineSet
709 1147 m 0,0,1
 972 1147 972 1147 1131 989.5 c 128,-1,2
 1290 832 1290 832 1290 563 c 2,3,-1
 1290 461 l 1,4,-1
 453 461 l 1,5,6
 479 209 479 209 762 209 c 0,7,8
 988 209 988 209 1237 344 c 1,9,-1
 1237 68 l 1,10,11
 978 -29 978 -29 729 -29 c 0,12,13
 427 -29 427 -29 257.5 123.5 c 128,-1,14
 88 276 88 276 88 559 c 0,15,16
 88 835 88 835 253.5 991 c 128,-1,17
 419 1147 419 1147 709 1147 c 0,0,1
922 682 m 1,18,19
 922 785 922 785 863 847 c 128,-1,20
 804 909 804 909 707 909 c 0,21,22
 599 909 599 909 535.5 848.5 c 128,-1,23
 472 788 472 788 457 682 c 1,24,-1
 922 682 l 1,18,19
EndSplineSet
EndChar

StartChar: f
Encoding: 102 102 74
Width: 891
Flags: W
HStem: 0 21G<217 575> 864 256<39 217 575 881> 1321 235<598.349 909>
VStem: 217 358<0 864 1120 1297.63>
LayerCount: 3
Fore
SplineSet
217 1198 m 2
 217 1456 369 1556 635 1556 c 2
 909 1556 l 1
 909 1321 l 1
 711 1321 l 2
 609 1321 575 1287 575 1198 c 2
 575 1120 l 1
 881 1120 l 1
 881 864 l 1
 575 864 l 1
 575 0 l 1
 217 0 l 1
 217 864 l 1
 39 864 l 1
 39 1120 l 1
 217 1120 l 1
 217 1198 l 2
EndSplineSet
Validated: 1
Layer: 2
SplineSet
217 1198 m 2,0,1
 217 1386 217 1386 323 1471 c 128,-1,2
 429 1556 429 1556 635 1556 c 2,3,-1
 909 1556 l 1,4,-1
 909 1321 l 1,5,-1
 711 1321 l 2,6,7
 635 1321 635 1321 605 1293 c 128,-1,8
 575 1265 575 1265 575 1198 c 2,9,-1
 575 1120 l 1,10,-1
 881 1120 l 1,11,-1
 881 864 l 1,12,-1
 575 864 l 1,13,-1
 575 0 l 1,14,-1
 217 0 l 1,15,-1
 217 864 l 1,16,-1
 39 864 l 1,17,-1
 39 1120 l 1,18,-1
 217 1120 l 1,19,-1
 217 1198 l 2,0,1
EndSplineSet
EndChar

StartChar: g
Encoding: 103 103 75
Width: 1466
Flags: W
HStem: -442 237<358.76 799.508> 0 260<419.88 766.359> 887 258<421.197 766.521> 1100 20G<934 1294>
VStem: 92 371<369.416 775.199> 934 360<-80.0693 190 370.525 775.882 954 1120>
LayerCount: 3
Fore
SplineSet
594 -205 m 0xdc
 820 -205 934 -112 934 113 c 2
 934 190 l 1
 853 83 747 0 565 0 c 0
 281 0 92 247 92 573 c 0
 92 901 281 1145 565 1145 c 0xec
 747 1145 854 1061 934 954 c 1
 934 1120 l 1
 1294 1120 l 1
 1294 113 l 2
 1294 -269 1036 -442 629 -442 c 0
 509 -442 381 -428 229 -377 c 1
 229 -98 l 1
 317 -149 441 -205 594 -205 c 0xdc
934 573 m 0
 934 754 862 887 698 887 c 0
 535 887 463 754 463 573 c 0
 463 301 604 260 698 260 c 0
 862 260 934 392 934 573 c 0
EndSplineSet
Validated: 1
Layer: 2
SplineSet
594 -205 m 0,0,1
 766 -205 766 -205 850 -129 c 128,-1,2
 934 -53 934 -53 934 113 c 2,3,-1
 934 190 l 1,4,5
 866 100 866 100 779 50 c 128,-1,6
 692 0 692 0 565 0 c 0,7,8
 355 0 355 0 223.5 162.5 c 128,-1,9
 92 325 92 325 92 573 c 0,10,11
 92 736 92 736 150.5 866 c 128,-1,12
 209 996 209 996 317.5 1070.5 c 128,-1,13
 426 1145 426 1145 565 1145 c 0,14,15
 692 1145 692 1145 779.5 1094.5 c 128,-1,16
 867 1044 867 1044 934 954 c 1,17,-1
 934 1120 l 1,18,-1
 1294 1120 l 1,19,-1
 1294 113 l 2,20,21
 1294 -166 1294 -166 1119 -304 c 128,-1,22
 944 -442 944 -442 629 -442 c 0,23,24
 423 -442 423 -442 229 -377 c 1,25,-1
 229 -98 l 1,26,27
 414 -205 414 -205 594 -205 c 0,0,1
934 573 m 128,-1,29
 934 716 934 716 875 801.5 c 128,-1,30
 816 887 816 887 698 887 c 0,31,32
 581 887 581 887 522 801.5 c 128,-1,33
 463 716 463 716 463 573 c 0,34,35
 463 495 463 495 479 436.5 c 128,-1,36
 495 378 495 378 518.5 345 c 128,-1,37
 542 312 542 312 575 292 c 128,-1,38
 608 272 608 272 637 266 c 128,-1,39
 666 260 666 260 698 260 c 0,40,41
 816 260 816 260 875 345 c 128,-1,28
 934 430 934 430 934 573 c 128,-1,29
EndSplineSet
EndChar

StartChar: h
Encoding: 104 104 76
Width: 1458
Flags: W
HStem: 0 21G<172 530 938 1298> 877 270<705.917 1039> 1536 20G<172 530>
VStem: 172 358<0 760.424 956 1556> 938 360<0 819.974>
LayerCount: 3
Fore
SplineSet
903 1147 m 0
 1175 1147 1298 969 1298 682 c 2
 1298 0 l 1
 938 0 l 1
 938 520 l 2
 938 740 933 877 770 877 c 0
 605 877 530 736 530 551 c 2
 530 0 l 1
 172 0 l 1
 172 1556 l 1
 530 1556 l 1
 530 956 l 1
 636 1084 754 1147 903 1147 c 0
EndSplineSet
Validated: 1
Layer: 2
SplineSet
903 1147 m 0,0,1
 1102 1147 1102 1147 1200 1025.5 c 128,-1,2
 1298 904 1298 904 1298 682 c 2,3,-1
 1298 0 l 1,4,-1
 938 0 l 1,5,-1
 938 520 l 2,6,7
 938 577 938 577 937.5 610 c 128,-1,8
 937 643 937 643 933.5 686 c 128,-1,9
 930 729 930 729 923.5 753.5 c 128,-1,10
 917 778 917 778 904.5 805 c 128,-1,11
 892 832 892 832 874.5 845.5 c 128,-1,12
 857 859 857 859 830.5 868 c 128,-1,13
 804 877 804 877 770 877 c 0,14,15
 651 877 651 877 590.5 787 c 128,-1,16
 530 697 530 697 530 551 c 2,17,-1
 530 0 l 1,18,-1
 172 0 l 1,19,-1
 172 1556 l 1,20,-1
 530 1556 l 1,21,-1
 530 956 l 1,22,23
 688 1147 688 1147 903 1147 c 0,0,1
EndSplineSet
EndChar

StartChar: i
Encoding: 105 105 77
Width: 702
Flags: W
HStem: 0 21G<172 530> 1100 20G<172 530> 1264 292<172 530>
VStem: 172 358<0 1120 1264 1556>
LayerCount: 3
Fore
SplineSet
172 1120 m 1
 530 1120 l 1
 530 0 l 1
 172 0 l 1
 172 1120 l 1
172 1556 m 1
 530 1556 l 1
 530 1264 l 1
 172 1264 l 1
 172 1556 l 1
EndSplineSet
Validated: 1
Layer: 2
SplineSet
172 1120 m 1,0,-1
 530 1120 l 1,1,-1
 530 0 l 1,2,-1
 172 0 l 1,3,-1
 172 1120 l 1,0,-1
172 1556 m 1,4,-1
 530 1556 l 1,5,-1
 530 1264 l 1,6,-1
 172 1264 l 1,7,-1
 172 1556 l 1,4,-1
EndSplineSet
EndChar

StartChar: j
Encoding: 106 106 78
Width: 702
Flags: W
HStem: -442 235<-68 122.069> 1100 20G<172 530> 1264 292<172 530>
VStem: 172 358<-164.59 1120 1264 1556>
LayerCount: 3
Fore
SplineSet
-6 -207 m 2
 132 -207 172 -153 172 20 c 2
 172 1120 l 1
 530 1120 l 1
 530 20 l 2
 530 -272 390 -442 109 -442 c 2
 -68 -442 l 1
 -68 -207 l 1
 -6 -207 l 2
172 1556 m 1
 530 1556 l 1
 530 1264 l 1
 172 1264 l 1
 172 1556 l 1
EndSplineSet
Validated: 1
Layer: 2
SplineSet
-6 -207 m 2,0,1
 97 -207 97 -207 134.5 -158.5 c 128,-1,2
 172 -110 172 -110 172 20 c 2,3,-1
 172 1120 l 1,4,-1
 530 1120 l 1,5,-1
 530 20 l 2,6,7
 530 -202 530 -202 423.5 -322 c 128,-1,8
 317 -442 317 -442 109 -442 c 2,9,-1
 -68 -442 l 1,10,-1
 -68 -207 l 1,11,-1
 -6 -207 l 2,0,1
172 1556 m 1,12,-1
 530 1556 l 1,13,-1
 530 1264 l 1,14,-1
 172 1264 l 1,15,-1
 172 1556 l 1,12,-1
EndSplineSet
EndChar

StartChar: k
Encoding: 107 107 79
Width: 1362
Flags: W
HStem: 0 21G<172 530 948.285 1401> 1100 20G<921.951 1358> 1536 20G<172 530>
VStem: 172 358<0 467 709 1556>
DStem2: 811 606 530 467 0.697585 -0.716502<0 543.024>
LayerCount: 3
Fore
SplineSet
172 1556 m 1
 530 1556 l 1
 530 709 l 1
 942 1120 l 1
 1358 1120 l 1
 811 606 l 1
 1401 0 l 1
 967 0 l 1
 530 467 l 1
 530 0 l 1
 172 0 l 1
 172 1556 l 1
EndSplineSet
Validated: 1
Layer: 2
SplineSet
172 1556 m 1,0,-1
 530 1556 l 1,1,-1
 530 709 l 1,2,-1
 942 1120 l 1,3,-1
 1358 1120 l 1,4,-1
 811 606 l 1,5,-1
 1401 0 l 1,6,-1
 967 0 l 1,7,-1
 530 467 l 1,8,-1
 530 0 l 1,9,-1
 172 0 l 1,10,-1
 172 1556 l 1,0,-1
EndSplineSet
EndChar

StartChar: l
Encoding: 108 108 80
Width: 702
Flags: W
HStem: 0 21G<172 530> 1536 20G<172 530>
VStem: 172 358<0 1556>
LayerCount: 3
Fore
SplineSet
172 1556 m 1
 530 1556 l 1
 530 0 l 1
 172 0 l 1
 172 1556 l 1
EndSplineSet
Validated: 1
Layer: 2
SplineSet
172 1556 m 1,0,-1
 530 1556 l 1,1,-1
 530 0 l 1,2,-1
 172 0 l 1,3,-1
 172 1556 l 1,0,-1
EndSplineSet
EndChar

StartChar: m
Encoding: 109 109 81
Width: 2134
Flags: W
HStem: 0 21G<170 530 891 1251 1612 1972> 877 270<688.936 953.5 1391.11 1712.5> 1100 20G<170 530>
VStem: 170 360<0 769.383 956 1120> 891 360<0 769.347> 1612 360<0 820.328>
CounterMasks: 1 1c
LayerCount: 3
Fore
SplineSet
870 1147 m 0xdc
 1037 1147 1153 1059 1210 934 c 1
 1284 1046 1401 1147 1577 1147 c 0
 1848 1147 1972 970 1972 682 c 2
 1972 0 l 1
 1612 0 l 1
 1612 584 l 2
 1612 830 1554 877 1466 877 c 0
 1380 877 1251 828 1251 550 c 2
 1251 0 l 1
 891 0 l 1
 891 584 l 2
 891 802 866 877 745 877 c 0xdc
 587 877 530 729 530 551 c 2
 530 0 l 1
 170 0 l 1
 170 1120 l 1
 530 1120 l 1xbc
 530 956 l 1
 650 1129 793 1147 870 1147 c 0xdc
EndSplineSet
Validated: 1
Layer: 2
SplineSet
870 1147 m 0,0,1
 991 1147 991 1147 1078 1089.5 c 128,-1,2
 1165 1032 1165 1032 1210 934 c 1,3,4
 1351 1147 1351 1147 1577 1147 c 0,5,6
 1775 1147 1775 1147 1873.5 1025.5 c 128,-1,7
 1972 904 1972 904 1972 682 c 2,8,-1
 1972 0 l 1,9,-1
 1612 0 l 1,10,-1
 1612 584 l 2,11,12
 1612 674 1612 674 1602 733.5 c 128,-1,13
 1592 793 1592 793 1571.5 823.5 c 128,-1,14
 1551 854 1551 854 1526.5 865.5 c 128,-1,15
 1502 877 1502 877 1466 877 c 0,16,17
 1437 877 1437 877 1410.5 870 c 128,-1,18
 1384 863 1384 863 1353.5 841.5 c 128,-1,19
 1323 820 1323 820 1301.5 785.5 c 128,-1,20
 1280 751 1280 751 1265.5 690.5 c 128,-1,21
 1251 630 1251 630 1251 550 c 2,22,-1
 1251 0 l 1,23,-1
 891 0 l 1,24,-1
 891 584 l 2,25,26
 891 753 891 753 862 815 c 128,-1,27
 833 877 833 877 745 877 c 0,28,29
 669 877 669 877 619.5 831.5 c 128,-1,30
 570 786 570 786 550 715.5 c 128,-1,31
 530 645 530 645 530 551 c 2,32,-1
 530 0 l 1,33,-1
 170 0 l 1,34,-1
 170 1120 l 1,35,-1
 530 1120 l 1,36,-1
 530 956 l 1,37,38
 662 1147 662 1147 870 1147 c 0,0,1
EndSplineSet
EndChar

StartChar: n
Encoding: 110 110 82
Width: 1458
Flags: W
HStem: 0 21G<172 530 938 1298> 877 270<705.917 1039> 1100 20G<172 530>
VStem: 172 358<0 760.424 956 1120> 938 360<0 819.974>
LayerCount: 3
Fore
SplineSet
903 1147 m 0xd8
 1175 1147 1298 969 1298 682 c 2
 1298 0 l 1
 938 0 l 1
 938 522 l 2
 938 745 931 877 770 877 c 0xd8
 605 877 530 736 530 551 c 2
 530 0 l 1
 172 0 l 1
 172 1120 l 1
 530 1120 l 1xb8
 530 956 l 1
 636 1084 754 1147 903 1147 c 0xd8
EndSplineSet
Validated: 1
Layer: 2
SplineSet
903 1147 m 0,0,1
 1102 1147 1102 1147 1200 1025.5 c 128,-1,2
 1298 904 1298 904 1298 682 c 2,3,-1
 1298 0 l 1,4,-1
 938 0 l 1,5,-1
 938 522 l 2,6,7
 938 571 938 571 937.5 602 c 128,-1,8
 937 633 937 633 934.5 671 c 128,-1,9
 932 709 932 709 927 732.5 c 128,-1,10
 922 756 922 756 914 782.5 c 128,-1,11
 906 809 906 809 893.5 824 c 128,-1,12
 881 839 881 839 864 852.5 c 128,-1,13
 847 866 847 866 823.5 871.5 c 128,-1,14
 800 877 800 877 770 877 c 0,15,16
 651 877 651 877 590.5 787 c 128,-1,17
 530 697 530 697 530 551 c 2,18,-1
 530 0 l 1,19,-1
 172 0 l 1,20,-1
 172 1120 l 1,21,-1
 530 1120 l 1,22,-1
 530 956 l 1,23,24
 688 1147 688 1147 903 1147 c 0,0,1
EndSplineSet
EndChar

StartChar: o
Encoding: 111 111 83
Width: 1407
Flags: W
HStem: -29 256<566.442 842.448> 891 256<566.521 842.67>
VStem: 88 373<348.785 769.422> 946 373<348.785 772.229>
LayerCount: 3
Fore
SplineSet
946 559 m 256
 946 749 879 891 705 891 c 0
 530 891 461 750 461 559 c 256
 461 369 529 227 705 227 c 0
 878 227 946 369 946 559 c 256
88 559 m 256
 88 930 318 1147 705 1147 c 0
 1091 1147 1319 930 1319 559 c 256
 1319 188 1091 -29 705 -29 c 0
 319 -29 88 188 88 559 c 256
EndSplineSet
Validated: 1
Layer: 2
SplineSet
946 559 m 256,0,1
 946 711 946 711 887.5 801 c 128,-1,2
 829 891 829 891 705 891 c 0,3,4
 580 891 580 891 520.5 801 c 128,-1,5
 461 711 461 711 461 559 c 128,-1,6
 461 407 461 407 520 317 c 128,-1,7
 579 227 579 227 705 227 c 0,8,9
 829 227 829 227 887.5 317 c 128,-1,10
 946 407 946 407 946 559 c 256,0,1
88 559 m 256,11,12
 88 837 88 837 251 992 c 128,-1,13
 414 1147 414 1147 705 1147 c 0,14,15
 995 1147 995 1147 1157 992 c 128,-1,16
 1319 837 1319 837 1319 559 c 128,-1,17
 1319 281 1319 281 1157 126 c 128,-1,18
 995 -29 995 -29 705 -29 c 128,-1,19
 415 -29 415 -29 251.5 126 c 128,-1,20
 88 281 88 281 88 559 c 256,11,12
EndSplineSet
EndChar

StartChar: p
Encoding: 112 112 84
Width: 1466
Flags: W
HStem: -426 21G<172 530> -29 260<701.673 1043.77> 887 260<701.304 1044.49> 1100 20G<172 530>
VStem: 172 358<-426 162 341.97 776.437 956 1120> 1004 370<345.535 772.061>
LayerCount: 3
Fore
SplineSet
901 -29 m 0xec
 720 -29 612 54 530 162 c 1
 530 -426 l 1
 172 -426 l 1
 172 1120 l 1
 530 1120 l 1xdc
 530 956 l 1
 611 1063 719 1147 901 1147 c 0
 1185 1147 1374 900 1374 559 c 256
 1374 217 1184 -29 901 -29 c 0xec
1004 559 m 256
 1004 747 940 887 768 887 c 256xec
 597 887 530 747 530 559 c 256
 530 372 597 231 768 231 c 256
 939 231 1004 370 1004 559 c 256
EndSplineSet
Validated: 1
Layer: 2
SplineSet
901 -29 m 0,0,1
 775 -29 775 -29 687 21.5 c 128,-1,2
 599 72 599 72 530 162 c 1,3,-1
 530 -426 l 1,4,-1
 172 -426 l 1,5,-1
 172 1120 l 1,6,-1
 530 1120 l 1,7,-1
 530 956 l 1,8,9
 598 1046 598 1046 686 1096.5 c 128,-1,10
 774 1147 774 1147 901 1147 c 0,11,12
 1112 1147 1112 1147 1243 982 c 128,-1,13
 1374 817 1374 817 1374 559 c 128,-1,14
 1374 301 1374 301 1243 136 c 128,-1,15
 1112 -29 1112 -29 901 -29 c 0,0,1
1004 559 m 256,16,17
 1004 632 1004 632 991 690 c 128,-1,18
 978 748 978 748 951 793 c 128,-1,19
 924 838 924 838 877.5 862.5 c 128,-1,20
 831 887 831 887 768 887 c 0,21,22
 646 887 646 887 588 798 c 128,-1,23
 530 709 530 709 530 559 c 128,-1,24
 530 409 530 409 588 320 c 128,-1,25
 646 231 646 231 768 231 c 128,-1,26
 890 231 890 231 947 319.5 c 128,-1,27
 1004 408 1004 408 1004 559 c 256,16,17
EndSplineSet
EndChar

StartChar: q
Encoding: 113 113 85
Width: 1466
Flags: W
HStem: -426 21G<934 1294> -29 260<422.19 764.766> 887 258<423.079 764.553> 1100 20G<934 1294>
VStem: 92 371<347.222 772.339> 934 360<-426 162 341.157 776.437 954 1120>
LayerCount: 3
Fore
SplineSet
934 559 m 256xec
 934 747 870 887 698 887 c 0
 528 887 463 747 463 559 c 256
 463 277 604 231 698 231 c 0
 869 231 934 370 934 559 c 256xec
565 1145 m 0
 747 1145 854 1061 934 954 c 1
 934 1120 l 1
 1294 1120 l 1xdc
 1294 -426 l 1
 934 -426 l 1
 934 162 l 1
 855 56 748 -29 565 -29 c 0
 281 -29 92 218 92 559 c 256
 92 902 283 1145 565 1145 c 0
EndSplineSet
Validated: 1
Layer: 2
SplineSet
934 559 m 256,0,1
 934 632 934 632 921 690 c 128,-1,2
 908 748 908 748 881 793 c 128,-1,3
 854 838 854 838 807.5 862.5 c 128,-1,4
 761 887 761 887 698 887 c 0,5,6
 577 887 577 887 520 798.5 c 128,-1,7
 463 710 463 710 463 559 c 0,8,9
 463 478 463 478 479 417 c 128,-1,10
 495 356 495 356 518.5 321.5 c 128,-1,11
 542 287 542 287 575 265.5 c 128,-1,12
 608 244 608 244 637 237.5 c 128,-1,13
 666 231 666 231 698 231 c 0,14,15
 820 231 820 231 877 319.5 c 128,-1,16
 934 408 934 408 934 559 c 256,0,1
565 1145 m 0,17,18
 692 1145 692 1145 779.5 1094.5 c 128,-1,19
 867 1044 867 1044 934 954 c 1,20,-1
 934 1120 l 1,21,-1
 1294 1120 l 1,22,-1
 1294 -426 l 1,23,-1
 934 -426 l 1,24,-1
 934 162 l 1,25,26
 867 72 867 72 779.5 21.5 c 128,-1,27
 692 -29 692 -29 565 -29 c 0,28,29
 354 -29 354 -29 223 136 c 128,-1,30
 92 301 92 301 92 559 c 128,-1,31
 92 817 92 817 223 981 c 128,-1,32
 354 1145 354 1145 565 1145 c 0,17,18
EndSplineSet
EndChar

StartChar: r
Encoding: 114 114 86
Width: 1010
Flags: W
HStem: 0 21G<172 530> 858 289<702.688 1000.02> 1100 20G<172 530>
VStem: 172 358<0 722.299 936 1120>
LayerCount: 3
Fore
SplineSet
530 936 m 1xb0
 606 1058 710 1147 903 1147 c 0
 923 1147 943 1146 1003 1139 c 1
 1003 815 l 1
 935 847 873 858 817 858 c 0xd0
 622 858 530 724 530 516 c 2
 530 0 l 1
 172 0 l 1
 172 1120 l 1
 530 1120 l 1
 530 936 l 1xb0
EndSplineSet
Validated: 1
Layer: 2
SplineSet
530 936 m 1,0,1
 593 1037 593 1037 680.5 1092 c 128,-1,2
 768 1147 768 1147 903 1147 c 0,3,4
 934 1147 934 1147 1003 1139 c 1,5,-1
 1003 815 l 1,6,7
 912 858 912 858 817 858 c 0,8,9
 674 858 674 858 602 767.5 c 128,-1,10
 530 677 530 677 530 516 c 2,11,-1
 530 0 l 1,12,-1
 172 0 l 1,13,-1
 172 1120 l 1,14,-1
 530 1120 l 1,15,-1
 530 936 l 1,0,1
EndSplineSet
EndChar

StartChar: s
Encoding: 115 115 87
Width: 1219
Flags: W
HStem: -29 238<272.66 748.25> 909 238<445.515 899.188>
VStem: 106 316<739.035 876.291> 782 340<243.759 398.503>
DStem2: 594 705 537 440 0.989949 -0.141421<-172.214 220.427>
LayerCount: 3
Fore
SplineSet
602 1147 m 0
 691 1147 830 1139 1047 1085 c 1
 1047 813 l 1
 937 859 782 909 623 909 c 0
 473 909 422 867 422 805 c 0
 422 745 472 719 594 705 c 1
 657 696 l 1
 1029 649 1122 550 1122 330 c 0
 1122 43 867 -29 596 -29 c 0
 407 -29 237 9 123 41 c 1
 123 313 l 1
 246 253 395 209 571 209 c 0
 675 209 782 230 782 324 c 0
 782 389 741 415 600 432 c 2
 537 440 l 2
 266 474 106 548 106 797 c 0
 106 1007 229 1147 602 1147 c 0
EndSplineSet
Validated: 1
Layer: 2
SplineSet
602 1147 m 0,0,1
 798 1147 798 1147 1047 1085 c 1,2,-1
 1047 813 l 1,3,4
 817 909 817 909 623 909 c 0,5,6
 422 909 422 909 422 805 c 0,7,8
 422 761 422 761 461.5 738.5 c 128,-1,9
 501 716 501 716 594 705 c 2,10,-1
 657 696 l 2,11,12
 842 673 842 673 943.5 628 c 128,-1,13
 1045 583 1045 583 1083.5 514 c 128,-1,14
 1122 445 1122 445 1122 330 c 0,15,16
 1122 -29 1122 -29 596 -29 c 0,17,18
 372 -29 372 -29 123 41 c 1,19,-1
 123 313 l 1,20,21
 336 209 336 209 571 209 c 0,22,23
 782 209 782 209 782 324 c 0,24,25
 782 373 782 373 743.5 396 c 128,-1,26
 705 419 705 419 600 432 c 2,27,-1
 537 440 l 2,28,29
 428 454 428 454 354 476 c 128,-1,30
 280 498 280 498 221 537.5 c 128,-1,31
 162 577 162 577 134 641.5 c 128,-1,32
 106 706 106 706 106 797 c 0,33,34
 106 879 106 879 131.5 941 c 128,-1,35
 157 1003 157 1003 213.5 1050.5 c 128,-1,36
 270 1098 270 1098 367.5 1122.5 c 128,-1,37
 465 1147 465 1147 602 1147 c 0,0,1
EndSplineSet
EndChar

StartChar: t
Encoding: 116 116 88
Width: 979
Flags: W
HStem: 0 256<581.942 901> 864 256<27 205 563 932>
VStem: 205 358<278.978 864 1120 1438>
LayerCount: 3
Fore
SplineSet
594 0 m 2
 318 0 205 103 205 389 c 2
 205 864 l 1
 27 864 l 1
 27 1120 l 1
 205 1120 l 1
 205 1438 l 1
 563 1438 l 1
 563 1120 l 1
 932 1120 l 1
 932 864 l 1
 563 864 l 1
 563 389 l 2
 563 285 598 256 717 256 c 2
 901 256 l 1
 901 0 l 1
 594 0 l 2
EndSplineSet
Validated: 1
Layer: 2
SplineSet
594 0 m 2,0,1
 385 0 385 0 295 88 c 128,-1,2
 205 176 205 176 205 389 c 2,3,-1
 205 864 l 1,4,-1
 27 864 l 1,5,-1
 27 1120 l 1,6,-1
 205 1120 l 1,7,-1
 205 1438 l 1,8,-1
 563 1438 l 1,9,-1
 563 1120 l 1,10,-1
 932 1120 l 1,11,-1
 932 864 l 1,12,-1
 563 864 l 1,13,-1
 563 389 l 2,14,15
 563 311 563 311 595 283.5 c 128,-1,16
 627 256 627 256 717 256 c 2,17,-1
 901 256 l 1,18,-1
 901 0 l 1,19,-1
 594 0 l 2,0,1
EndSplineSet
EndChar

StartChar: u
Encoding: 117 117 89
Width: 1458
Flags: W
HStem: -29 271<421 752.595> 0 21G<928 1286> 1100 20G<160 520 928 1286>
VStem: 160 360<311.557 1120> 928 358<0 162 357.983 1120>
LayerCount: 3
Fore
SplineSet
557 -29 m 0xb8
 285 -29 160 148 160 436 c 2
 160 1120 l 1
 520 1120 l 1
 520 596 l 2
 520 435 523 242 688 242 c 0xb8
 853 242 928 382 928 567 c 2
 928 1120 l 1
 1286 1120 l 1
 1286 0 l 1
 928 0 l 1x78
 928 162 l 1
 823 35 705 -29 557 -29 c 0xb8
EndSplineSet
Validated: 1
Layer: 2
SplineSet
557 -29 m 0,0,1
 358 -29 358 -29 259 92.5 c 128,-1,2
 160 214 160 214 160 436 c 2,3,-1
 160 1120 l 1,4,-1
 520 1120 l 1,5,-1
 520 596 l 2,6,7
 520 552 520 552 520.5 525 c 128,-1,8
 521 498 521 498 524.5 456 c 128,-1,9
 528 414 528 414 534 388 c 128,-1,10
 540 362 540 362 552.5 331.5 c 128,-1,11
 565 301 565 301 582.5 283.5 c 128,-1,12
 600 266 600 266 627 254 c 128,-1,13
 654 242 654 242 688 242 c 0,14,15
 807 242 807 242 867.5 331.5 c 128,-1,16
 928 421 928 421 928 567 c 2,17,-1
 928 1120 l 1,18,-1
 1286 1120 l 1,19,-1
 1286 0 l 1,20,-1
 928 0 l 1,21,-1
 928 162 l 1,22,23
 770 -29 770 -29 557 -29 c 0,0,1
EndSplineSet
EndChar

StartChar: v
Encoding: 118 118 90
Width: 1335
Flags: W
HStem: 0 21G<463.143 871.875> 1100 20G<31 396.209 938.817 1305>
DStem2: 389 1120 31 1120 0.365652 -0.930752<0 822.419> 668 346 864 0 0.366372 0.930468<0 822.034>
LayerCount: 3
Fore
SplineSet
31 1120 m 1
 389 1120 l 1
 668 346 l 1
 946 1120 l 1
 1305 1120 l 1
 864 0 l 1
 471 0 l 1
 31 1120 l 1
EndSplineSet
Validated: 1
Layer: 2
SplineSet
31 1120 m 1,0,-1
 389 1120 l 1,1,-1
 668 346 l 1,2,-1
 946 1120 l 1,3,-1
 1305 1120 l 1,4,-1
 864 0 l 1,5,-1
 471 0 l 1,6,-1
 31 1120 l 1,0,-1
EndSplineSet
EndChar

StartChar: w
Encoding: 119 119 91
Width: 1892
Flags: W
HStem: 0 21G<361.732 762.883 1130.09 1531.27> 1100 20G<72 424.87 792.104 1100.92 1468.05 1821>
DStem2: 420 1120 72 1120 0.254706 -0.967019<0 794.423> 608 348 758 0 0.237796 0.971315<0 490.27> 1096 1120 946 770 0.238379 -0.971172<304.154 786.791> 1284 356 1526 0 0.254706 0.967019<0 786.942>
LayerCount: 3
Fore
SplineSet
72 1120 m 1
 420 1120 l 1
 608 348 l 1
 797 1120 l 1
 1096 1120 l 1
 1284 356 l 1
 1473 1120 l 1
 1821 1120 l 1
 1526 0 l 1
 1135 0 l 1
 946 770 l 1
 758 0 l 1
 367 0 l 1
 72 1120 l 1
EndSplineSet
Validated: 1
Layer: 2
SplineSet
72 1120 m 1,0,-1
 420 1120 l 1,1,-1
 608 348 l 1,2,-1
 797 1120 l 1,3,-1
 1096 1120 l 1,4,-1
 1284 356 l 1,5,-1
 1473 1120 l 1,6,-1
 1821 1120 l 1,7,-1
 1526 0 l 1,8,-1
 1135 0 l 1,9,-1
 946 770 l 1,10,-1
 758 0 l 1,11,-1
 367 0 l 1,12,-1
 72 1120 l 1,0,-1
EndSplineSet
EndChar

StartChar: x
Encoding: 120 120 92
Width: 1321
Flags: W
HStem: 0 21G<31 424.068 896.763 1290> 1100 20G<51 443.795 877.024 1270>
DStem2: 31 0 410 0 0.609026 0.79315<230.821 230.821 1007.47 1412.09>
LayerCount: 3
Fore
SplineSet
455 573 m 1
 51 1120 l 1
 430 1120 l 1
 659 788 l 1
 891 1120 l 1
 1270 1120 l 1
 866 575 l 1
 1290 0 l 1
 911 0 l 1
 659 354 l 1
 410 0 l 1
 31 0 l 1
 455 573 l 1
EndSplineSet
Validated: 1
Layer: 2
SplineSet
455 573 m 1,0,-1
 51 1120 l 1,1,-1
 430 1120 l 1,2,-1
 659 788 l 1,3,-1
 891 1120 l 1,4,-1
 1270 1120 l 1,5,-1
 866 575 l 1,6,-1
 1290 0 l 1,7,-1
 911 0 l 1,8,-1
 659 354 l 1,9,-1
 410 0 l 1,10,-1
 31 0 l 1,11,-1
 455 573 l 1,0,-1
EndSplineSet
EndChar

StartChar: y
Encoding: 121 121 93
Width: 1335
Flags: W
HStem: -442 235<205 467.289> 1100 20G<25 390.921 933.263 1298>
DStem2: 383 1120 25 1120 0.394301 -0.918981<0 817.11> 524 -43 827 -106 0.358622 0.933483<-171.604 0 433.573 1040.93>
LayerCount: 3
Fore
SplineSet
25 1120 m 1
 383 1120 l 1
 684 360 l 1
 940 1120 l 1
 1298 1120 l 1
 827 -106 l 1
 754 -299 661 -442 412 -442 c 2
 205 -442 l 1
 205 -207 l 1
 317 -207 l 2
 437 -207 483 -174 514 -74 c 1
 524 -43 l 1
 25 1120 l 1
EndSplineSet
Validated: 1
Layer: 2
SplineSet
25 1120 m 1,0,-1
 383 1120 l 1,1,-1
 684 360 l 1,2,-1
 940 1120 l 1,3,-1
 1298 1120 l 1,4,-1
 827 -106 l 2,5,6
 797 -186 797 -186 765.5 -241 c 128,-1,7
 734 -296 734 -296 686.5 -345 c 128,-1,8
 639 -394 639 -394 570.5 -418 c 128,-1,9
 502 -442 502 -442 412 -442 c 2,10,-1
 205 -442 l 1,11,-1
 205 -207 l 1,12,-1
 317 -207 l 2,13,14
 406 -207 406 -207 448.5 -178 c 128,-1,15
 491 -149 491 -149 514 -74 c 2,16,-1
 524 -43 l 1,17,-1
 25 1120 l 1,0,-1
EndSplineSet
EndChar

StartChar: z
Encoding: 122 122 94
Width: 1192
Flags: W
HStem: 0 256<504 1094> 864 256<117 682>
DStem2: 92 250 504 256 0.692874 0.721059<289.79 851.526>
LayerCount: 3
Fore
SplineSet
117 1120 m 1
 1094 1120 l 1
 1094 870 l 1
 504 256 l 1
 1094 256 l 1
 1094 0 l 1
 92 0 l 1
 92 250 l 1
 682 864 l 1
 117 864 l 1
 117 1120 l 1
EndSplineSet
Validated: 1
Layer: 2
SplineSet
117 1120 m 1,0,-1
 1094 1120 l 1,1,-1
 1094 870 l 1,2,-1
 504 256 l 1,3,-1
 1094 256 l 1,4,-1
 1094 0 l 1,5,-1
 92 0 l 1,6,-1
 92 250 l 1,7,-1
 682 864 l 1,8,-1
 117 864 l 1,9,-1
 117 1120 l 1,0,-1
EndSplineSet
EndChar

StartChar: braceleft
Encoding: 123 123 95
Width: 1458
Flags: W
HStem: -334 225<948.375 1202> 494 223<256 494.681> 1331 225<948.75 1202>
VStem: 567 340<-68.7078 418.701 788.558 1281.33>
LayerCount: 3
Fore
SplineSet
1133 1331 m 2
 943 1331 907 1292 907 1102 c 2
 907 936 l 2
 907 712 841 642 707 612 c 1
 844 579 907 507 907 287 c 2
 907 121 l 2
 907 -70 942 -109 1133 -109 c 2
 1202 -109 l 1
 1202 -334 l 1
 985 -334 l 2
 711 -334 567 -235 567 35 c 2
 567 227 l 2
 567 430 500 494 317 494 c 2
 256 494 l 1
 256 717 l 1
 317 717 l 2
 505 717 567 786 567 983 c 2
 567 1188 l 2
 567 1458 711 1556 985 1556 c 2
 1202 1556 l 1
 1202 1331 l 1
 1133 1331 l 2
EndSplineSet
Validated: 1
Layer: 2
SplineSet
1133 1331 m 2,0,1
 1059 1331 1059 1331 1017 1322.5 c 128,-1,2
 975 1314 975 1314 949 1287 c 128,-1,3
 923 1260 923 1260 915 1218.5 c 128,-1,4
 907 1177 907 1177 907 1102 c 2,5,-1
 907 936 l 2,6,7
 907 826 907 826 884 759 c 128,-1,8
 861 692 861 692 819.5 660 c 128,-1,9
 778 628 778 628 707 612 c 1,10,11
 779 595 779 595 820.5 562 c 128,-1,12
 862 529 862 529 884.5 462.5 c 128,-1,13
 907 396 907 396 907 287 c 2,14,-1
 907 121 l 2,15,16
 907 -23 907 -23 948.5 -66 c 128,-1,17
 990 -109 990 -109 1133 -109 c 2,18,-1
 1202 -109 l 1,19,-1
 1202 -334 l 1,20,-1
 985 -334 l 2,21,22
 773 -334 773 -334 670 -248 c 128,-1,23
 567 -162 567 -162 567 35 c 2,24,-1
 567 227 l 2,25,26
 567 378 567 378 511.5 436 c 128,-1,27
 456 494 456 494 317 494 c 2,28,-1
 256 494 l 1,29,-1
 256 717 l 1,30,-1
 317 717 l 2,31,32
 457 717 457 717 512 776 c 128,-1,33
 567 835 567 835 567 983 c 2,34,-1
 567 1188 l 2,35,36
 567 1385 567 1385 670 1470.5 c 128,-1,37
 773 1556 773 1556 985 1556 c 2,38,-1
 1202 1556 l 1,39,-1
 1202 1331 l 1,40,-1
 1133 1331 l 2,0,1
EndSplineSet
EndChar

StartChar: bar
Encoding: 124 124 96
Width: 748
Flags: W
VStem: 260 227<-483 1565>
LayerCount: 3
Fore
SplineSet
487 1565 m 1
 487 -483 l 1
 260 -483 l 1
 260 1565 l 1
 487 1565 l 1
EndSplineSet
Validated: 1
Layer: 2
SplineSet
487 1565 m 1,0,-1
 487 -483 l 1,1,-1
 260 -483 l 1,2,-1
 260 1565 l 1,3,-1
 487 1565 l 1,0,-1
EndSplineSet
EndChar

StartChar: braceright
Encoding: 125 125 97
Width: 1458
Flags: W
HStem: -334 225<256 509.75> 494 223<963.319 1202> 1331 225<256 509.375>
VStem: 551 340<-68.3449 419.486 788.151 1281.33>
LayerCount: 3
Fore
SplineSet
551 1102 m 2
 551 1292 515 1331 326 1331 c 2
 256 1331 l 1
 256 1556 l 1
 473 1556 l 2
 746 1556 891 1458 891 1188 c 2
 891 983 l 2
 891 785 954 717 1141 717 c 2
 1202 717 l 1
 1202 494 l 1
 1141 494 l 2
 958 494 891 429 891 227 c 2
 891 35 l 2
 891 -235 747 -334 473 -334 c 2
 256 -334 l 1
 256 -109 l 1
 326 -109 l 2
 516 -109 551 -69 551 121 c 2
 551 287 l 2
 551 509 616 579 752 612 c 1
 616 643 551 712 551 936 c 2
 551 1102 l 2
EndSplineSet
Validated: 1
Layer: 2
SplineSet
551 1102 m 2,0,1
 551 1177 551 1177 543 1218.5 c 128,-1,2
 535 1260 535 1260 509 1287 c 128,-1,3
 483 1314 483 1314 441.5 1322.5 c 128,-1,4
 400 1331 400 1331 326 1331 c 2,5,-1
 256 1331 l 1,6,-1
 256 1556 l 1,7,-1
 473 1556 l 2,8,9
 684 1556 684 1556 787.5 1470.5 c 128,-1,10
 891 1385 891 1385 891 1188 c 2,11,-1
 891 983 l 2,12,13
 891 834 891 834 946 775.5 c 128,-1,14
 1001 717 1001 717 1141 717 c 2,15,-1
 1202 717 l 1,16,-1
 1202 494 l 1,17,-1
 1141 494 l 2,18,19
 1003 494 1003 494 947 435.5 c 128,-1,20
 891 377 891 377 891 227 c 2,21,-1
 891 35 l 2,22,23
 891 -162 891 -162 788 -248 c 128,-1,24
 685 -334 685 -334 473 -334 c 2,25,-1
 256 -334 l 1,26,-1
 256 -109 l 1,27,-1
 326 -109 l 2,28,29
 375 -109 375 -109 408.5 -105.5 c 128,-1,30
 442 -102 442 -102 468.5 -91.5 c 128,-1,31
 495 -81 495 -81 510 -65.5 c 128,-1,32
 525 -50 525 -50 534.5 -23 c 128,-1,33
 544 4 544 4 547.5 37.5 c 128,-1,34
 551 71 551 71 551 121 c 2,35,-1
 551 287 l 2,36,37
 551 396 551 396 574 463 c 128,-1,38
 597 530 597 530 638.5 562.5 c 128,-1,39
 680 595 680 595 752 612 c 1,40,41
 645 636 645 636 598 705.5 c 128,-1,42
 551 775 551 775 551 936 c 2,43,-1
 551 1102 l 2,0,1
EndSplineSet
EndChar

StartChar: asciitilde
Encoding: 126 126 98
Width: 1716
Flags: W
HStem: 457 233<940.776 1324.6> 594 233<391.224 775.897>
LayerCount: 3
Fore
SplineSet
1141 690 m 0x80
 1284 690 1400 768 1499 850 c 1
 1499 606 l 1
 1388 523 1270 457 1118 457 c 0x80
 918 457 762 594 575 594 c 0
 432 594 315 517 217 434 c 1
 217 678 l 1
 328 761 446 827 598 827 c 0x40
 799 827 955 690 1141 690 c 0x80
EndSplineSet
Validated: 1
Layer: 2
SplineSet
1141 690 m 0,0,1
 1238 690 1238 690 1324 733 c 128,-1,2
 1410 776 1410 776 1499 850 c 1,3,-1
 1499 606 l 1,4,5
 1404 535 1404 535 1313.5 496 c 128,-1,6
 1223 457 1223 457 1118 457 c 0,7,8
 1051 457 1051 457 975 478.5 c 128,-1,9
 899 500 899 500 841.5 525.5 c 128,-1,10
 784 551 784 551 710.5 572.5 c 128,-1,11
 637 594 637 594 575 594 c 0,12,13
 406 594 406 594 217 434 c 1,14,-1
 217 678 l 1,15,16
 312 749 312 749 402.5 788 c 128,-1,17
 493 827 493 827 598 827 c 0,18,19
 665 827 665 827 741.5 805.5 c 128,-1,20
 818 784 818 784 875.5 758.5 c 128,-1,21
 933 733 933 733 1006 711.5 c 128,-1,22
 1079 690 1079 690 1141 690 c 0,0,1
EndSplineSet
EndChar

StartChar: exclamdown
Encoding: 161 161 100
Width: 934
Flags: W
HStem: 0 21G<287 647> 1137 356<287 647>
VStem: 287 360<0 690.499 1137 1493>
LayerCount: 3
Fore
SplineSet
287 0 m 1
 287 573 l 1
 338 991 l 1
 596 991 l 1
 647 573 l 1
 647 0 l 1
 287 0 l 1
287 1137 m 1
 287 1493 l 1
 647 1493 l 1
 647 1137 l 1
 287 1137 l 1
EndSplineSet
Validated: 1
Layer: 2
SplineSet
287 0 m 1,0,-1
 287 573 l 1,1,-1
 338 991 l 1,2,-1
 596 991 l 1,3,-1
 647 573 l 1,4,-1
 647 0 l 1,5,-1
 287 0 l 1,0,-1
287 1137 m 1,6,-1
 287 1493 l 1,7,-1
 647 1493 l 1,8,-1
 647 1137 l 1,9,-1
 287 1137 l 1,6,-1
EndSplineSet
EndChar

StartChar: cent
Encoding: 162 162 101
Width: 1425
Flags: W
HStem: -29 257<864 1071.82> 891 254<864 1060.27>
VStem: 174 373<371.156 749.388> 702 162<-313 -29 260 858 1145 1432>
LayerCount: 3
Fore
SplineSet
702 858 m 1
 602 802 547 708 547 559 c 0
 547 406 604 313 702 260 c 1
 702 858 l 1
174 575 m 0
 174 917 375 1101 702 1145 c 1
 702 1432 l 1
 864 1432 l 1
 864 1145 l 1
 953 1141 1048 1125 1161 1085 c 1
 1161 793 l 1
 1015 888 914 891 879 891 c 2
 864 891 l 1
 864 228 l 1
 989 229 1089 267 1161 326 c 1
 1161 33 l 1
 1024 -17 931 -29 874 -29 c 2
 864 -29 l 1
 864 -313 l 1
 702 -313 l 1
 702 -25 l 1
 373 25 174 211 174 575 c 0
EndSplineSet
Validated: 1
Layer: 2
SplineSet
702 858 m 1,0,1
 547 771 547 771 547 559 c 0,2,3
 547 344 547 344 702 260 c 1,4,-1
 702 858 l 1,0,1
174 575 m 0,5,6
 174 826 174 826 312 968.5 c 128,-1,7
 450 1111 450 1111 702 1145 c 1,8,-1
 702 1432 l 1,9,-1
 864 1432 l 1,10,-1
 864 1145 l 1,11,12
 1010 1138 1010 1138 1161 1085 c 1,13,-1
 1161 793 l 1,14,15
 1010 891 1010 891 879 891 c 2,16,-1
 864 891 l 1,17,-1
 864 228 l 1,18,19
 1043 229 1043 229 1161 326 c 1,20,-1
 1161 33 l 1,21,22
 991 -29 991 -29 874 -29 c 2,23,-1
 864 -29 l 1,24,-1
 864 -313 l 1,25,-1
 702 -313 l 1,26,-1
 702 -25 l 1,27,28
 447 14 447 14 310.5 161.5 c 128,-1,29
 174 309 174 309 174 575 c 0,5,6
EndSplineSet
EndChar

StartChar: sterling
Encoding: 163 163 102
Width: 1425
Flags: W
HStem: 0 266<125 352 717 1255> 592 239<158 352 717 1090> 1257 263<796.148 1172.24>
VStem: 352 365<266 592 831 1170.79>
LayerCount: 3
Fore
SplineSet
881 1520 m 0
 1026 1520 1148 1495 1243 1466 c 1
 1243 1180 l 1
 1166 1223 1066 1257 948 1257 c 0
 809 1257 717 1194 717 1001 c 2
 717 831 l 1
 1090 831 l 1
 1090 592 l 1
 717 592 l 1
 717 266 l 1
 1255 266 l 1
 1255 0 l 1
 125 0 l 1
 125 266 l 1
 352 266 l 1
 352 592 l 1
 158 592 l 1
 158 831 l 1
 352 831 l 1
 352 1001 l 2
 352 1366 521 1520 881 1520 c 0
EndSplineSet
Validated: 1
Layer: 2
SplineSet
881 1520 m 0,0,1
 1066 1520 1066 1520 1243 1466 c 1,2,-1
 1243 1180 l 1,3,4
 1105 1257 1105 1257 948 1257 c 0,5,6
 837 1257 837 1257 777 1198 c 128,-1,7
 717 1139 717 1139 717 1001 c 2,8,-1
 717 831 l 1,9,-1
 1090 831 l 1,10,-1
 1090 592 l 1,11,-1
 717 592 l 1,12,-1
 717 266 l 1,13,-1
 1255 266 l 1,14,-1
 1255 0 l 1,15,-1
 125 0 l 1,16,-1
 125 266 l 1,17,-1
 352 266 l 1,18,-1
 352 592 l 1,19,-1
 158 592 l 1,20,-1
 158 831 l 1,21,-1
 352 831 l 1,22,-1
 352 1001 l 2,23,24
 352 1273 352 1273 480.5 1396.5 c 128,-1,25
 609 1520 609 1520 881 1520 c 0,0,1
EndSplineSet
EndChar

StartChar: currency
Encoding: 164 164 103
Width: 1303
Flags: W
HStem: 213 209<519.484 785.641> 860 209<520.115 785.664> 1197 20G<209.13 249 1059 1098.74>
VStem: 225 209<507.1 774.669> 872 209<507.505 774.201>
DStem2: 74 215 227 61 0.706755 0.707458<0 306.794 1112.55 1420.47> 436 1010 285 858 0.707814 -0.706399<-292.252 11.9266 815.833 1119.13>
LayerCount: 3
Fore
SplineSet
653 213 m 0
 565 213 492 237 434 268 c 1
 227 61 l 1
 74 215 l 1
 281 422 l 1
 238 498 225 570 225 641 c 256
 225 731 248 801 285 858 c 1
 76 1063 l 1
 229 1217 l 1
 436 1010 l 1
 509 1056 583 1069 653 1069 c 0
 741 1069 813 1043 872 1014 c 1
 1079 1221 l 1
 1231 1067 l 1
 1024 860 l 1
 1055 801 1081 727 1081 641 c 0
 1081 571 1068 498 1022 426 c 1
 1229 219 l 1
 1075 66 l 1
 868 272 l 1
 797 226 723 213 653 213 c 0
434 641 m 0
 434 516 528 422 653 422 c 0
 774 422 872 515 872 641 c 256
 872 767 775 860 653 860 c 0
 532 860 434 767 434 641 c 0
EndSplineSet
Validated: 1
Layer: 2
SplineSet
653 213 m 0,0,1
 537 213 537 213 434 268 c 1,2,-1
 227 61 l 1,3,-1
 74 215 l 1,4,-1
 281 422 l 1,5,6
 225 521 225 521 225 641 c 0,7,8
 225 766 225 766 285 858 c 1,9,-1
 76 1063 l 1,10,-1
 229 1217 l 1,11,-1
 436 1010 l 1,12,13
 530 1069 530 1069 653 1069 c 0,14,15
 760 1069 760 1069 872 1014 c 1,16,-1
 1079 1221 l 1,17,-1
 1231 1067 l 1,18,-1
 1024 860 l 1,19,20
 1081 752 1081 752 1081 641 c 0,21,22
 1081 518 1081 518 1022 426 c 1,23,-1
 1229 219 l 1,24,-1
 1075 66 l 1,25,-1
 868 272 l 1,26,27
 777 213 777 213 653 213 c 0,0,1
434 641 m 128,-1,29
 434 547 434 547 496.5 484.5 c 128,-1,30
 559 422 559 422 653 422 c 0,31,32
 745 422 745 422 808.5 484.5 c 128,-1,33
 872 547 872 547 872 641 c 128,-1,34
 872 735 872 735 808.5 797.5 c 128,-1,35
 745 860 745 860 653 860 c 128,-1,36
 561 860 561 860 497.5 797.5 c 128,-1,28
 434 735 434 735 434 641 c 128,-1,29
EndSplineSet
EndChar

StartChar: yen
Encoding: 165 165 104
Width: 1425
Flags: W
HStem: 0 21G<522 903> 416 194<68 522 903 1358> 762 192<68 360 1065 1358> 1473 20G<25 436.538 988.505 1401>
VStem: 522 381<0 416 610 676>
LayerCount: 3
Fore
SplineSet
1358 416 m 1
 903 416 l 1
 903 0 l 1
 522 0 l 1
 522 416 l 1
 68 416 l 1
 68 610 l 1
 522 610 l 1
 522 676 l 1
 473 762 l 1
 68 762 l 1
 68 954 l 1
 360 954 l 1
 25 1493 l 1
 424 1493 l 1
 713 1032 l 1
 1001 1493 l 1
 1401 1493 l 1
 1065 954 l 1
 1358 954 l 1
 1358 762 l 1
 952 762 l 1
 903 676 l 1
 903 610 l 1
 1358 610 l 1
 1358 416 l 1
EndSplineSet
Validated: 1
Layer: 2
SplineSet
1358 416 m 1,0,-1
 903 416 l 1,1,-1
 903 0 l 1,2,-1
 522 0 l 1,3,-1
 522 416 l 1,4,-1
 68 416 l 1,5,-1
 68 610 l 1,6,-1
 522 610 l 1,7,-1
 522 676 l 1,8,-1
 473 762 l 1,9,-1
 68 762 l 1,10,-1
 68 954 l 1,11,-1
 360 954 l 1,12,-1
 25 1493 l 1,13,-1
 424 1493 l 1,14,-1
 713 1032 l 1,15,-1
 1001 1493 l 1,16,-1
 1401 1493 l 1,17,-1
 1065 954 l 1,18,-1
 1358 954 l 1,19,-1
 1358 762 l 1,20,-1
 952 762 l 1,21,-1
 903 676 l 1,22,-1
 903 610 l 1,23,-1
 1358 610 l 1,24,-1
 1358 416 l 1,0,-1
EndSplineSet
EndChar

StartChar: brokenbar
Encoding: 166 166 105
Width: 748
Flags: W
VStem: 260 227<-350 408 674 1432>
LayerCount: 3
Fore
SplineSet
487 1432 m 1
 487 674 l 1
 260 674 l 1
 260 1432 l 1
 487 1432 l 1
487 408 m 1
 487 -350 l 1
 260 -350 l 1
 260 408 l 1
 487 408 l 1
EndSplineSet
Validated: 1
Layer: 2
SplineSet
487 1432 m 1,0,-1
 487 674 l 1,1,-1
 260 674 l 1,2,-1
 260 1432 l 1,3,-1
 487 1432 l 1,0,-1
487 408 m 1,4,-1
 487 -350 l 1,5,-1
 260 -350 l 1,6,-1
 260 408 l 1,7,-1
 487 408 l 1,4,-1
EndSplineSet
EndChar

StartChar: section
Encoding: 167 167 106
Width: 1024
Flags: W
HStem: -195 211<235.231 591.633> 1235 21G<810 885> 1313 207<438.934 793.409>
VStem: 14 285<608.558 801.181> 98 322<1150.63 1289.82> 612 326<40.4451 175.081> 739 277<525.212 721.667>
LayerCount: 3
Fore
SplineSet
528 1520 m 0xe8
 671 1520 800 1489 885 1462 c 1
 885 1235 l 1
 735 1294 634 1313 571 1313 c 0
 490 1313 420 1291 420 1217 c 0
 420 1097 783 1047 936 880 c 0
 990 822 1016 751 1016 668 c 0xea
 1016 491 918 398 786 344 c 1
 839 316 938 253 938 117 c 0
 938 -94 743 -195 483 -195 c 0
 409 -195 293 -188 115 -137 c 1
 115 100 l 1
 249 52 384 16 469 16 c 0
 556 16 612 52 612 106 c 0
 612 275 14 269 14 668 c 0xf4
 14 792 73 902 238 977 c 1
 165 1026 98 1090 98 1214 c 0
 98 1427 289 1520 528 1520 c 0xe8
604 471 m 1
 670 494 739 541 739 625 c 0
 739 717 646 782 434 856 c 1
 374 831 299 788 299 702 c 0xf2
 299 608 376 554 604 471 c 1
EndSplineSet
Validated: 1
Layer: 2
SplineSet
528 1520 m 0,0,1
 702 1520 702 1520 885 1462 c 1,2,-1
 885 1235 l 1,3,4
 687 1313 687 1313 571 1313 c 0,5,6
 420 1313 420 1313 420 1217 c 0,7,8
 420 1176 420 1176 480.5 1136.5 c 128,-1,9
 541 1097 541 1097 619.5 1066.5 c 128,-1,10
 698 1036 698 1036 792 985.5 c 128,-1,11
 886 935 886 935 936 880 c 0,12,13
 1016 794 1016 794 1016 668 c 0,14,15
 1016 438 1016 438 786 344 c 1,16,17
 938 264 938 264 938 117 c 0,18,19
 938 40 938 40 903.5 -20.5 c 128,-1,20
 869 -81 869 -81 807.5 -118.5 c 128,-1,21
 746 -156 746 -156 664 -175.5 c 128,-1,22
 582 -195 582 -195 483 -195 c 0,23,24
 317 -195 317 -195 115 -137 c 1,25,-1
 115 100 l 1,26,27
 350 16 350 16 469 16 c 0,28,29
 534 16 534 16 573 40.5 c 128,-1,30
 612 65 612 65 612 106 c 0,31,32
 612 136 612 136 586.5 162.5 c 128,-1,33
 561 189 561 189 519 209 c 128,-1,34
 477 229 477 229 423 253 c 128,-1,35
 369 277 369 277 313 300.5 c 128,-1,36
 257 324 257 324 203 359.5 c 128,-1,37
 149 395 149 395 107 435.5 c 128,-1,38
 65 476 65 476 39.5 536 c 128,-1,39
 14 596 14 596 14 668 c 0,40,41
 14 875 14 875 238 977 c 1,42,43
 173 1021 173 1021 135.5 1075 c 128,-1,44
 98 1129 98 1129 98 1214 c 0,45,46
 98 1292 98 1292 131 1351.5 c 128,-1,47
 164 1411 164 1411 223.5 1447.5 c 128,-1,48
 283 1484 283 1484 359.5 1502 c 128,-1,49
 436 1520 436 1520 528 1520 c 0,0,1
604 471 m 1,50,51
 662 491 662 491 700.5 529 c 128,-1,52
 739 567 739 567 739 625 c 0,53,54
 739 693 739 693 667.5 746.5 c 128,-1,55
 596 800 596 800 434 856 c 1,56,57
 299 800 299 800 299 702 c 0,58,59
 299 632 299 632 365 583 c 128,-1,60
 431 534 431 534 604 471 c 1,50,51
EndSplineSet
EndChar

StartChar: dieresis
Encoding: 168 168 107
Width: 1024
Flags: W
HStem: 1339 246<197 432 592 827>
VStem: 197 235<1339 1585> 592 235<1339 1585>
LayerCount: 3
Fore
SplineSet
197 1585 m 1
 432 1585 l 1
 432 1339 l 1
 197 1339 l 1
 197 1585 l 1
592 1585 m 1
 827 1585 l 1
 827 1339 l 1
 592 1339 l 1
 592 1585 l 1
EndSplineSet
Validated: 1
Layer: 2
SplineSet
197 1585 m 1,0,-1
 432 1585 l 1,1,-1
 432 1339 l 1,2,-1
 197 1339 l 1,3,-1
 197 1585 l 1,0,-1
592 1585 m 1,4,-1
 827 1585 l 1,5,-1
 827 1339 l 1,6,-1
 592 1339 l 1,7,-1
 592 1585 l 1,4,-1
EndSplineSet
EndChar

StartChar: copyright
Encoding: 169 169 108
Width: 2048
Flags: W
HStem: 0 154<805.3 1242.99> 313 187<946.301 1280.25> 983 186<949.678 1275.05> 1331 154<806.783 1241.05>
VStem: 283 151<522.505 961.883> 600 258<586.488 891.748> 1614 151<522.568 961.862>
LayerCount: 3
Fore
SplineSet
1065 1169 m 0
 1164 1169 1247 1153 1323 1126 c 1
 1323 911 l 1
 1267 947 1192 983 1098 983 c 0
 948 983 858 895 858 741 c 0
 858 586 947 500 1098 500 c 0
 1191 500 1267 528 1323 571 c 1
 1323 358 l 1
 1231 327 1142 313 1065 313 c 0
 778 313 600 484 600 741 c 0
 600 1005 784 1169 1065 1169 c 0
1024 1331 m 256
 698 1331 434 1067 434 741 c 0
 434 424 689 154 1024 154 c 0
 1355 154 1614 418 1614 741 c 0
 1614 1066 1351 1331 1024 1331 c 256
1024 1485 m 256
 1425 1485 1765 1164 1765 741 c 0
 1765 327 1431 0 1024 0 c 256
 623 0 283 320 283 741 c 0
 283 1163 621 1485 1024 1485 c 256
EndSplineSet
Validated: 1
Layer: 2
SplineSet
1065 1169 m 0,0,1
 1202 1169 1202 1169 1323 1126 c 1,2,-1
 1323 911 l 1,3,4
 1211 983 1211 983 1098 983 c 128,-1,5
 985 983 985 983 921.5 919.5 c 128,-1,6
 858 856 858 856 858 741 c 0,7,8
 858 625 858 625 921 562.5 c 128,-1,9
 984 500 984 500 1098 500 c 0,10,11
 1231 500 1231 500 1323 571 c 1,12,-1
 1323 358 l 1,13,14
 1189 313 1189 313 1065 313 c 0,15,16
 851 313 851 313 725.5 430 c 128,-1,17
 600 547 600 547 600 741 c 0,18,19
 600 938 600 938 726.5 1053.5 c 128,-1,20
 853 1169 853 1169 1065 1169 c 0,0,1
1024 1331 m 256,21,22
 864 1331 864 1331 728 1252 c 128,-1,23
 592 1173 592 1173 513 1037 c 128,-1,24
 434 901 434 901 434 741 c 0,25,26
 434 584 434 584 511 449.5 c 128,-1,27
 588 315 588 315 724 234.5 c 128,-1,28
 860 154 860 154 1024 154 c 0,29,30
 1186 154 1186 154 1322 233 c 128,-1,31
 1458 312 1458 312 1536 447 c 128,-1,32
 1614 582 1614 582 1614 741 c 0,33,34
 1614 861 1614 861 1567.5 970 c 128,-1,35
 1521 1079 1521 1079 1442 1158 c 128,-1,36
 1363 1237 1363 1237 1253.5 1284 c 128,-1,37
 1144 1331 1144 1331 1024 1331 c 256,21,22
1024 1485 m 256,38,39
 1172 1485 1172 1485 1308.5 1427.5 c 128,-1,40
 1445 1370 1445 1370 1545.5 1272 c 128,-1,41
 1646 1174 1646 1174 1705.5 1035 c 128,-1,42
 1765 896 1765 896 1765 741 c 0,43,44
 1765 538 1765 538 1665 367 c 128,-1,45
 1565 196 1565 196 1395 98 c 128,-1,46
 1225 0 1225 0 1024 0 c 0,47,48
 876 0 876 0 739.5 57 c 128,-1,49
 603 114 603 114 502.5 212 c 128,-1,50
 402 310 402 310 342.5 448.5 c 128,-1,51
 283 587 283 587 283 741 c 0,52,53
 283 948 283 948 384 1119.5 c 128,-1,54
 485 1291 485 1291 655 1388 c 128,-1,55
 825 1485 825 1485 1024 1485 c 256,38,39
EndSplineSet
EndChar

StartChar: ordfeminine
Encoding: 170 170 109
Width: 1155
Flags: W
HStem: 373 200<176 989> 696 162<425.39 645.003> 1081 138<440.975 731> 1354 166<292.449 703.642>
VStem: 158 248<879.531 1047.2> 733 268<929.903 1081 1219 1321.52> 756 245<717 844>
LayerCount: 3
Fore
SplineSet
176 573 m 1xf8
 989 573 l 1
 989 373 l 1
 176 373 l 1
 176 573 l 1xf8
530 858 m 0
 652 858 733 945 733 1059 c 2
 733 1081 l 1xfc
 643 1081 l 2
 486 1081 406 1058 406 967 c 0
 406 897 454 858 530 858 c 0
561 1520 m 0
 833 1520 1001 1425 1001 1165 c 2
 1001 717 l 1
 756 717 l 1
 756 844 l 1xfa
 694 758 610 696 467 696 c 0
 286 696 158 780 158 946 c 0
 158 1110 258 1219 594 1219 c 2
 731 1219 l 1
 731 1239 l 2
 731 1285 707 1354 557 1354 c 0
 424 1354 316 1324 225 1284 c 1
 225 1464 l 1
 314 1491 439 1520 561 1520 c 0
EndSplineSet
Validated: 1
Layer: 2
SplineSet
176 573 m 1,0,-1
 989 573 l 1,1,-1
 989 373 l 1,2,-1
 176 373 l 1,3,-1
 176 573 l 1,0,-1
530 858 m 0,4,5
 620 858 620 858 676.5 915 c 128,-1,6
 733 972 733 972 733 1059 c 2,7,-1
 733 1081 l 1,8,-1
 643 1081 l 2,9,10
 519 1081 519 1081 462.5 1056.5 c 128,-1,11
 406 1032 406 1032 406 967 c 0,12,13
 406 915 406 915 439 886.5 c 128,-1,14
 472 858 472 858 530 858 c 0,4,5
561 1520 m 0,15,16
 775 1520 775 1520 888 1436.5 c 128,-1,17
 1001 1353 1001 1353 1001 1165 c 2,18,-1
 1001 717 l 1,19,-1
 756 717 l 1,20,-1
 756 844 l 1,21,22
 705 773 705 773 636.5 734.5 c 128,-1,23
 568 696 568 696 467 696 c 0,24,25
 327 696 327 696 242.5 760.5 c 128,-1,26
 158 825 158 825 158 946 c 0,27,28
 158 1010 158 1010 179.5 1058 c 128,-1,29
 201 1106 201 1106 249.5 1143.5 c 128,-1,30
 298 1181 298 1181 384.5 1200 c 128,-1,31
 471 1219 471 1219 594 1219 c 2,32,-1
 731 1219 l 1,33,-1
 731 1239 l 2,34,35
 731 1259 731 1259 724.5 1277 c 128,-1,36
 718 1295 718 1295 701 1313.5 c 128,-1,37
 684 1332 684 1332 647 1343 c 128,-1,38
 610 1354 610 1354 557 1354 c 0,39,40
 384 1354 384 1354 225 1284 c 1,41,-1
 225 1464 l 1,42,43
 410 1520 410 1520 561 1520 c 0,15,16
EndSplineSet
EndChar

StartChar: guillemotleft
Encoding: 171 171 110
Width: 1323
Flags: W
DStem2: 158 692 358 600 0.799026 0.601296<104.486 471.487> 358 600 158 506 0.800584 -0.59922<0 366.999> 637 692 838 600 0.799026 0.601296<105.285 471.487> 838 600 637 506 0.800584 -0.59922<0 366.198>
LayerCount: 3
Fore
SplineSet
651 1063 m 1
 651 821 l 1
 358 600 l 1
 651 379 l 1
 651 137 l 1
 158 506 l 1
 158 692 l 1
 651 1063 l 1
1130 1063 m 1
 1130 821 l 1
 838 600 l 1
 1130 379 l 1
 1130 137 l 1
 637 506 l 1
 637 692 l 1
 1130 1063 l 1
EndSplineSet
Validated: 1
Layer: 2
SplineSet
651 1063 m 1,0,-1
 651 821 l 1,1,-1
 358 600 l 1,2,-1
 651 379 l 1,3,-1
 651 137 l 1,4,-1
 158 506 l 1,5,-1
 158 692 l 1,6,-1
 651 1063 l 1,0,-1
1130 1063 m 1,7,-1
 1130 821 l 1,8,-1
 838 600 l 1,9,-1
 1130 379 l 1,10,-1
 1130 137 l 1,11,-1
 637 506 l 1,12,-1
 637 692 l 1,13,-1
 1130 1063 l 1,7,-1
EndSplineSet
EndChar

StartChar: logicalnot
Encoding: 172 172 111
Width: 1716
Flags: W
HStem: 672 237<217 1264>
VStem: 1264 235<287 672>
LayerCount: 3
Fore
SplineSet
217 909 m 1
 1499 909 l 1
 1499 287 l 1
 1264 287 l 1
 1264 672 l 1
 217 672 l 1
 217 909 l 1
EndSplineSet
Validated: 1
Layer: 2
SplineSet
217 909 m 1,0,-1
 1499 909 l 1,1,-1
 1499 287 l 1,2,-1
 1264 287 l 1,3,-1
 1264 672 l 1,4,-1
 217 672 l 1,5,-1
 217 909 l 1,0,-1
EndSplineSet
EndChar

StartChar: uni00AD
Encoding: 173 173 112
Width: 850
Flags: W
HStem: 444 291<111 739>
VStem: 111 628<444 735>
LayerCount: 3
Fore
SplineSet
111 735 m 1
 739 735 l 1
 739 444 l 1
 111 444 l 1
 111 735 l 1
EndSplineSet
Validated: 1
Layer: 2
SplineSet
111 735 m 1,0,-1
 739 735 l 1,1,-1
 739 444 l 1,2,-1
 111 444 l 1,3,-1
 111 735 l 1,0,-1
EndSplineSet
EndChar

StartChar: registered
Encoding: 174 174 113
Width: 2048
Flags: W
HStem: 0 154<805.3 1242.99> 694 135<932 1010.34> 1036 138<932 1103.51> 1331 154<808.432 1241.05>
VStem: 283 151<522.505 963.531> 719 213<338 694 829 1036> 1124 230<854.013 1011.92> 1614 151<522.568 961.862>
DStem2: 1405 338 1069 551 0.44883 -0.893617<-437.707 -102.782>
LayerCount: 3
Fore
SplineSet
1024 1331 m 256
 706 1331 434 1075 434 741 c 0
 434 424 689 154 1024 154 c 0
 1355 154 1614 418 1614 741 c 0
 1614 1066 1351 1331 1024 1331 c 256
1124 934 m 256
 1124 995 1085 1036 967 1036 c 2
 932 1036 l 1
 932 829 l 1
 967 829 l 2
 1079 829 1124 871 1124 934 c 256
1354 934 m 0
 1354 809 1269 739 1153 719 c 1
 1223 681 1267 614 1294 559 c 2
 1405 338 l 1
 1176 338 l 1
 1069 551 l 1
 1035 621 994 694 944 694 c 2
 932 694 l 1
 932 338 l 1
 719 338 l 1
 719 1174 l 1
 1004 1174 l 2
 1263 1174 1354 1078 1354 934 c 0
1024 1485 m 256
 1425 1485 1765 1164 1765 741 c 0
 1765 327 1431 0 1024 0 c 256
 623 0 283 320 283 741 c 0
 283 1163 621 1485 1024 1485 c 256
EndSplineSet
Validated: 1
Layer: 2
SplineSet
1024 1331 m 256,0,1
 867 1331 867 1331 731.5 1254 c 128,-1,2
 596 1177 596 1177 515 1040.5 c 128,-1,3
 434 904 434 904 434 741 c 0,4,5
 434 584 434 584 511 449.5 c 128,-1,6
 588 315 588 315 724 234.5 c 128,-1,7
 860 154 860 154 1024 154 c 0,8,9
 1186 154 1186 154 1322 233 c 128,-1,10
 1458 312 1458 312 1536 447 c 128,-1,11
 1614 582 1614 582 1614 741 c 0,12,13
 1614 861 1614 861 1567.5 970 c 128,-1,14
 1521 1079 1521 1079 1442 1158 c 128,-1,15
 1363 1237 1363 1237 1253.5 1284 c 128,-1,16
 1144 1331 1144 1331 1024 1331 c 256,0,1
1124 934 m 256,17,18
 1124 1036 1124 1036 967 1036 c 2,19,-1
 932 1036 l 1,20,-1
 932 829 l 1,21,-1
 967 829 l 2,22,23
 1124 829 1124 829 1124 934 c 256,17,18
1354 934 m 0,24,25
 1354 844 1354 844 1299 789.5 c 128,-1,26
 1244 735 1244 735 1153 719 c 1,27,28
 1238 673 1238 673 1294 559 c 2,29,-1
 1405 338 l 1,30,-1
 1176 338 l 1,31,-1
 1069 551 l 2,32,33
 1037 617 1037 617 1007.5 655.5 c 128,-1,34
 978 694 978 694 944 694 c 2,35,-1
 932 694 l 1,36,-1
 932 338 l 1,37,-1
 719 338 l 1,38,-1
 719 1174 l 1,39,-1
 1004 1174 l 2,40,41
 1354 1174 1354 1174 1354 934 c 0,24,25
1024 1485 m 256,42,43
 1172 1485 1172 1485 1308.5 1427.5 c 128,-1,44
 1445 1370 1445 1370 1545.5 1272 c 128,-1,45
 1646 1174 1646 1174 1705.5 1035 c 128,-1,46
 1765 896 1765 896 1765 741 c 0,47,48
 1765 538 1765 538 1665 367 c 128,-1,49
 1565 196 1565 196 1395 98 c 128,-1,50
 1225 0 1225 0 1024 0 c 0,51,52
 876 0 876 0 739.5 57 c 128,-1,53
 603 114 603 114 502.5 212 c 128,-1,54
 402 310 402 310 342.5 448.5 c 128,-1,55
 283 587 283 587 283 741 c 0,56,57
 283 948 283 948 384 1119.5 c 128,-1,58
 485 1291 485 1291 655 1388 c 128,-1,59
 825 1485 825 1485 1024 1485 c 256,42,43
EndSplineSet
EndChar

StartChar: macron
Encoding: 175 175 114
Width: 1024
Flags: W
HStem: 1368 188<197 827>
VStem: 197 630<1368 1556>
LayerCount: 3
Fore
SplineSet
197 1556 m 1
 827 1556 l 1
 827 1368 l 1
 197 1368 l 1
 197 1556 l 1
EndSplineSet
Validated: 1
Layer: 2
SplineSet
197 1556 m 1,0,-1
 827 1556 l 1,1,-1
 827 1368 l 1,2,-1
 197 1368 l 1,3,-1
 197 1556 l 1,0,-1
EndSplineSet
EndChar

StartChar: degree
Encoding: 176 176 115
Width: 1024
Flags: W
HStem: 868 162<394.374 628.896> 1372 162<394.653 627.14>
VStem: 178 162<1083.62 1316.16> 684 160<1086.76 1313.87>
LayerCount: 3
Fore
SplineSet
684 1200 m 0
 684 1300 604 1372 512 1372 c 0
 412 1372 340 1294 340 1200 c 256
 340 1103 413 1030 512 1030 c 0
 612 1030 684 1107 684 1200 c 0
178 1200 m 256
 178 1390 322 1534 512 1534 c 0
 681 1534 844 1400 844 1200 c 0
 844 1001 684 868 510 868 c 0
 322 868 178 1009 178 1200 c 256
EndSplineSet
Validated: 1
Layer: 2
SplineSet
684 1200 m 0,0,1
 684 1274 684 1274 633 1323 c 128,-1,2
 582 1372 582 1372 512 1372 c 0,3,4
 438 1372 438 1372 389 1322 c 128,-1,5
 340 1272 340 1272 340 1200 c 0,6,7
 340 1127 340 1127 389 1078.5 c 128,-1,8
 438 1030 438 1030 512 1030 c 128,-1,9
 586 1030 586 1030 635 1079.5 c 128,-1,10
 684 1129 684 1129 684 1200 c 0,0,1
178 1200 m 256,11,12
 178 1342 178 1342 274 1438 c 128,-1,13
 370 1534 370 1534 512 1534 c 0,14,15
 644 1534 644 1534 744 1439.5 c 128,-1,16
 844 1345 844 1345 844 1200 c 128,-1,17
 844 1055 844 1055 744.5 961.5 c 128,-1,18
 645 868 645 868 510 868 c 0,19,20
 368 868 368 868 273 962.5 c 128,-1,21
 178 1057 178 1057 178 1200 c 256,11,12
EndSplineSet
EndChar

StartChar: plusminus
Encoding: 177 177 116
Width: 1716
Flags: W
HStem: 0 238<217 1499> 694 236<217 739 977 1499>
VStem: 739 238<340 694 930 1284>
LayerCount: 3
Fore
SplineSet
977 1284 m 1
 977 930 l 1
 1499 930 l 1
 1499 694 l 1
 977 694 l 1
 977 340 l 1
 739 340 l 1
 739 694 l 1
 217 694 l 1
 217 930 l 1
 739 930 l 1
 739 1284 l 1
 977 1284 l 1
217 238 m 1
 1499 238 l 1
 1499 0 l 1
 217 0 l 1
 217 238 l 1
EndSplineSet
Validated: 1
Layer: 2
SplineSet
977 1284 m 1,0,-1
 977 930 l 1,1,-1
 1499 930 l 1,2,-1
 1499 694 l 1,3,-1
 977 694 l 1,4,-1
 977 340 l 1,5,-1
 739 340 l 1,6,-1
 739 694 l 1,7,-1
 217 694 l 1,8,-1
 217 930 l 1,9,-1
 739 930 l 1,10,-1
 739 1284 l 1,11,-1
 977 1284 l 1,0,-1
217 238 m 1,12,-1
 1499 238 l 1,13,-1
 1499 0 l 1,14,-1
 217 0 l 1,15,-1
 217 238 l 1,12,-1
EndSplineSet
EndChar

StartChar: uni00B2
Encoding: 178 178 117
Width: 897
Flags: W
HStem: 668 168<412 782> 1372 148<211.543 510.28>
VStem: 535 247<1156.04 1345.52>
DStem2: 109 821 606 1001 0.761999 0.647578<240.599 590.271>
LayerCount: 3
Fore
SplineSet
440 1520 m 0
 627 1520 778 1446 778 1280 c 0
 778 1168 718 1097 606 1001 c 2
 412 836 l 1
 782 836 l 1
 782 668 l 1
 109 668 l 1
 109 821 l 1
 422 1087 l 1
 485 1142 535 1196 535 1260 c 0
 535 1327 482 1372 403 1372 c 0
 288 1372 173 1312 115 1280 c 1
 115 1466 l 1
 193 1490 310 1520 440 1520 c 0
EndSplineSet
Validated: 1
Layer: 2
SplineSet
440 1520 m 128,-1,1
 589 1520 589 1520 683.5 1459.5 c 128,-1,2
 778 1399 778 1399 778 1280 c 0,3,4
 778 1201 778 1201 737.5 1140 c 128,-1,5
 697 1079 697 1079 606 1001 c 2,6,-1
 412 836 l 1,7,-1
 782 836 l 1,8,-1
 782 668 l 1,9,-1
 109 668 l 1,10,-1
 109 821 l 1,11,-1
 422 1087 l 2,12,13
 477 1135 477 1135 506 1175.5 c 128,-1,14
 535 1216 535 1216 535 1260 c 0,15,16
 535 1310 535 1310 498.5 1341 c 128,-1,17
 462 1372 462 1372 403 1372 c 0,18,19
 282 1372 282 1372 115 1280 c 1,20,-1
 115 1466 l 1,21,0
 291 1520 291 1520 440 1520 c 128,-1,1
EndSplineSet
EndChar

StartChar: uni00B3
Encoding: 179 179 118
Width: 897
Flags: W
HStem: 653 146<149.041 506.487> 1047 137<248 502.028> 1372 148<140.327 501.09>
VStem: 520 244<1208.16 1351.75> 543 243<839.043 1009.38>
LayerCount: 3
Fore
SplineSet
764 1303 m 0xf0
 764 1193 680 1139 592 1120 c 1
 702 1098 786 1031 786 911 c 0
 786 710 607 653 387 653 c 0
 275 653 177 670 90 698 c 1
 90 872 l 1
 153 837 244 799 344 799 c 0
 448 799 543 830 543 922 c 0xe8
 543 997 491 1047 322 1047 c 2
 248 1047 l 1
 248 1184 l 1
 332 1184 l 2
 479 1184 520 1223 520 1282 c 0
 520 1354 446 1372 362 1372 c 0
 313 1372 233 1364 117 1319 c 1
 117 1485 l 1
 206 1508 306 1520 420 1520 c 0
 715 1520 764 1390 764 1303 c 0xf0
EndSplineSet
Validated: 1
Layer: 2
SplineSet
764 1303 m 0,0,1
 764 1226 764 1226 715 1181 c 128,-1,2
 666 1136 666 1136 592 1120 c 1,3,4
 680 1102 680 1102 733 1049.5 c 128,-1,5
 786 997 786 997 786 911 c 0,6,7
 786 653 786 653 387 653 c 0,8,9
 230 653 230 653 90 698 c 1,10,-1
 90 872 l 1,11,12
 221 799 221 799 344 799 c 0,13,14
 431 799 431 799 487 828.5 c 128,-1,15
 543 858 543 858 543 922 c 0,16,17
 543 982 543 982 492.5 1014.5 c 128,-1,18
 442 1047 442 1047 322 1047 c 2,19,-1
 248 1047 l 1,20,-1
 248 1184 l 1,21,-1
 332 1184 l 2,22,23
 436 1184 436 1184 478 1209 c 128,-1,24
 520 1234 520 1234 520 1282 c 0,25,26
 520 1372 520 1372 362 1372 c 0,27,28
 254 1372 254 1372 117 1319 c 1,29,-1
 117 1485 l 1,30,31
 252 1520 252 1520 420 1520 c 0,32,33
 505 1520 505 1520 569 1505.5 c 128,-1,34
 633 1491 633 1491 669 1469 c 128,-1,35
 705 1447 705 1447 727.5 1416.5 c 128,-1,36
 750 1386 750 1386 757 1359.5 c 128,-1,37
 764 1333 764 1333 764 1303 c 0,0,1
EndSplineSet
EndChar

StartChar: acute
Encoding: 180 180 119
Width: 1024
Flags: W
HStem: 1262 376
VStem: 365 565
LayerCount: 3
Fore
SplineSet
647 1638 m 1
 930 1638 l 1
 561 1262 l 1
 365 1262 l 1
 647 1638 l 1
EndSplineSet
Validated: 1
Layer: 2
SplineSet
647 1638 m 1,0,-1
 930 1638 l 1,1,-1
 561 1262 l 1,2,-1
 365 1262 l 1,3,-1
 647 1638 l 1,0,-1
EndSplineSet
EndChar

StartChar: micro
Encoding: 181 181 120
Width: 1507
Flags: W
HStem: -428 21G<174 535> -29 269<597.296 876.598 1184.5 1440.01> 1100 20G<174 535 940 1300>
VStem: 174 361<-428 66 304.844 1120> 940 360<305.181 1120>
LayerCount: 3
Fore
SplineSet
743 -29 m 0
 642 -29 574 3 535 66 c 1
 535 -428 l 1
 174 -428 l 1
 174 1120 l 1
 535 1120 l 1
 535 469 l 2
 535 298 616 240 737 240 c 0
 880 240 940 322 940 469 c 2
 940 1120 l 1
 1300 1120 l 1
 1300 371 l 2
 1300 295 1311 244 1374 244 c 0
 1383 244 1409 245 1442 266 c 1
 1442 16 l 1
 1390 -6 1326 -29 1251 -29 c 0
 1118 -29 1054 33 1014 129 c 1
 930 -12 813 -29 743 -29 c 0
EndSplineSet
Validated: 1
Layer: 2
SplineSet
743 -29 m 0,0,1
 594 -29 594 -29 535 66 c 1,2,-1
 535 -428 l 1,3,-1
 174 -428 l 1,4,-1
 174 1120 l 1,5,-1
 535 1120 l 1,6,-1
 535 469 l 2,7,8
 535 347 535 347 587.5 293.5 c 128,-1,9
 640 240 640 240 737 240 c 0,10,11
 940 240 940 240 940 469 c 2,12,-1
 940 1120 l 1,13,-1
 1300 1120 l 1,14,-1
 1300 371 l 2,15,16
 1300 307 1300 307 1315 275.5 c 128,-1,17
 1330 244 1330 244 1374 244 c 0,18,19
 1407 244 1407 244 1442 266 c 1,20,-1
 1442 16 l 1,21,22
 1336 -29 1336 -29 1251 -29 c 0,23,24
 1156 -29 1156 -29 1101 11.5 c 128,-1,25
 1046 52 1046 52 1014 129 c 1,26,27
 920 -29 920 -29 743 -29 c 0,0,1
EndSplineSet
EndChar

StartChar: paragraph
Encoding: 182 182 121
Width: 1303
Flags: W
HStem: 1346 147<745 934>
VStem: 129 616<875.869 1262.64> 555 190<-197 654.066> 934 190<-197 1346>
LayerCount: 3
Fore
SplineSet
129 1071 m 0xd0
 129 1324 314 1493 604 1493 c 2
 1124 1493 l 1
 1124 -197 l 1
 934 -197 l 1
 934 1346 l 1
 745 1346 l 1
 745 -197 l 1
 555 -197 l 1
 555 649 l 1xb0
 300 680 129 818 129 1071 c 0xd0
EndSplineSet
Validated: 1
Layer: 2
SplineSet
129 1071 m 0,0,1
 129 1262 129 1262 258 1377.5 c 128,-1,2
 387 1493 387 1493 604 1493 c 2,3,-1
 1124 1493 l 1,4,-1
 1124 -197 l 1,5,-1
 934 -197 l 1,6,-1
 934 1346 l 1,7,-1
 745 1346 l 1,8,-1
 745 -197 l 1,9,-1
 555 -197 l 1,10,-1
 555 649 l 1,11,12
 357 673 357 673 243 780 c 128,-1,13
 129 887 129 887 129 1071 c 0,0,1
EndSplineSet
EndChar

StartChar: periodcentered
Encoding: 183 183 122
Width: 778
Flags: W
HStem: 518 387<209 569>
VStem: 209 360<518 905>
LayerCount: 3
Fore
SplineSet
209 905 m 1
 569 905 l 1
 569 518 l 1
 209 518 l 1
 209 905 l 1
EndSplineSet
Validated: 1
Layer: 2
SplineSet
209 905 m 1,0,-1
 569 905 l 1,1,-1
 569 518 l 1,2,-1
 209 518 l 1,3,-1
 209 905 l 1,0,-1
EndSplineSet
EndChar

StartChar: cedilla
Encoding: 184 184 123
Width: 1024
Flags: W
HStem: -401 147<265.022 537.949> -20 20G<463 636>
VStem: 551 164<-236.973 -87.1476>
LayerCount: 3
Fore
SplineSet
551 -168 m 0
 551 -134 525 -83 463 0 c 1
 602 0 l 1
 670 -72 715 -145 715 -215 c 0
 715 -327 653 -401 465 -401 c 0
 384 -401 311 -387 262 -375 c 1
 262 -223 l 1
 342 -248 395 -254 428 -254 c 0
 496 -254 551 -228 551 -168 c 0
EndSplineSet
Validated: 1
Layer: 2
SplineSet
551 -168 m 0,0,1
 551 -118 551 -118 463 0 c 1,2,-1
 602 0 l 1,3,4
 715 -120 715 -120 715 -215 c 0,5,6
 715 -305 715 -305 657 -353 c 128,-1,7
 599 -401 599 -401 465 -401 c 0,8,9
 368 -401 368 -401 262 -375 c 1,10,-1
 262 -223 l 1,11,12
 361 -254 361 -254 428 -254 c 0,13,14
 482 -254 482 -254 516.5 -232.5 c 128,-1,15
 551 -211 551 -211 551 -168 c 0,0,1
EndSplineSet
EndChar

StartChar: uni0E01
Encoding: 3585 3585 124
Width: 1470
Flags: W
HStem: 0 21G<170 481 998 1309> 984 241<459.713 928.944>
VStem: 170 311<0 575.918> 998 311<0 911.631>
LayerCount: 3
Fore
SplineSet
728 1225 m 0
 1054 1225 1309 1142 1309 812 c 2
 1309 0 l 1
 998 0 l 1
 998 796 l 2
 998 909 933 984 732 984 c 0
 578 984 502 961 453 938 c 1
 644 847 l 1
 644 651 l 1
 500 596 481 522 481 456 c 2
 481 0 l 1
 170 0 l 1
 170 456 l 2
 170 561 226 680 324 735 c 1
 139 812 l 1
 139 1088 l 1
 276 1145 492 1225 728 1225 c 0
EndSplineSet
Validated: 1
Layer: 2
SplineSet
728 1225 m 0,0,1
 831 1225 831 1225 914 1214 c 128,-1,2
 997 1203 997 1203 1072.5 1174.5 c 128,-1,3
 1148 1146 1148 1146 1199 1100 c 128,-1,4
 1250 1054 1250 1054 1279.5 981 c 128,-1,5
 1309 908 1309 908 1309 812 c 2,6,-1
 1309 0 l 1,7,-1
 998 0 l 1,8,-1
 998 796 l 2,9,10
 998 887 998 887 936.5 935.5 c 128,-1,11
 875 984 875 984 732 984 c 0,12,13
 551 984 551 984 453 938 c 1,14,-1
 644 847 l 1,15,-1
 644 651 l 1,16,17
 592 631 592 631 558 607 c 128,-1,18
 524 583 524 583 508 556.5 c 128,-1,19
 492 530 492 530 486.5 507 c 128,-1,20
 481 484 481 484 481 456 c 2,21,-1
 481 0 l 1,22,-1
 170 0 l 1,23,-1
 170 456 l 2,24,25
 170 538 170 538 211.5 616.5 c 128,-1,26
 253 695 253 695 324 735 c 1,27,-1
 139 812 l 1,28,-1
 139 1088 l 1,29,30
 468 1225 468 1225 728 1225 c 0,0,1
EndSplineSet
EndChar

StartChar: uni0E02
Encoding: 3586 3586 125
Width: 1380
Flags: W
HStem: 0 222<574 855.177> 712 137<190.127 328.338> 996 219<190.767 416.841>
VStem: 39 144<856.471 987.476> 264 310<222 541.713> 336 150<855.675 990.017> 521 237<773.763 992.243> 878 312<236.432 1204>
LayerCount: 3
Fore
SplineSet
260 996 m 0xf5
 221 996 183 971 183 920 c 0
 183 874 222 849 260 849 c 0
 304 849 336 879 336 924 c 0
 336 972 298 996 260 996 c 0xf5
264 406 m 2xf9
 264 648 521 719 521 897 c 0
 521 946 499 984 455 1009 c 1
 475 983 486 951 486 913 c 0
 486 853 434 712 260 712 c 0
 132 712 39 808 39 926 c 0
 39 1118 214 1215 375 1215 c 0
 517 1215 758 1145 758 864 c 0xf7
 758 676 574 591 574 361 c 2
 574 222 l 1
 775 222 l 2
 844 222 878 258 878 326 c 2
 878 1204 l 1
 1190 1204 l 1
 1190 320 l 2
 1190 107 1049 0 768 0 c 2
 264 0 l 1
 264 406 l 2xf9
EndSplineSet
Validated: 1
Layer: 2
SplineSet
260 996 m 0,0,1
 228 996 228 996 205.5 976 c 128,-1,2
 183 956 183 956 183 920 c 0,3,4
 183 887 183 887 206 868 c 128,-1,5
 229 849 229 849 260 849 c 0,6,7
 293 849 293 849 314.5 870 c 128,-1,8
 336 891 336 891 336 924 c 0,9,10
 336 958 336 958 313.5 977 c 128,-1,11
 291 996 291 996 260 996 c 0,0,1
264 406 m 2,12,13
 264 463 264 463 283 514 c 128,-1,14
 302 565 302 565 330.5 601 c 128,-1,15
 359 637 359 637 392.5 675 c 128,-1,16
 426 713 426 713 454.5 744 c 128,-1,17
 483 775 483 775 502 815.5 c 128,-1,18
 521 856 521 856 521 897 c 0,19,20
 521 972 521 972 455 1009 c 1,21,22
 486 969 486 969 486 913 c 0,23,24
 486 887 486 887 474.5 855.5 c 128,-1,25
 463 824 463 824 439 790.5 c 128,-1,26
 415 757 415 757 368 734.5 c 128,-1,27
 321 712 321 712 260 712 c 0,28,29
 165 712 165 712 102 774 c 128,-1,30
 39 836 39 836 39 926 c 0,31,32
 39 995 39 995 68.5 1051.5 c 128,-1,33
 98 1108 98 1108 146.5 1143 c 128,-1,34
 195 1178 195 1178 254 1196.5 c 128,-1,35
 313 1215 313 1215 375 1215 c 0,36,37
 422 1215 422 1215 470 1206 c 128,-1,38
 518 1197 518 1197 571 1172 c 128,-1,39
 624 1147 624 1147 664.5 1109.5 c 128,-1,40
 705 1072 705 1072 731.5 1008 c 128,-1,41
 758 944 758 944 758 864 c 0,42,43
 758 813 758 813 739 763 c 128,-1,44
 720 713 720 713 693 671 c 128,-1,45
 666 629 666 629 639 584.5 c 128,-1,46
 612 540 612 540 593 482 c 128,-1,47
 574 424 574 424 574 361 c 2,48,-1
 574 222 l 1,49,-1
 775 222 l 2,50,51
 878 222 878 222 878 326 c 2,52,-1
 878 1204 l 1,53,-1
 1190 1204 l 1,54,-1
 1190 320 l 2,55,56
 1190 0 1190 0 768 0 c 2,57,-1
 264 0 l 1,58,-1
 264 406 l 2,12,13
EndSplineSet
EndChar

StartChar: uni0E03
Encoding: 3587 3587 126
Width: 1530
Flags: W
HStem: 0 222<721 1007.46> 605 136<190.295 327.157> 1195 9G<307.5 380.36 595.888 714.5 1026 1336>
VStem: 38 144<749.047 881.194> 335 145<748.383 882.745> 411 310<222 539.95> 660 254<791.36 999.13> 1026 310<242.017 1204>
LayerCount: 3
Fore
SplineSet
626 1215 m 1xfb
 803 1192 914 1063 914 905 c 0xfb
 914 746 767 572 738 481 c 0
 727 445 721 405 721 361 c 2
 721 222 l 1
 923 222 l 2
 992 222 1026 258 1026 326 c 2
 1026 1204 l 1
 1336 1204 l 1
 1336 305 l 2
 1336 102 1192 0 924 0 c 2
 411 0 l 1
 411 409 l 2xf5
 411 455 413 610 588 763 c 0
 634 803 660 853 660 917 c 0
 660 970 642 998 593 1008 c 1
 490 970 l 1
 330 1051 l 1
 284 1032 l 1
 423 1012 480 895 480 798 c 0
 480 715 415 605 260 605 c 0
 171 605 38 655 38 853 c 0
 38 1143 267 1209 348 1215 c 1
 492 1126 l 1
 626 1215 l 1xfb
335 817 m 0
 335 857 304 890 259 890 c 0
 218 890 182 858 182 814 c 0
 182 774 217 741 260 741 c 0
 300 741 335 773 335 817 c 0
EndSplineSet
Validated: 1
Layer: 2
SplineSet
626 1215 m 1,0,1
 757 1198 757 1198 835.5 1111.5 c 128,-1,2
 914 1025 914 1025 914 905 c 0,3,4
 914 835 914 835 877 751 c 128,-1,5
 840 667 840 667 794 589.5 c 128,-1,6
 748 512 748 512 738 481 c 0,7,8
 721 425 721 425 721 361 c 2,9,-1
 721 222 l 1,10,-1
 923 222 l 2,11,12
 1026 222 1026 222 1026 326 c 2,13,-1
 1026 1204 l 1,14,-1
 1336 1204 l 1,15,-1
 1336 305 l 2,16,17
 1336 154 1336 154 1231 77 c 128,-1,18
 1126 0 1126 0 924 0 c 2,19,-1
 411 0 l 1,20,-1
 411 409 l 2,21,22
 411 608 411 608 588 763 c 0,23,24
 660 826 660 826 660 917 c 0,25,26
 660 957 660 957 644.5 979 c 128,-1,27
 629 1001 629 1001 593 1008 c 1,28,-1
 490 970 l 1,29,-1
 330 1051 l 1,30,-1
 284 1032 l 1,31,32
 381 1018 381 1018 430.5 949 c 128,-1,33
 480 880 480 880 480 798 c 0,34,35
 480 726 480 726 423.5 665.5 c 128,-1,36
 367 605 367 605 260 605 c 0,37,38
 223 605 223 605 187 616.5 c 128,-1,39
 151 628 151 628 116 654 c 128,-1,40
 81 680 81 680 59.5 731.5 c 128,-1,41
 38 783 38 783 38 853 c 0,42,43
 38 935 38 935 63 1001 c 128,-1,44
 88 1067 88 1067 123.5 1104.5 c 128,-1,45
 159 1142 159 1142 204.5 1168 c 128,-1,46
 250 1194 250 1194 284.5 1203.5 c 128,-1,47
 319 1213 319 1213 348 1215 c 1,48,-1
 492 1126 l 1,49,-1
 626 1215 l 1,0,1
335 817 m 0,50,51
 335 848 335 848 313.5 869 c 128,-1,52
 292 890 292 890 259 890 c 0,53,54
 228 890 228 890 205 868 c 128,-1,55
 182 846 182 846 182 814 c 0,56,57
 182 784 182 784 205 762.5 c 128,-1,58
 228 741 228 741 260 741 c 0,59,60
 291 741 291 741 313 763 c 128,-1,61
 335 785 335 785 335 817 c 0,50,51
EndSplineSet
EndChar

StartChar: uni0E04
Encoding: 3588 3588 127
Width: 1570
Flags: W
HStem: 0 21G<176.426 488 1079 1391> 390 127<710.031 849.408> 666 139<711.214 848.223> 984 239<597.575 959.688>
VStem: 156 319<577 874.288> 177 311<0 272.537> 856 143<524.453 658.301> 1079 312<0 869.535>
LayerCount: 3
Fore
SplineSet
475 577 m 1xfb
 523 692 631 805 778 805 c 0
 883 805 999 717 999 590 c 0
 999 476 890 390 787 390 c 0
 726 390 663 406 624 453 c 1
 502 251 488 142 488 0 c 1
 177 0 l 1xf7
 156 732 l 1
 156 751 l 2
 156 1114 475 1223 786 1223 c 0
 1134 1223 1391 1053 1391 729 c 2
 1391 0 l 1
 1079 0 l 1
 1079 738 l 2
 1079 885 966 984 783 984 c 0
 595 984 475 884 475 735 c 2
 475 577 l 1xfb
704 590 m 0
 704 546 739 517 779 517 c 24
 822 517 856 551 856 590 c 0
 856 634 822 666 780 666 c 0
 736 666 704 632 704 590 c 0
EndSplineSet
Validated: 1
Layer: 2
SplineSet
475 577 m 1,0,1
 515 672 515 672 595 738.5 c 128,-1,2
 675 805 675 805 778 805 c 0,3,4
 861 805 861 805 930 743 c 128,-1,5
 999 681 999 681 999 590 c 0,6,7
 999 507 999 507 933 448.5 c 128,-1,8
 867 390 867 390 787 390 c 0,9,10
 676 390 676 390 624 453 c 1,11,12
 539 313 539 313 513.5 217 c 128,-1,13
 488 121 488 121 488 0 c 1,14,-1
 177 0 l 1,15,-1
 156 732 l 1,16,-1
 156 751 l 2,17,18
 156 856 156 856 192 939 c 128,-1,19
 228 1022 228 1022 287.5 1074.5 c 128,-1,20
 347 1127 347 1127 430 1161 c 128,-1,21
 513 1195 513 1195 600.5 1209 c 128,-1,22
 688 1223 688 1223 786 1223 c 0,23,24
 962 1223 962 1223 1097 1168 c 128,-1,25
 1232 1113 1232 1113 1311.5 1000 c 128,-1,26
 1391 887 1391 887 1391 729 c 2,27,-1
 1391 0 l 1,28,-1
 1079 0 l 1,29,-1
 1079 738 l 2,30,31
 1079 849 1079 849 999 916.5 c 128,-1,32
 919 984 919 984 783 984 c 0,33,34
 643 984 643 984 559 915.5 c 128,-1,35
 475 847 475 847 475 735 c 2,36,-1
 475 577 l 1,0,1
704 590 m 128,-1,38
 704 558 704 558 726 537.5 c 128,-1,39
 748 517 748 517 779 517 c 0,40,41
 811 517 811 517 833.5 538.5 c 128,-1,42
 856 560 856 560 856 590 c 0,43,44
 856 623 856 623 834 644.5 c 128,-1,45
 812 666 812 666 780 666 c 0,46,47
 747 666 747 666 725.5 644 c 128,-1,37
 704 622 704 622 704 590 c 128,-1,38
EndSplineSet
EndChar

StartChar: uni0E05
Encoding: 3589 3589 128
Width: 1570
Flags: W
HStem: 0 21G<176.451 488 1080 1392> 390 127<710.031 849.408> 666 139<711.017 847.823> 1198 20G<506 593.161 990.277 1132.5>
VStem: 156 319<576 892.531> 177 311<0 272.537> 856 143<524.453 658.487> 1080 312<0 890.188>
LayerCount: 3
Fore
SplineSet
704 590 m 0xf3
 704 546 739 517 779 517 c 24
 822 517 856 551 856 590 c 0
 856 634 822 666 780 666 c 0
 736 666 704 632 704 590 c 0xf3
1024 1218 m 1
 1241 1164 1392 1011 1392 739 c 2
 1392 0 l 1
 1080 0 l 1
 1080 748 l 2
 1080 870 1016 931 978 952 c 1
 837 868 l 1
 746 868 l 1
 589 961 l 1
 482 888 475 796 475 745 c 2
 475 576 l 1xfb
 522 691 630 805 778 805 c 0
 881 805 999 718 999 590 c 0
 999 476 890 390 787 390 c 0
 726 390 663 406 624 453 c 1
 502 251 488 142 488 0 c 1
 177 0 l 1xf7
 156 765 l 1xfb
 156 908 195 1013 274 1080 c 0
 358 1150 453 1196 559 1218 c 1
 793 1081 l 1
 1024 1218 l 1
EndSplineSet
Validated: 1
Layer: 2
SplineSet
704 590 m 128,-1,1
 704 558 704 558 726 537.5 c 128,-1,2
 748 517 748 517 779 517 c 0,3,4
 811 517 811 517 833.5 538.5 c 128,-1,5
 856 560 856 560 856 590 c 0,6,7
 856 623 856 623 834 644.5 c 128,-1,8
 812 666 812 666 780 666 c 0,9,10
 747 666 747 666 725.5 644 c 128,-1,0
 704 622 704 622 704 590 c 128,-1,1
1024 1218 m 1,11,12
 1195 1176 1195 1176 1293.5 1055.5 c 128,-1,13
 1392 935 1392 935 1392 739 c 2,14,-1
 1392 0 l 1,15,-1
 1080 0 l 1,16,-1
 1080 748 l 2,17,18
 1080 829 1080 829 1048 880 c 128,-1,19
 1016 931 1016 931 978 952 c 1,20,-1
 837 868 l 1,21,-1
 746 868 l 1,22,-1
 589 961 l 1,23,24
 475 883 475 883 475 745 c 2,25,-1
 475 576 l 1,26,27
 514 671 514 671 594 738 c 128,-1,28
 674 805 674 805 778 805 c 0,29,30
 860 805 860 805 929.5 743 c 128,-1,31
 999 681 999 681 999 590 c 0,32,33
 999 507 999 507 933 448.5 c 128,-1,34
 867 390 867 390 787 390 c 0,35,36
 676 390 676 390 624 453 c 1,37,38
 539 313 539 313 513.5 217 c 128,-1,39
 488 121 488 121 488 0 c 1,40,-1
 177 0 l 1,41,-1
 156 765 l 1,42,43
 156 980 156 980 274 1080 c 0,44,45
 400 1185 400 1185 559 1218 c 1,46,-1
 793 1081 l 1,47,-1
 1024 1218 l 1,11,12
EndSplineSet
EndChar

StartChar: uni0E06
Encoding: 3590 3590 129
Width: 1600
Flags: W
HStem: -11 216<381.915 532.955> 605 137<207.473 347.596> 1195 9G<327.5 400.36 615.888 726.5 1085 1411>
VStem: 58 144<749.187 881.194> 148 223<217.369 361.055> 355 145<748.563 882.9> 543 234<219.834 314.123> 680 265<804.091 999.087> 1085 326<0 66.457 336 1204>
LayerCount: 3
Fore
SplineSet
646 1215 m 1xf580
 807 1195 945 1073 945 910 c 0xf580
 945 841 918 724 841 645 c 0
 806 608 784 573 776 540 c 1
 894 508 1059 399 1085 336 c 1
 1085 1204 l 1
 1411 1204 l 1
 1411 0 l 1
 1080 0 l 1
 1021 128 890 267 777 315 c 1
 777 265 l 2
 777 99 648 -11 468 -11 c 0
 276 -11 148 104 148 284 c 0xea80
 148 384 201 574 473 588 c 1
 537 778 680 767 680 917 c 0
 680 970 662 998 613 1008 c 1
 510 970 l 1
 350 1051 l 1
 304 1032 l 1
 443 1012 500 895 500 798 c 0
 500 715 435 605 280 605 c 0
 191 605 58 655 58 853 c 0
 58 1143 287 1209 368 1215 c 1
 512 1126 l 1
 646 1215 l 1xf580
279 890 m 2
 238 890 202 858 202 814 c 0
 202 767 241 742 279 742 c 0
 321 742 355 770 355 817 c 0
 355 859 320 890 282 890 c 2
 279 890 l 2
371 288 m 0xea80
 371 238 412 205 458 205 c 0
 506 205 543 244 543 288 c 0
 543 332 507 373 457 373 c 0
 407 373 371 333 371 288 c 0xea80
EndSplineSet
Validated: 1
Layer: 2
SplineSet
646 1215 m 1,0,1
 771 1200 771 1200 858 1114.5 c 128,-1,2
 945 1029 945 1029 945 910 c 0,3,4
 945 849 945 849 919.5 774 c 128,-1,5
 894 699 894 699 841 645 c 0,6,7
 788 589 788 589 776 540 c 1,8,9
 864 516 864 516 964.5 449.5 c 128,-1,10
 1065 383 1065 383 1085 336 c 1,11,-1
 1085 1204 l 1,12,-1
 1411 1204 l 1,13,-1
 1411 0 l 1,14,-1
 1080 0 l 1,15,16
 1035 97 1035 97 948 188 c 128,-1,17
 861 279 861 279 777 315 c 1,18,-1
 777 265 l 2,19,20
 777 141 777 141 690.5 65 c 128,-1,21
 604 -11 604 -11 468 -11 c 0,22,23
 323 -11 323 -11 235.5 69.5 c 128,-1,24
 148 150 148 150 148 284 c 0,25,26
 148 318 148 318 155.5 353 c 128,-1,27
 163 388 163 388 184.5 430 c 128,-1,28
 206 472 206 472 240.5 504.5 c 128,-1,29
 275 537 275 537 335 560.5 c 128,-1,30
 395 584 395 584 473 588 c 1,31,32
 490 640 490 640 518.5 680 c 128,-1,33
 547 720 547 720 574 743.5 c 128,-1,34
 601 767 601 767 625.5 790 c 128,-1,35
 650 813 650 813 665 844 c 128,-1,36
 680 875 680 875 680 917 c 0,37,38
 680 957 680 957 664.5 979 c 128,-1,39
 649 1001 649 1001 613 1008 c 1,40,-1
 510 970 l 1,41,-1
 350 1051 l 1,42,-1
 304 1032 l 1,43,44
 401 1018 401 1018 450.5 949 c 128,-1,45
 500 880 500 880 500 798 c 0,46,47
 500 726 500 726 443.5 665.5 c 128,-1,48
 387 605 387 605 280 605 c 0,49,50
 243 605 243 605 207 616.5 c 128,-1,51
 171 628 171 628 136 654 c 128,-1,52
 101 680 101 680 79.5 731.5 c 128,-1,53
 58 783 58 783 58 853 c 0,54,55
 58 935 58 935 83 1001 c 128,-1,56
 108 1067 108 1067 143.5 1104.5 c 128,-1,57
 179 1142 179 1142 224.5 1168 c 128,-1,58
 270 1194 270 1194 304.5 1203.5 c 128,-1,59
 339 1213 339 1213 368 1215 c 1,60,-1
 512 1126 l 1,61,-1
 646 1215 l 1,0,1
279 890 m 2,62,63
 248 890 248 890 225 868 c 128,-1,64
 202 846 202 846 202 814 c 0,65,66
 202 781 202 781 225 761.5 c 128,-1,67
 248 742 248 742 279 742 c 0,68,69
 312 742 312 742 333.5 762.5 c 128,-1,70
 355 783 355 783 355 817 c 0,71,72
 355 848 355 848 333 869 c 128,-1,73
 311 890 311 890 282 890 c 2,74,-1
 279 890 l 2,62,63
371 288 m 0,75,76
 371 252 371 252 396.5 228.5 c 128,-1,77
 422 205 422 205 458 205 c 128,-1,78
 494 205 494 205 518.5 229.5 c 128,-1,79
 543 254 543 254 543 288 c 128,-1,80
 543 322 543 322 518.5 347.5 c 128,-1,81
 494 373 494 373 457 373 c 128,-1,82
 420 373 420 373 395.5 348 c 128,-1,83
 371 323 371 323 371 288 c 0,75,76
EndSplineSet
EndChar

StartChar: uni0E07
Encoding: 3591 3591 130
Width: 1130
Flags: W
HStem: 0 21G<533 941> 744 146<490.056 625.687> 1039 176<491.185 624.385>
VStem: 324 160<896.31 1031.75> 626 315<371 752 893.395 1028.87>
LayerCount: 3
Back
SplineSet
372 960 m 4
 372 1029.33 396.667 1088.67 446 1138 c 0
 495.333 1187.33 554.667 1212 624 1212 c 0
 693.333 1212 752.667 1187.33 802 1138 c 0
 851.333 1088.67 876 1029.33 876 960 c 0
 876 890.667 851.333 831.333 802 782 c 0
 752.667 732.667 693.333 708 624 708 c 0
 554.667 708 495.333 732.667 446 782 c 0
 396.667 831.333 372 890.667 372 960 c 4
548 962 m 4
 548 982.667 555.167 1000.17 569.5 1014.5 c 0
 583.833 1028.83 601.333 1036 622 1036 c 0
 642.667 1036 660.167 1028.83 674.5 1014.5 c 0
 688.833 1000.17 696 982.667 696 962 c 0
 696 941.333 688.833 923.833 674.5 909.5 c 0
 660.167 895.167 642.667 888 622 888 c 0
 601.333 888 583.833 895.167 569.5 909.5 c 0
 555.167 923.833 548 941.333 548 962 c 4
EndSplineSet
Fore
SplineSet
484 963 m 3
 484 919 519 890 559 890 c 27
 602 890 636 924 636 963 c 3
 636 1004 605 1039 560 1039 c 3
 515 1039 484 1004 484 963 c 3
324 963 m 3
 324 1070 379 1215 598 1215 c 3
 834 1215 941 1046 941 822 c 2
 941 0 l 25
 574 0 l 1
 492 109 283 381 39 570 c 1
 103 761 l 1
 232 696 489 526 626 371 c 1
 626 752 l 1
 615 746 589 744 558 744 c 3
 435 744 324 839 324 963 c 3
EndSplineSet
Validated: 1
Layer: 2
SplineSet
484 963 m 3,0,1
 484 931 484 931 506 910.5 c 128,-1,2
 528 890 528 890 559 890 c 0,3,4
 591 890 591 890 613.5 911.5 c 128,-1,5
 636 933 636 933 636 963 c 0,6,7
 636 994 636 994 614.5 1016.5 c 128,-1,8
 593 1039 593 1039 560 1039 c 128,-1,9
 527 1039 527 1039 505.5 1016.5 c 128,-1,10
 484 994 484 994 484 963 c 3,0,1
324 963 m 3,11,12
 324 998 324 998 331 1030.5 c 128,-1,13
 338 1063 338 1063 357.5 1097.5 c 128,-1,14
 377 1132 377 1132 406.5 1157.5 c 128,-1,15
 436 1183 436 1183 485.5 1199 c 128,-1,16
 535 1215 535 1215 598 1215 c 0,17,18
 768 1215 768 1215 854.5 1107 c 128,-1,19
 941 999 941 999 941 822 c 2,20,-1
 941 0 l 1,21,-1
 574 0 l 1,22,23
 293 373 293 373 39 570 c 1,24,-1
 103 761 l 1,25,26
 217 704 217 704 374.5 590.5 c 128,-1,27
 532 477 532 477 626 371 c 1,28,-1
 626 752 l 1,29,30
 611 744 611 744 558 744 c 0,31,32
 464 744 464 744 394 808 c 128,-1,33
 324 872 324 872 324 963 c 3,11,12
EndSplineSet
EndChar

StartChar: uni0E08
Encoding: 3592 3592 131
Width: 1360
Flags: W
HStem: 0 21G<833.5 1163> 364 144<393.325 533.16> 657 144<394.84 533.154> 994 240<271.825 768.362>
VStem: 244 144<514.825 649.075> 852 311<0 182.784 518 919.209>
LayerCount: 3
Fore
SplineSet
59 1095 m 1
 265 1220 430 1234 538 1234 c 0
 717 1234 866 1202 985 1138 c 0
 1104 1075 1163 958 1163 789 c 10
 1163 0 l 1
 852 0 l 1
 815 214 747 367 649 460 c 1
 629 411 537 364 468 364 c 0
 350 364 244 472 244 564 c 0
 244 749 387 801 482 801 c 0
 576 801 655 772 718 714 c 0
 781 655 826 590 852 518 c 1
 852 806 l 2
 852 956 701 994 538 994 c 0
 249 994 103 861 59 822 c 1
 59 1095 l 1
388 581 m 0
 388 537 423 508 463 508 c 24
 506 508 540 542 540 581 c 0
 540 622 509 657 464 657 c 0
 419 657 388 622 388 581 c 0
EndSplineSet
Validated: 1
Layer: 2
SplineSet
59 1095 m 1,0,1
 288 1234 288 1234 538 1234 c 0,2,3
 806.5 1234 806.5 1234 985 1138 c 0,4,5
 1163 1044 1163 1044 1163 789 c 2,6,-1
 1163 0 l 1,7,-1
 852 0 l 1,8,9
 797 320 797 320 649 460 c 1,10,11
 634 424 634 424 577 394 c 128,-1,12
 520 364 520 364 468 364 c 0,13,14
 382 364 382 364 313 428.5 c 128,-1,15
 244 493 244 493 244 564 c 0,16,17
 244 630 244 630 267 678.5 c 128,-1,18
 290 727 290 727 328 752.5 c 128,-1,19
 366 778 366 778 404.5 789.5 c 128,-1,20
 443 801 443 801 482 801 c 0,21,22
 624 801 624 801 718 714 c 0,23,24
 814 625 814 625 852 518 c 1,25,-1
 852 806 l 2,26,27
 852 994 852 994 538 994 c 0,28,29
 253 994 253 994 59 822 c 1,30,-1
 59 1095 l 1,0,1
388 581 m 0,31,32
 388 549 388 549 410 528.5 c 128,-1,33
 432 508 432 508 463 508 c 0,34,35
 495 508 495 508 517.5 529.5 c 128,-1,36
 540 551 540 551 540 581 c 0,37,38
 540 612 540 612 518.5 634.5 c 128,-1,39
 497 657 497 657 464 657 c 128,-1,40
 431 657 431 657 409.5 634.5 c 128,-1,41
 388 612 388 612 388 581 c 0,31,32
EndSplineSet
EndChar

StartChar: uni0E09
Encoding: 3593 3593 132
Width: 1470
Flags: W
HStem: -10 174<1094.72 1233.43> 324 146<233.056 368.687> 619 176<234.27 367.483> 994 241<378.069 852.343>
VStem: 67 160<476.31 611.676> 369 306<305 332 473.395 603.105> 932 311<507 918.765> 1241 193<172.258 304.547>
AnchorPoint: "AboveBase" 1206 1284 basechar 0
LayerCount: 3
Fore
SplineSet
227 543 m 0xfc
 227 499 262 470 302 470 c 24
 345 470 379 504 379 543 c 0
 379 587 343 619 303 619 c 0
 259 619 227 583 227 543 c 0xfc
1243 507 m 1xfe
 1292 507 1434 419 1434 251 c 0xfd
 1434 163 1393 -10 1164 -10 c 0
 1021 -10 932 55 897 185 c 1
 810 157 736 96 675 0 c 1
 369 0 l 1
 369 332 l 1
 358 326 332 324 301 324 c 0
 178 324 67 419 67 543 c 0
 67 650 122 795 341 795 c 0
 580 795 675 560 675 432 c 2
 675 305 l 1
 746 370 831 425 932 471 c 1
 932 806 l 2
 932 859 910 903 867 940 c 0
 824 976 744 994 625 994 c 0
 560 994 381 990 119 822 c 1
 119 1095 l 1
 271 1179 452 1235 675 1235 c 0
 1090 1235 1243 1057 1243 789 c 2
 1243 507 l 1xfe
1089 237 m 0
 1089 193 1124 164 1164 164 c 24
 1207 164 1241 198 1241 237 c 0
 1241 281 1205 313 1165 313 c 0
 1121 313 1089 277 1089 237 c 0
EndSplineSet
Validated: 1
Layer: 2
SplineSet
227 543 m 0,0,1
 227 511 227 511 249 490.5 c 128,-1,2
 271 470 271 470 302 470 c 0,3,4
 334 470 334 470 356.5 491.5 c 128,-1,5
 379 513 379 513 379 543 c 0,6,7
 379 575 379 575 356.5 597 c 128,-1,8
 334 619 334 619 303 619 c 0,9,10
 271 619 271 619 249 596.5 c 128,-1,11
 227 574 227 574 227 543 c 0,0,1
1243 507 m 1,12,13
 1263 507 1263 507 1294 490 c 128,-1,14
 1325 473 1325 473 1357 442.5 c 128,-1,15
 1389 412 1389 412 1411.5 361 c 128,-1,16
 1434 310 1434 310 1434 251 c 0,17,18
 1434 221 1434 221 1428.5 190 c 128,-1,19
 1423 159 1423 159 1405 121.5 c 128,-1,20
 1387 84 1387 84 1358.5 56 c 128,-1,21
 1330 28 1330 28 1279.5 9 c 128,-1,22
 1229 -10 1229 -10 1164 -10 c 0,23,24
 949.5 -10 949.5 -10 897 185 c 1,25,26
 766 143 766 143 675 0 c 1,27,-1
 369 0 l 1,28,-1
 369 332 l 1,29,30
 354 324 354 324 301 324 c 0,31,32
 207 324 207 324 137 388 c 128,-1,33
 67 452 67 452 67 543 c 0,34,35
 67 578 67 578 74 610.5 c 128,-1,36
 81 643 81 643 100.5 677.5 c 128,-1,37
 120 712 120 712 149.5 737.5 c 128,-1,38
 179 763 179 763 228.5 779 c 128,-1,39
 278 795 278 795 341 795 c 0,40,41
 409 795 409 795 467 769.5 c 128,-1,42
 525 744 525 744 562.5 704 c 128,-1,43
 600 664 600 664 626 614.5 c 128,-1,44
 652 565 652 565 663.5 519 c 128,-1,45
 675 473 675 473 675 432 c 2,46,-1
 675 305 l 1,47,48
 781 402 781 402 932 471 c 1,49,-1
 932 806 l 2,50,51
 932 884 932 884 867 940 c 0,52,53
 802 994 802 994 625 994 c 0,54,55
 387 994 387 994 119 822 c 1,56,-1
 119 1095 l 1,57,58
 372 1235 372 1235 675 1235 c 0,59,60
 1243 1235 1243 1235 1243 789 c 2,61,-1
 1243 507 l 1,12,13
1089 237 m 0,62,63
 1089 205 1089 205 1111 184.5 c 128,-1,64
 1133 164 1133 164 1164 164 c 0,65,66
 1196 164 1196 164 1218.5 185.5 c 128,-1,67
 1241 207 1241 207 1241 237 c 0,68,69
 1241 269 1241 269 1218.5 291 c 128,-1,70
 1196 313 1196 313 1165 313 c 0,71,72
 1133 313 1133 313 1111 290.5 c 128,-1,73
 1089 268 1089 268 1089 237 c 0,62,63
EndSplineSet
EndChar

StartChar: uni0E0A
Encoding: 3594 3594 133
Width: 1420
Flags: W
HStem: 0 222<574 894.461> 712 136<190.611 327.749> 996 219<190.517 438.87>
VStem: 39 144<855.976 987.692> 264 310<222 541.713> 336 150<855.715 990.017> 521 237<773.763 992.243> 911 312<234.599 722.862> 968 330<1165.12 1373>
LayerCount: 3
Fore
SplineSet
183 923 m 0xf4
 183 886 209 848 260 848 c 0
 301 848 336 880 336 924 c 0
 336 972 298 996 260 996 c 0
 209 996 183 960 183 923 c 0xf4
758 864 m 0xf6
 758 676 574 591 574 361 c 2
 574 222 l 1
 808 222 l 2
 877 222 911 258 911 326 c 2
 911 608 l 2xf9
 911 699 869 750 784 761 c 1
 784 1042 l 1
 901 1066 968 1206 968 1373 c 1
 1298 1373 l 1xf080
 1298 1043 1111 920 1056 894 c 1
 1140 857 1223 742 1223 614 c 2
 1223 306 l 2
 1223 102 1079 0 811 0 c 2
 264 0 l 1
 264 406 l 2xf9
 264 648 521 719 521 897 c 0
 521 946 499 984 455 1009 c 1
 475 983 486 951 486 913 c 0
 486 853 434 712 260 712 c 0
 132 712 39 808 39 926 c 0
 39 1118 214 1215 375 1215 c 0
 517 1215 758 1145 758 864 c 0xf6
EndSplineSet
Validated: 1
Layer: 2
SplineSet
183 923 m 128,-1,1
 183 893 183 893 203.5 870.5 c 128,-1,2
 224 848 224 848 260 848 c 0,3,4
 291 848 291 848 313.5 870 c 128,-1,5
 336 892 336 892 336 924 c 0,6,7
 336 958 336 958 313.5 977 c 128,-1,8
 291 996 291 996 260 996 c 0,9,10
 224 996 224 996 203.5 974.5 c 128,-1,0
 183 953 183 953 183 923 c 128,-1,1
758 864 m 0,11,12
 758 813 758 813 739 763 c 128,-1,13
 720 713 720 713 693 671 c 128,-1,14
 666 629 666 629 639 584.5 c 128,-1,15
 612 540 612 540 593 482 c 128,-1,16
 574 424 574 424 574 361 c 2,17,-1
 574 222 l 1,18,-1
 808 222 l 2,19,20
 911 222 911 222 911 326 c 2,21,-1
 911 608 l 2,22,23
 911 745 911 745 784 761 c 1,24,-1
 784 1042 l 1,25,26
 870 1060 870 1060 919 1152 c 128,-1,27
 968 1244 968 1244 968 1373 c 1,28,-1
 1298 1373 l 1,29,30
 1298 1280 1298 1280 1277.5 1199.5 c 128,-1,31
 1257 1119 1257 1119 1229 1069 c 128,-1,32
 1201 1019 1201 1019 1164.5 979 c 128,-1,33
 1128 939 1128 939 1103 921.5 c 128,-1,34
 1078 904 1078 904 1056 894 c 1,35,36
 1123 865 1123 865 1173 785.5 c 128,-1,37
 1223 706 1223 706 1223 614 c 2,38,-1
 1223 306 l 2,39,40
 1223 154 1223 154 1118 77 c 128,-1,41
 1013 0 1013 0 811 0 c 2,42,-1
 264 0 l 1,43,-1
 264 406 l 2,44,45
 264 463 264 463 283 514 c 128,-1,46
 302 565 302 565 330.5 601 c 128,-1,47
 359 637 359 637 392.5 675 c 128,-1,48
 426 713 426 713 454.5 744 c 128,-1,49
 483 775 483 775 502 815.5 c 128,-1,50
 521 856 521 856 521 897 c 0,51,52
 521 972 521 972 455 1009 c 1,53,54
 486 969 486 969 486 913 c 0,55,56
 486 887 486 887 474.5 855.5 c 128,-1,57
 463 824 463 824 439 790.5 c 128,-1,58
 415 757 415 757 368 734.5 c 128,-1,59
 321 712 321 712 260 712 c 0,60,61
 165 712 165 712 102 774 c 128,-1,62
 39 836 39 836 39 926 c 0,63,64
 39 995 39 995 68.5 1051.5 c 128,-1,65
 98 1108 98 1108 146.5 1143 c 128,-1,66
 195 1178 195 1178 254 1196.5 c 128,-1,67
 313 1215 313 1215 375 1215 c 0,68,69
 422 1215 422 1215 470 1206 c 128,-1,70
 518 1197 518 1197 571 1172 c 128,-1,71
 624 1147 624 1147 664.5 1109.5 c 128,-1,72
 705 1072 705 1072 731.5 1008 c 128,-1,73
 758 944 758 944 758 864 c 0,11,12
EndSplineSet
EndChar

StartChar: uni0E0B
Encoding: 3595 3595 134
Width: 1580
Flags: W
HStem: 0 222<721 1054.01> 605 136<190.295 327.157> 1195 20G<307.5 380.36 595.888 714.5>
VStem: 38 144<749.047 881.194> 335 145<748.383 883.256> 411 310<222 539.95> 660 254<791.36 999.13> 1076 312<238.251 728.208> 1133 330<1162.59 1373>
LayerCount: 3
Fore
SplineSet
626 1215 m 1xfa
 803 1192 914 1063 914 905 c 0xfa
 914 746 767 572 738 481 c 0
 727 445 721 405 721 361 c 2
 721 222 l 1
 973 222 l 2
 1042 222 1076 258 1076 326 c 2
 1076 608 l 2xf5
 1076 706 1034 757 949 761 c 1
 949 1052 l 1
 1044 1070 1133 1163 1133 1373 c 1
 1463 1373 l 1xf080
 1463 1043 1276 920 1221 894 c 1
 1305 857 1388 742 1388 614 c 2
 1388 290 l 18
 1388 97 1257 0 995 0 c 2
 411 0 l 1
 411 409 l 2xf5
 411 455 413 610 588 763 c 0
 634 803 660 853 660 917 c 0
 660 970 642 998 593 1008 c 1
 490 970 l 1
 330 1051 l 1
 284 1032 l 1
 423 1012 480 895 480 798 c 0
 480 715 415 605 260 605 c 0
 171 605 38 655 38 853 c 0
 38 1143 267 1209 348 1215 c 1
 492 1126 l 1
 626 1215 l 1xfa
335 817 m 0
 335 848 314 890 259 890 c 0
 218 890 182 858 182 814 c 0
 182 774 217 741 260 741 c 0
 300 741 335 773 335 817 c 0
EndSplineSet
Validated: 1
Layer: 2
SplineSet
626 1215 m 1,0,1
 757 1198 757 1198 835.5 1111.5 c 128,-1,2
 914 1025 914 1025 914 905 c 0,3,4
 914 835 914 835 877 751 c 128,-1,5
 840 667 840 667 794 589.5 c 128,-1,6
 748 512 748 512 738 481 c 0,7,8
 721 425 721 425 721 361 c 2,9,-1
 721 222 l 1,10,-1
 973 222 l 2,11,12
 1076 222 1076 222 1076 326 c 2,13,-1
 1076 608 l 2,14,15
 1076 755 1076 755 949 761 c 1,16,-1
 949 1052 l 1,17,18
 1028 1067 1028 1067 1080.5 1146.5 c 128,-1,19
 1133 1226 1133 1226 1133 1373 c 1,20,-1
 1463 1373 l 1,21,22
 1463 1280 1463 1280 1442.5 1199.5 c 128,-1,23
 1422 1119 1422 1119 1394 1069 c 128,-1,24
 1366 1019 1366 1019 1329.5 979 c 128,-1,25
 1293 939 1293 939 1268 921.5 c 128,-1,26
 1243 904 1243 904 1221 894 c 1,27,28
 1288 865 1288 865 1338 785.5 c 128,-1,29
 1388 706 1388 706 1388 614 c 2,30,-1
 1388 290 l 2,31,32
 1388 0 1388 0 995 0 c 2,33,-1
 411 0 l 1,34,-1
 411 409 l 2,35,36
 411 608 411 608 588 763 c 0,37,38
 660 826 660 826 660 917 c 0,39,40
 660 957 660 957 644.5 979 c 128,-1,41
 629 1001 629 1001 593 1008 c 1,42,-1
 490 970 l 1,43,-1
 330 1051 l 1,44,-1
 284 1032 l 1,45,46
 381 1018 381 1018 430.5 949 c 128,-1,47
 480 880 480 880 480 798 c 0,48,49
 480 726 480 726 423.5 665.5 c 128,-1,50
 367 605 367 605 260 605 c 0,51,52
 223 605 223 605 187 616.5 c 128,-1,53
 151 628 151 628 116 654 c 128,-1,54
 81 680 81 680 59.5 731.5 c 128,-1,55
 38 783 38 783 38 853 c 0,56,57
 38 935 38 935 63 1001 c 128,-1,58
 88 1067 88 1067 123.5 1104.5 c 128,-1,59
 159 1142 159 1142 204.5 1168 c 128,-1,60
 250 1194 250 1194 284.5 1203.5 c 128,-1,61
 319 1213 319 1213 348 1215 c 1,62,-1
 492 1126 l 1,63,-1
 626 1215 l 1,0,1
335 817 m 0,64,65
 335 845 335 845 316 867.5 c 128,-1,66
 297 890 297 890 259 890 c 0,67,68
 228 890 228 890 205 868 c 128,-1,69
 182 846 182 846 182 814 c 0,70,71
 182 784 182 784 205 762.5 c 128,-1,72
 228 741 228 741 260 741 c 0,73,74
 291 741 291 741 313 763 c 128,-1,75
 335 785 335 785 335 817 c 0,64,65
EndSplineSet
EndChar

StartChar: uni0E0C
Encoding: 3596 3596 135
Width: 2060
Flags: W
HStem: -20 206<994.91 1145.7> -20 186<390.468 526.568> 0 21G<1515.5 1851> 315 149<400.43 528.614> 984 241<446.557 900.5> 1184 20G<1547 1851>
VStem: 90 310<463 619.244> 90 293<174.238 307.577> 535 158<175.082 308.521> 764 220<200.094 343.057> 962 306<536 924.487> 1547 304<0 77.307 366 1204>
LayerCount: 3
Fore
SplineSet
1355 213 m 2x35b0
 1355 117 1265 -20 1069 -20 c 0
 948 -20 764 62 764 267 c 0x90d0
 764 428 884 505 962 536 c 1
 962 796 l 2
 962 945 857 984 732 984 c 0
 573 984 489 959 436 936 c 1
 589 850 l 1
 589 708 l 1
 406 640 400 554 400 516 c 2
 400 463 l 1x9ab0
 405 463 409 464 457 464 c 0
 517 464 573 459 632 398 c 0
 672 356 693 297 693 220 c 0
 693 124 620 -20 402 -20 c 0
 324 -20 252 10 188 70 c 0
 122 131 90 220 90 337 c 2x5990
 90 468 l 2x5a90
 90 549 108 678 263 765 c 1
 90 854 l 1
 90 1074 l 1
 246 1161 433 1225 661 1225 c 0x5990
 874 1225 1029 1188 1124 1115 c 0
 1220 1042 1268 941 1268 812 c 2
 1268 547 l 1
 1380 522 1474 462 1547 366 c 1
 1547 1204 l 1
 1851 1204 l 1
 1851 0 l 1
 1541 0 l 1
 1490 121 1428 195 1355 220 c 1
 1355 213 l 2x35b0
984 269 m 0
 984 219 1025 186 1071 186 c 0
 1119 186 1156 225 1156 269 c 0
 1156 313 1120 354 1070 354 c 0
 1020 354 984 314 984 269 c 0
535 242 m 0
 535 286 500 315 460 315 c 24
 417 315 383 281 383 242 c 0
 383 197 418 166 459 166 c 0x5190
 500 166 535 197 535 242 c 0
EndSplineSet
Validated: 1
Layer: 2
SplineSet
1355 213 m 2,0,1
 1355 175 1355 175 1337.5 135.5 c 128,-1,2
 1320 96 1320 96 1286.5 60.5 c 128,-1,3
 1253 25 1253 25 1196 2.5 c 128,-1,4
 1139 -20 1139 -20 1069 -20 c 0,5,6
 1021 -20 1021 -20 970 -3.5 c 128,-1,7
 919 13 919 13 871.5 46 c 128,-1,8
 824 79 824 79 794 136.5 c 128,-1,9
 764 194 764 194 764 267 c 0,10,11
 764 324 764 324 783 371.5 c 128,-1,12
 802 419 802 419 834.5 451 c 128,-1,13
 867 483 867 483 897.5 503 c 128,-1,14
 928 523 928 523 962 536 c 1,15,-1
 962 796 l 2,16,17
 962 984 962 984 732 984 c 0,18,19
 547 984 547 984 436 936 c 1,20,-1
 589 850 l 1,21,-1
 589 708 l 1,22,23
 400 638 400 638 400 516 c 2,24,-1
 400 463 l 2,25,26
 401 463 401 463 405.5 463.5 c 128,-1,27
 410 464 410 464 423 464 c 128,-1,28
 436 464 436 464 457 464 c 0,29,30
 512 464 512 464 552 451.5 c 128,-1,31
 592 439 592 439 632 398 c 0,32,33
 693 334 693 334 693 220 c 0,34,35
 693 181 693 181 677.5 141.5 c 128,-1,36
 662 102 662 102 630 64.5 c 128,-1,37
 598 27 598 27 538.5 3.5 c 128,-1,38
 479 -20 479 -20 402 -20 c 0,39,40
 284 -20 284 -20 188 70 c 0,41,42
 90 161 90 161 90 337 c 2,43,-1
 90 468 l 2,44,45
 90 668 90 668 263 765 c 1,46,-1
 90 854 l 1,47,-1
 90 1074 l 1,48,49
 361 1225 361 1225 661 1225 c 0,50,51
 981 1225 981 1225 1124 1115 c 0,52,53
 1268 1005.5 1268 1005.5 1268 812 c 2,54,-1
 1268 547 l 1,55,56
 1438 509 1438 509 1547 366 c 1,57,-1
 1547 1204 l 1,58,-1
 1851 1204 l 1,59,-1
 1851 0 l 1,60,-1
 1541 0 l 1,61,62
 1464 183 1464 183 1355 220 c 1,63,-1
 1355 213 l 2,0,1
984 269 m 0,64,65
 984 233 984 233 1009.5 209.5 c 128,-1,66
 1035 186 1035 186 1071 186 c 0,67,68
 1106 186 1106 186 1131 211 c 128,-1,69
 1156 236 1156 236 1156 269 c 0,70,71
 1156 303 1156 303 1131.5 328.5 c 128,-1,72
 1107 354 1107 354 1070 354 c 128,-1,73
 1033 354 1033 354 1008.5 329 c 128,-1,74
 984 304 984 304 984 269 c 0,64,65
535 242 m 0,75,76
 535 274 535 274 513 294.5 c 128,-1,77
 491 315 491 315 460 315 c 0,78,79
 428 315 428 315 405.5 293.5 c 128,-1,80
 383 272 383 272 383 242 c 0,81,82
 383 209 383 209 405.5 187.5 c 128,-1,83
 428 166 428 166 459 166 c 128,-1,84
 490 166 490 166 512.5 187.5 c 128,-1,85
 535 209 535 209 535 242 c 0,75,76
EndSplineSet
EndChar

StartChar: uni0E0D
Encoding: 3597 3597 136
Width: 1970
Flags: W
HStem: -461 176<1038.66 1416.86> -172 119<1040.18 1155.55> -11 189<366.985 504.958> 0 221<1187 1467> 327 175<419.463 506.386> 994 240<390.289 792.095> 1184 20G<1467 1775>
VStem: 104 256<187.361 319.577> 512 206<184.851 319.959> 876 311<221 920.539> 916 121<-282.031 -174.143> 1158 123<-273.59 -175.278> 1467 308<221 1204>
LayerCount: 3
Fore
SplineSet
410 -11 m 0xedc8
 306 -11 104 57 104 329 c 2
 104 474 l 2
 104 545 118 668 257 744 c 1
 72 821 l 1
 72 1097 l 1
 349 1211 523 1234 636 1234 c 0xedc8
 1039 1234 1187 1069 1187 822 c 2
 1187 221 l 1
 1467 221 l 1
 1467 1204 l 1
 1775 1204 l 1
 1775 0 l 1
 876 0 l 1xdbc8
 876 806 l 2
 876 957 724 994 587 994 c 0
 527 994 455 985 385 947 c 1
 587 856 l 1
 587 660 l 1
 422 607 418 533 418 502 c 1
 484 502 l 2
 576 502 718 412 718 247 c 0
 718 92 589 -11 410 -11 c 0xedc8
512 254 m 0
 512 298 477 327 437 327 c 24
 394 327 360 293 360 254 c 0
 360 213 391 178 436 178 c 0
 481 178 512 213 512 254 c 0
1158 -230 m 0xc9b8
 1158 -202 1137 -172 1097 -172 c 0
 1065 -172 1037 -196 1037 -231 c 0
 1037 -266 1068 -285 1099 -285 c 0
 1138 -285 1158 -258 1158 -230 c 0xc9b8
1276 -274 m 1
 1347 -267 1615 -203 1751 -67 c 1
 1790 -306 l 1
 1611 -441 1281 -461 1206 -461 c 0
 1129 -461 1071 -448 1032 -420 c 1
 947 -363 916 -317 916 -221 c 0
 916 -126 1003 -53 1098 -53 c 0
 1205 -53 1281 -147 1281 -233 c 0
 1281 -256 1279 -270 1276 -274 c 1
EndSplineSet
Validated: 1
Layer: 2
SplineSet
410 -11 m 0,0,1
 375 -11 375 -11 338 -2 c 128,-1,2
 301 7 301 7 258 31 c 128,-1,3
 215 55 215 55 181.5 91.5 c 128,-1,4
 148 128 148 128 126 189.5 c 128,-1,5
 104 251 104 251 104 329 c 2,6,-1
 104 474 l 2,7,8
 104 660 104 660 257 744 c 1,9,-1
 72 821 l 1,10,-1
 72 1097 l 1,11,12
 405 1234 405 1234 636 1234 c 0,13,14
 1187 1234 1187 1234 1187 822 c 2,15,-1
 1187 221 l 1,16,-1
 1467 221 l 1,17,-1
 1467 1204 l 1,18,-1
 1775 1204 l 1,19,-1
 1775 0 l 1,20,-1
 876 0 l 1,21,-1
 876 806 l 2,22,23
 876 860 876 860 851 898.5 c 128,-1,24
 826 937 826 937 782 957 c 128,-1,25
 738 977 738 977 690.5 985.5 c 128,-1,26
 643 994 643 994 587 994 c 0,27,28
 472 994 472 994 385 947 c 1,29,-1
 587 856 l 1,30,-1
 587 660 l 1,31,32
 529 641 529 641 491.5 618 c 128,-1,33
 454 595 454 595 440 571.5 c 128,-1,34
 426 548 426 548 422 533.5 c 128,-1,35
 418 519 418 519 418 502 c 1,36,-1
 484 502 l 2,37,38
 520 502 520 502 559.5 485 c 128,-1,39
 599 468 599 468 635 437 c 128,-1,40
 671 406 671 406 694.5 356 c 128,-1,41
 718 306 718 306 718 247 c 0,42,43
 718 132 718 132 631.5 60.5 c 128,-1,44
 545 -11 545 -11 410 -11 c 0,0,1
512 254 m 0,45,46
 512 286 512 286 490 306.5 c 128,-1,47
 468 327 468 327 437 327 c 0,48,49
 405 327 405 327 382.5 305.5 c 128,-1,50
 360 284 360 284 360 254 c 0,51,52
 360 223 360 223 381.5 200.5 c 128,-1,53
 403 178 403 178 436 178 c 128,-1,54
 469 178 469 178 490.5 200.5 c 128,-1,55
 512 223 512 223 512 254 c 0,45,46
1158 -230 m 128,-1,57
 1158 -207 1158 -207 1141.5 -189.5 c 128,-1,58
 1125 -172 1125 -172 1097 -172 c 0,59,60
 1072 -172 1072 -172 1054.5 -188.5 c 128,-1,61
 1037 -205 1037 -205 1037 -231 c 0,62,63
 1037 -256 1037 -256 1055.5 -270.5 c 128,-1,64
 1074 -285 1074 -285 1099 -285 c 0,65,66
 1127 -285 1127 -285 1142.5 -269 c 128,-1,56
 1158 -253 1158 -253 1158 -230 c 128,-1,57
1276 -274 m 1,67,68
 1322 -269 1322 -269 1400 -248.5 c 128,-1,69
 1478 -228 1478 -228 1583.5 -178.5 c 128,-1,70
 1689 -129 1689 -129 1751 -67 c 1,71,-1
 1790 -306 l 1,72,73
 1728 -353 1728 -353 1636.5 -386.5 c 128,-1,74
 1545 -420 1545 -420 1456 -434.5 c 128,-1,75
 1367 -449 1367 -449 1306.5 -455 c 128,-1,76
 1246 -461 1246 -461 1206 -461 c 0,77,78
 1089 -461 1089 -461 1032 -420 c 0,79,80
 967 -376 967 -376 941.5 -334 c 128,-1,81
 916 -292 916 -292 916 -221 c 0,82,83
 916 -151 916 -151 970.5 -102 c 128,-1,84
 1025 -53 1025 -53 1098 -53 c 0,85,86
 1175 -53 1175 -53 1228 -109 c 128,-1,87
 1281 -165 1281 -165 1281 -233 c 0,88,89
 1281 -267 1281 -267 1276 -274 c 1,67,68
EndSplineSet
Substitution2: "'ccmp' Pali-Sanskrit Descender Removal" uni0E0D.descless
Substitution2: "Thai Descender Removal Single Substitution" uni0E0D.descless
EndChar

StartChar: uni0E0E
Encoding: 3598 3598 137
Width: 1560
Flags: W
HStem: -532 193<516.731 663.135> -196 195<524.033 703.743> -10 179<252.468 386.731> 984 241<556.927 956.983>
VStem: 68 176<177.04 311.41> 300 212<-335.022 -213.414> 396 256<182.527 310.577> 1040 320<-217 905.98>
AnchorPoint: "BelowBase" 1350 -580 basechar 0
LayerCount: 3
Fore
SplineSet
396 245 m 0xbb
 396 284 362 318 319 318 c 24
 279 318 244 289 244 245 c 0
 244 204 275 169 320 169 c 0
 365 169 396 204 396 245 c 0xbb
888 -358 m 1
 832 -471 727 -532 576 -532 c 0
 442 -532 300 -440 300 -284 c 0
 300 -58 521 -1 628 -1 c 0
 673 -1 718 -10 763 -29 c 1
 775 62 l 1
 978 -1 l 1xdd
 939 -127 l 1
 981 -156 1014 -186 1040 -217 c 1
 1040 795 l 2
 1040 947 885 984 753 984 c 0
 692 984 621 975 550 937 c 1
 770 836 l 1
 770 644 l 1
 702 620 652 561 652 478 c 2
 652 320 l 2
 652 56 499 -10 340 -10 c 0
 223 -10 68 40 68 238 c 0
 68 407 190 486 292 493 c 2
 338 496 l 1
 338 622 362 690 452 734 c 1
 236 811 l 1
 236 1088 l 1
 501 1207 687 1225 800 1225 c 0
 1122 1225 1360 1123 1360 811 c 2
 1360 -520 l 1
 1032 -520 l 1
 992 -457 944 -403 888 -358 c 1
512 -276 m 0
 512 -326 549 -339 571 -339 c 0
 624 -339 681 -299 705 -220 c 1
 674 -204 644 -196 616 -196 c 0
 564 -196 512 -229 512 -276 c 0
EndSplineSet
Validated: 1
Layer: 2
SplineSet
396 245 m 0,0,1
 396 275 396 275 373.5 296.5 c 128,-1,2
 351 318 351 318 319 318 c 0,3,4
 288 318 288 318 266 297.5 c 128,-1,5
 244 277 244 277 244 245 c 0,6,7
 244 214 244 214 265.5 191.5 c 128,-1,8
 287 169 287 169 320 169 c 128,-1,9
 353 169 353 169 374.5 191.5 c 128,-1,10
 396 214 396 214 396 245 c 0,0,1
888 -358 m 1,11,12
 802 -532 802 -532 576 -532 c 0,13,14
 468 -532 468 -532 384 -463.5 c 128,-1,15
 300 -395 300 -395 300 -284 c 0,16,17
 300 -220 300 -220 324 -168.5 c 128,-1,18
 348 -117 348 -117 384 -86.5 c 128,-1,19
 420 -56 420 -56 466.5 -36 c 128,-1,20
 513 -16 513 -16 552.5 -8.5 c 128,-1,21
 592 -1 592 -1 628 -1 c 0,22,23
 697 -1 697 -1 763 -29 c 1,24,-1
 775 62 l 1,25,-1
 978 -1 l 1,26,-1
 939 -127 l 1,27,28
 1000 -169 1000 -169 1040 -217 c 1,29,-1
 1040 795 l 2,30,31
 1040 849 1040 849 1014.5 888 c 128,-1,32
 989 927 989 927 945 947 c 128,-1,33
 901 967 901 967 854 975.5 c 128,-1,34
 807 984 807 984 753 984 c 0,35,36
 638 984 638 984 550 937 c 1,37,-1
 770 836 l 1,38,-1
 770 644 l 1,39,40
 717 625 717 625 684.5 581.5 c 128,-1,41
 652 538 652 538 652 478 c 2,42,-1
 652 320 l 2,43,44
 652 -10 652 -10 340 -10 c 0,45,46
 292 -10 292 -10 247.5 1.5 c 128,-1,47
 203 13 203 13 161 39 c 128,-1,48
 119 65 119 65 93.5 116.5 c 128,-1,49
 68 168 68 168 68 238 c 0,50,51
 68 355 68 355 136.5 421 c 128,-1,52
 205 487 205 487 292 493 c 2,53,-1
 338 496 l 1,54,55
 338 594 338 594 362.5 648 c 128,-1,56
 387 702 387 702 452 734 c 1,57,-1
 236 811 l 1,58,-1
 236 1088 l 1,59,60
 541 1225 541 1225 800 1225 c 0,61,62
 1360 1225 1360 1225 1360 811 c 2,63,-1
 1360 -520 l 1,64,-1
 1032 -520 l 1,65,66
 972 -425.5 972 -425.5 888 -358 c 1,11,12
512 -276 m 0,67,68
 512 -309 512 -309 530.5 -324 c 128,-1,69
 549 -339 549 -339 571 -339 c 0,70,71
 613 -339 613 -339 650.5 -308 c 128,-1,72
 688 -277 688 -277 705 -220 c 1,73,74
 658 -196 658 -196 616 -196 c 0,75,76
 575 -196 575 -196 543.5 -219 c 128,-1,77
 512 -242 512 -242 512 -276 c 0,67,68
EndSplineSet
EndChar

StartChar: uni0E0F
Encoding: 3599 3599 138
Width: 1550
Flags: W
HStem: -523 177<292.804 442.926> -241 162<295.627 462.135> -12 181<251.127 387.494> 985 240<560.744 955.199>
VStem: 68 176<176.039 310.723> 86 206<-343.182 -246.969> 396 256<175.865 310.577> 1040 319<-254 907.285>
AnchorPoint: "BelowBase" 1350 -580 basechar 0
LayerCount: 3
Fore
SplineSet
396 245 m 0xfb
 396 284 362 318 319 318 c 24
 279 318 244 289 244 245 c 0
 244 204 275 169 320 169 c 0
 365 169 396 204 396 245 c 0xfb
86 -304 m 0xf7
 86 -231 156 -79 372 -79 c 0
 382 -79 478 -81 542 -119 c 1
 616 9 l 1
 856 -76 l 1
 736 -232 l 1
 793 -265 l 1
 877 -175 l 1
 955 -175 l 1
 1040 -254 l 1
 1040 795 l 2
 1040 947 883 985 750 985 c 0
 673 985 606 967 550 937 c 1
 770 836 l 1
 770 644 l 1
 702 620 652 561 652 478 c 2
 652 320 l 2
 652 38 438 -12 328 -12 c 0
 186 -12 68 102 68 238 c 0xfb
 68 369 144 483 292 493 c 2
 338 496 l 1
 338 622 362 690 452 734 c 1
 236 811 l 1
 236 1088 l 1
 434 1195 629 1225 800 1225 c 0
 1000 1225 1143 1188 1230 1114 c 0
 1316 1040 1359 939 1359 811 c 2
 1359 -520 l 1
 1022 -520 l 1
 928 -418 l 1
 850 -508 l 1
 751 -508 l 1
 629 -388 l 1
 552 -471 450 -523 358 -523 c 0
 236 -523 86 -444 86 -304 c 0xf7
292 -298 m 0xf7
 292 -336 324 -346 356 -346 c 0
 421 -346 447 -304 463 -265 c 1
 432 -249 403 -241 376 -241 c 0
 326 -241 292 -264 292 -298 c 0xf7
EndSplineSet
Validated: 1
Layer: 2
SplineSet
396 245 m 0,0,1
 396 275 396 275 373.5 296.5 c 128,-1,2
 351 318 351 318 319 318 c 0,3,4
 288 318 288 318 266 297.5 c 128,-1,5
 244 277 244 277 244 245 c 0,6,7
 244 214 244 214 265.5 191.5 c 128,-1,8
 287 169 287 169 320 169 c 128,-1,9
 353 169 353 169 374.5 191.5 c 128,-1,10
 396 214 396 214 396 245 c 0,0,1
86 -304 m 0,11,12
 86 -273 86 -273 101 -237.5 c 128,-1,13
 116 -202 116 -202 147 -165 c 128,-1,14
 178 -128 178 -128 237 -103.5 c 128,-1,15
 296 -79 296 -79 372 -79 c 0,16,17
 475 -79 475 -79 542 -119 c 1,18,-1
 616 9 l 1,19,-1
 856 -76 l 1,20,-1
 736 -232 l 1,21,-1
 793 -265 l 1,22,-1
 877 -175 l 1,23,-1
 955 -175 l 1,24,-1
 1040 -254 l 1,25,-1
 1040 795 l 2,26,27
 1040 849 1040 849 1014 888 c 128,-1,28
 988 927 988 927 944 947 c 128,-1,29
 900 967 900 967 852.5 976 c 128,-1,30
 805 985 805 985 750 985 c 0,31,32
 640 985 640 985 550 937 c 1,33,-1
 770 836 l 1,34,-1
 770 644 l 1,35,36
 717 625 717 625 684.5 581.5 c 128,-1,37
 652 538 652 538 652 478 c 2,38,-1
 652 320 l 2,39,40
 652 240 652 240 628.5 178 c 128,-1,41
 605 116 605 116 570 81 c 128,-1,42
 535 46 535 46 489 24 c 128,-1,43
 443 2 443 2 404.5 -5 c 128,-1,44
 366 -12 366 -12 328 -12 c 0,45,46
 222 -12 222 -12 145 62 c 128,-1,47
 68 136 68 136 68 238 c 0,48,49
 68 341 68 341 126.5 413.5 c 128,-1,50
 185 486 185 486 292 493 c 2,51,-1
 338 496 l 1,52,53
 338 594 338 594 362.5 648 c 128,-1,54
 387 702 387 702 452 734 c 1,55,-1
 236 811 l 1,56,-1
 236 1088 l 1,57,58
 490 1225 490 1225 800 1225 c 0,59,60
 1100 1225 1100 1225 1230 1114 c 0,61,62
 1359 1003 1359 1003 1359 811 c 2,63,-1
 1359 -520 l 1,64,-1
 1022 -520 l 1,65,-1
 928 -418 l 1,66,-1
 850 -508 l 1,67,-1
 751 -508 l 1,68,-1
 629 -388 l 1,69,70
 571 -451 571 -451 499 -487 c 128,-1,71
 427 -523 427 -523 358 -523 c 0,72,73
 257 -523 257 -523 171.5 -462.5 c 128,-1,74
 86 -402 86 -402 86 -304 c 0,11,12
292 -298 m 0,75,76
 292 -346 292 -346 356 -346 c 0,77,78
 430 -346 430 -346 463 -265 c 1,79,80
 416.5 -241 416.5 -241 376 -241 c 0,81,82
 338 -241 338 -241 315 -257 c 128,-1,83
 292 -273 292 -273 292 -298 c 0,75,76
EndSplineSet
EndChar

StartChar: uni0E10
Encoding: 3600 3600 139
Width: 1250
Flags: W
HStem: -617 143<249.966 364.424> -394 130<250.146 364.745> -361 103<715.853 770.857> -156 111<717.248 814.935> 0 21G<673.839 983.03> 205 144<310.118 449.725> 498 144<313.256 448.208> 984 241<459.493 906.637>
VStem: 109 139<-473.331 -394.796> 160 144<356.195 489.833> 600 115<-256.288 -158.584> 817 211<-257.603 -161.429>
DStem2: 453 938 617 666 0.96577 -0.259401<0 395.791>
LayerCount: 3
Fore
SplineSet
970 858 m 1x9f70
 943 954 834 984 722 984 c 0
 615 984 524 971 453 938 c 1
 937 808 l 2
 1041 780 1095 716 1095 614 c 0
 1095 589 1092 561 1086 531 c 2
 979 0 l 1
 683 0 l 1
 552 286 l 1
 525 242 461 205 387 205 c 0
 253 205 160 291 160 420 c 0
 160 536 251 642 398 642 c 0
 470 642 534 614 588 558 c 0
 644 501 693 435 734 360 c 1
 772 530 l 2
 773 536 774 541 774 547 c 0
 774 600 723 640 617 666 c 2
 139 782 l 1
 139 1088 l 1
 252 1135 486 1225 718 1225 c 0
 917 1225 1062 1190 1153 1122 c 1
 970 858 l 1x9f70
304 422 m 0
 304 378 339 349 379 349 c 24
 426 349 456 385 456 422 c 0
 456 467 421 498 380 498 c 0
 339 498 304 467 304 422 c 0
754 -361 m 0xbf70
 691 -361 600 -313 600 -204 c 0
 600 -77 718 -45 793 -45 c 0
 873 -45 1028 -77 1028 -321 c 2
 1028 -615 l 1
 766 -615 l 1
 690 -528 l 1
 633 -610 l 1
 561 -610 l 1
 480 -518 l 1
 448 -584 386 -617 294 -617 c 0
 156 -617 109 -518 109 -444 c 0xbfb0
 109 -347 201 -264 304 -264 c 0xdf70
 334 -264 363 -265 422 -308 c 1
 452 -231 l 1
 578 -338 l 1
 540 -408 l 1
 598 -458 l 1
 656 -385 l 1
 715 -385 l 1
 771 -456 l 1
 771 -360 l 1
 765 -361 759 -361 754 -361 c 0xbf70
817 -204 m 0
 817 -179 795 -156 768 -156 c 16
 732 -156 715 -182 715 -207 c 0
 715 -233 732 -258 766 -258 c 0
 792 -258 817 -236 817 -204 c 0
366 -428 m 1
 339 -406 327 -394 294 -394 c 0xdfb0
 268 -394 248 -417 248 -437 c 0
 248 -450 256 -474 288 -474 c 0
 341 -474 348 -446 366 -428 c 1
EndSplineSet
Validated: 1
Layer: 2
SplineSet
970 858 m 1,0,1
 951 925 951 925 883.5 954.5 c 128,-1,2
 816 984 816 984 722 984 c 0,3,4
 552 984 552 984 453 938 c 1,5,-1
 937 808 l 2,6,7
 1095 765 1095 765 1095 614 c 0,8,9
 1095 576 1095 576 1086 531 c 2,10,-1
 979 0 l 1,11,-1
 683 0 l 1,12,-1
 552 286 l 1,13,14
 531 252 531 252 486 228.5 c 128,-1,15
 441 205 441 205 387 205 c 0,16,17
 286 205 286 205 223 264.5 c 128,-1,18
 160 324 160 324 160 420 c 0,19,20
 160 511 160 511 226 576.5 c 128,-1,21
 292 642 292 642 398 642 c 0,22,23
 507 642 507 642 588 558 c 0,24,25
 673 471 673 471 734 360 c 1,26,-1
 772 530 l 2,27,28
 774 542 774 542 774 547 c 0,29,30
 774 627 774 627 617 666 c 2,31,-1
 139 782 l 1,32,-1
 139 1088 l 1,33,34
 468 1225 468 1225 718 1225 c 0,35,36
 1015 1225 1015 1225 1153 1122 c 1,37,-1
 970 858 l 1,0,1
304 422 m 0,38,39
 304 390 304 390 326 369.5 c 128,-1,40
 348 349 348 349 379 349 c 0,41,42
 413 349 413 349 434.5 371 c 128,-1,43
 456 393 456 393 456 422 c 0,44,45
 456 455 456 455 433.5 476.5 c 128,-1,46
 411 498 411 498 380 498 c 128,-1,47
 349 498 349 498 326.5 476.5 c 128,-1,48
 304 455 304 455 304 422 c 0,38,39
754 -361 m 0,49,50
 698 -361 698 -361 649 -320 c 128,-1,51
 600 -279 600 -279 600 -204 c 0,52,53
 600 -159 600 -159 619 -126 c 128,-1,54
 638 -93 638 -93 669 -76.5 c 128,-1,55
 700 -60 700 -60 730.5 -52.5 c 128,-1,56
 761 -45 761 -45 793 -45 c 0,57,58
 822 -45 822 -45 849 -50 c 128,-1,59
 876 -55 876 -55 910 -72.5 c 128,-1,60
 944 -90 944 -90 969 -118.5 c 128,-1,61
 994 -147 994 -147 1011 -199 c 128,-1,62
 1028 -251 1028 -251 1028 -321 c 2,63,-1
 1028 -615 l 1,64,-1
 766 -615 l 1,65,-1
 690 -528 l 1,66,-1
 633 -610 l 1,67,-1
 561 -610 l 1,68,-1
 480 -518 l 1,69,70
 432 -617 432 -617 294 -617 c 0,71,72
 200 -617 200 -617 154.5 -563.5 c 128,-1,73
 109 -510 109 -510 109 -444 c 0,74,75
 109 -372 109 -372 167.5 -318 c 128,-1,76
 226 -264 226 -264 304 -264 c 0,77,78
 323 -264 323 -264 335.5 -265.5 c 128,-1,79
 348 -267 348 -267 371 -277.5 c 128,-1,80
 394 -288 394 -288 422 -308 c 1,81,-1
 452 -231 l 1,82,-1
 578 -338 l 1,83,-1
 540 -408 l 1,84,-1
 598 -458 l 1,85,-1
 656 -385 l 1,86,-1
 715 -385 l 1,87,-1
 771 -456 l 1,88,-1
 771 -360 l 1,89,90
 765 -361 765 -361 754 -361 c 0,49,50
817 -204 m 0,91,92
 817 -185 817 -185 802.5 -170.5 c 128,-1,93
 788 -156 788 -156 768 -156 c 0,94,95
 743 -156 743 -156 729 -171 c 128,-1,96
 715 -186 715 -186 715 -207 c 128,-1,97
 715 -228 715 -228 728.5 -243 c 128,-1,98
 742 -258 742 -258 766 -258 c 0,99,100
 786 -258 786 -258 801.5 -242.5 c 128,-1,101
 817 -227 817 -227 817 -204 c 0,91,92
366 -428 m 1,102,103
 332.232275436 -400.485557763 332.232275436 -400.485557763 316.399402006 -396.470191401 c 0,104,105
 306.659262684 -394 306.659262684 -394 294 -394 c 0,106,107
 275 -394 275 -394 261.5 -407.5 c 128,-1,108
 248 -421 248 -421 248 -437 c 0,109,110
 248 -450 248 -450 257.5 -462 c 128,-1,111
 267 -474 267 -474 288 -474 c 0,112,113
 307 -474 307 -474 320.5 -469 c 128,-1,114
 334 -464 334 -464 340 -458.5 c 128,-1,115
 346 -453 346 -453 354 -442.5 c 128,-1,116
 362 -432 362 -432 366 -428 c 1,102,103
EndSplineSet
Substitution2: "'ccmp' Pali-Sanskrit Descender Removal" uni0E10.descless
Substitution2: "Thai Descender Removal Single Substitution" uni0E10.descless
EndChar

StartChar: uni0E11
Encoding: 3601 3601 140
Width: 1820
Flags: W
HStem: 0 21G<432 818 1319 1629> 605 137<208.839 348.736> 836 387<1217.62 1451.5>
VStem: 59 144<749.293 881.267> 356 145<748.728 882.9> 432 310<340 539.95> 681 254<791.36 999.13> 1319 310<0 835.488>
LayerCount: 3
Fore
SplineSet
281 890 m 0xf9
 235 890 203 854 203 815 c 0
 203 768 242 742 280 742 c 0
 324 742 356 772 356 818 c 0
 356 854 328 890 281 890 c 0xf9
1333 1223 m 0
 1570 1223 1629 1070 1629 951 c 2
 1629 0 l 1
 1319 0 l 1
 1319 784 l 2
 1319 826 1286 836 1267 836 c 0
 1251 836 1221 810 1215 784 c 0
 1151 525 889 155 747 0 c 1
 432 0 l 1
 432 409 l 2xf5
 432 455 434 610 609 763 c 0
 655 803 681 853 681 917 c 0
 681 970 663 998 614 1008 c 1
 511 970 l 1
 351 1051 l 1
 305 1032 l 1
 444 1012 501 895 501 798 c 0
 501 715 436 605 281 605 c 0
 192 605 59 655 59 853 c 0
 59 1143 288 1209 369 1215 c 1
 513 1126 l 1
 647 1215 l 1
 824 1192 935 1063 935 905 c 0xfb
 935 746 788 572 759 481 c 0
 748 445 742 405 742 361 c 2
 742 340 l 1xf5
 766 360 812 429 880 549 c 0
 947 668 1003 820 1046 1003 c 0
 1057 1051 1087 1100 1136 1149 c 0
 1184 1198 1249 1223 1333 1223 c 0
EndSplineSet
Validated: 1
Layer: 2
SplineSet
281 890 m 128,-1,1
 247 890 247 890 225 867.5 c 128,-1,2
 203 845 203 845 203 815 c 0,3,4
 203 782 203 782 226 762 c 128,-1,5
 249 742 249 742 280 742 c 0,6,7
 313 742 313 742 334.5 763 c 128,-1,8
 356 784 356 784 356 818 c 0,9,10
 356 847 356 847 335.5 868.5 c 128,-1,0
 315 890 315 890 281 890 c 128,-1,1
1333 1223 m 0,11,12
 1401 1223 1401 1223 1454.5 1206 c 128,-1,13
 1508 1189 1508 1189 1540 1162 c 128,-1,14
 1572 1135 1572 1135 1593 1098 c 128,-1,15
 1614 1061 1614 1061 1621.5 1025.5 c 128,-1,16
 1629 990 1629 990 1629 951 c 2,17,-1
 1629 0 l 1,18,-1
 1319 0 l 1,19,-1
 1319 784 l 2,20,21
 1319 812 1319 812 1302.5 824 c 128,-1,22
 1286 836 1286 836 1267 836 c 0,23,24
 1254 836 1254 836 1236.5 819.5 c 128,-1,25
 1219 803 1219 803 1215 784 c 0,26,27
 1171 608 1171 608 1023.5 374.5 c 128,-1,28
 876 141 876 141 747 0 c 1,29,-1
 432 0 l 1,30,-1
 432 409 l 2,31,32
 432 608 432 608 609 763 c 0,33,34
 681 826 681 826 681 917 c 0,35,36
 681 957 681 957 665.5 979 c 128,-1,37
 650 1001 650 1001 614 1008 c 1,38,-1
 511 970 l 1,39,-1
 351 1051 l 1,40,-1
 305 1032 l 1,41,42
 402 1018 402 1018 451.5 949 c 128,-1,43
 501 880 501 880 501 798 c 0,44,45
 501 726 501 726 444.5 665.5 c 128,-1,46
 388 605 388 605 281 605 c 0,47,48
 244 605 244 605 208 616.5 c 128,-1,49
 172 628 172 628 137 654 c 128,-1,50
 102 680 102 680 80.5 731.5 c 128,-1,51
 59 783 59 783 59 853 c 0,52,53
 59 935 59 935 84 1001 c 128,-1,54
 109 1067 109 1067 144.5 1104.5 c 128,-1,55
 180 1142 180 1142 225.5 1168 c 128,-1,56
 271 1194 271 1194 305.5 1203.5 c 128,-1,57
 340 1213 340 1213 369 1215 c 1,58,-1
 513 1126 l 1,59,-1
 647 1215 l 1,60,61
 778 1198 778 1198 856.5 1111.5 c 128,-1,62
 935 1025 935 1025 935 905 c 0,63,64
 935 835 935 835 898 751 c 128,-1,65
 861 667 861 667 815 589.5 c 128,-1,66
 769 512 769 512 759 481 c 0,67,68
 742 425 742 425 742 361 c 2,69,-1
 742 340 l 1,70,71
 779 371 779 371 880 549 c 0,72,73
 982 730 982 730 1046 1003 c 0,74,75
 1063 1076 1063 1076 1136 1149 c 0,76,77
 1208 1223 1208 1223 1333 1223 c 0,11,12
EndSplineSet
EndChar

StartChar: uni0E12
Encoding: 3602 3602 141
Width: 2230
Flags: W
HStem: -21 191<1194.48 1345.34> 0 21G<185.535 713 1699.5 2037> 702 140<703.61 854.305> 1203 1G<519.5 606.894 1012.8 1176.5 1731 2037>
VStem: 133 309<521.508 891.008> 548 144<550.446 691.612> 864 151<550.535 690.231> 978 206<180.973 326.727> 1165 307<499.333 930.922> 1731 306<0 68.9979 318 1204>
LayerCount: 3
Fore
SplineSet
1184 253 m 0xbd40
 1184 203 1225 170 1271 170 c 0
 1319 170 1356 209 1356 253 c 0
 1356 297 1320 338 1270 338 c 0
 1220 338 1184 298 1184 253 c 0xbd40
692 618 m 0
 692 573 731 539 779 539 c 0
 827 539 864 576 864 621 c 0x3e40
 864 664 827 702 777 702 c 0
 732 702 692 669 692 618 c 0
1045 1223 m 1
 1308 1216 1472 1010 1472 746 c 2
 1472 512 l 1
 1563 492 1649 427 1731 318 c 1
 1731 1204 l 1
 2037 1204 l 1
 2037 0 l 1
 1726 0 l 1x7ec0
 1673 107 1614 176 1550 209 c 1
 1550 128 1458 -21 1283 -21 c 0
 1102 -21 978 76 978 251 c 0xbd40
 978 410 1095 490 1165 515 c 1
 1165 737 l 2
 1165 927 1088 983 1053 994 c 1
 897 898 l 1
 760 898 l 1
 592 993 l 1
 456 910 442 803 442 728 c 0
 442 716 443 703 444 689 c 2
 471 339 l 1
 574 362 642 394 673 437 c 1
 599 471 548 523 548 620 c 0
 548 743 629 842 775 842 c 0
 861 842 1015 800 1015 631 c 0
 1015 505 931 305 495 0 c 1
 187 0 l 1x7ec0
 135 710 l 2
 134 726 133 742 133 757 c 0
 133 891 177 998 266 1078 c 0
 365 1168 467 1216 572 1223 c 1
 818 1082 l 1
 1045 1223 l 1
EndSplineSet
Validated: 1
Layer: 2
SplineSet
1184 253 m 0,0,1
 1184 217 1184 217 1209.5 193.5 c 128,-1,2
 1235 170 1235 170 1271 170 c 0,3,4
 1306 170 1306 170 1331 195 c 128,-1,5
 1356 220 1356 220 1356 253 c 0,6,7
 1356 287 1356 287 1331.5 312.5 c 128,-1,8
 1307 338 1307 338 1270 338 c 128,-1,9
 1233 338 1233 338 1208.5 313 c 128,-1,10
 1184 288 1184 288 1184 253 c 0,0,1
692 618 m 0,11,12
 692 584 692 584 717.5 561.5 c 128,-1,13
 743 539 743 539 779 539 c 128,-1,14
 815 539 815 539 839.5 563 c 128,-1,15
 864 587 864 587 864 621 c 0,16,17
 864 654 864 654 839 678 c 128,-1,18
 814 702 814 702 777 702 c 0,19,20
 742 702 742 702 717 678.5 c 128,-1,21
 692 655 692 655 692 618 c 0,11,12
1045 1223 m 1,22,23
 1174 1220 1174 1220 1272 1155.5 c 128,-1,24
 1370 1091 1370 1091 1421 984.5 c 128,-1,25
 1472 878 1472 878 1472 746 c 2,26,-1
 1472 512 l 1,27,28
 1607 482 1607 482 1731 318 c 1,29,-1
 1731 1204 l 1,30,-1
 2037 1204 l 1,31,-1
 2037 0 l 1,32,-1
 1726 0 l 1,33,34
 1647 159 1647 159 1550 209 c 1,35,36
 1550 177 1550 177 1532.5 138.5 c 128,-1,37
 1515 100 1515 100 1483 64 c 128,-1,38
 1451 28 1451 28 1398 3.5 c 128,-1,39
 1345 -21 1345 -21 1283 -21 c 0,40,41
 1144 -21 1144 -21 1061 50.5 c 128,-1,42
 978 122 978 122 978 251 c 0,43,44
 978 307 978 307 997 355 c 128,-1,45
 1016 403 1016 403 1046 434 c 128,-1,46
 1076 465 1076 465 1105.5 484.5 c 128,-1,47
 1135 504 1135 504 1165 515 c 1,48,-1
 1165 737 l 2,49,50
 1165 804 1165 804 1153 855 c 128,-1,51
 1141 906 1141 906 1121.5 933.5 c 128,-1,52
 1102 961 1102 961 1085.5 975 c 128,-1,53
 1069 989 1069 989 1053 994 c 1,54,-1
 897 898 l 1,55,-1
 760 898 l 1,56,-1
 592 993 l 1,57,58
 544 964 544 964 512 928.5 c 128,-1,59
 480 893 480 893 466 856 c 128,-1,60
 452 819 452 819 447 790.5 c 128,-1,61
 442 762 442 762 442 728 c 0,62,63
 442 717 442 717 444 689 c 2,64,-1
 471 339 l 1,65,66
 628 374 628 374 673 437 c 1,67,68
 548 494 548 494 548 620 c 0,69,70
 548 716 548 716 608.5 779 c 128,-1,71
 669 842 669 842 775 842 c 0,72,73
 803 842 803 842 833 836.5 c 128,-1,74
 863 831 863 831 896.5 816 c 128,-1,75
 930 801 930 801 955.5 778.5 c 128,-1,76
 981 756 981 756 998 717.5 c 128,-1,77
 1015 679 1015 679 1015 631 c 0,78,79
 1015 364 1015 364 495 0 c 1,80,-1
 187 0 l 1,81,-1
 135 710 l 2,82,83
 133 742 133 742 133 757 c 0,84,85
 133 958 133 958 266 1078 c 0,86,87
 414 1212 414 1212 572 1223 c 1,88,-1
 818 1082 l 1,89,-1
 1045 1223 l 1,22,23
EndSplineSet
EndChar

StartChar: uni0E13
Encoding: 3603 3603 142
Width: 2060
Flags: W
HStem: -24 202<396.118 523.409 1594.67 1732.21> 0 21G<900 1246> 334 175<444.463 529.978> 985 240<418.747 818.984> 1184 20G<1481 1791>
VStem: 129 256<195.891 326.555> 537 206<194.389 326.692> 900 310<345 905.905> 1481 310<486.233 1204> 1740 213<188.011 319.179>
AnchorPoint: "AboveBase" 1754 1284 basechar 0
LayerCount: 3
Fore
SplineSet
1588 251 m 0xa740
 1588 207 1623 178 1663 178 c 24
 1706 178 1740 212 1740 252 c 0
 1740 292 1709 327 1664 327 c 0
 1619 327 1588 292 1588 251 c 0xa740
1652 -24 m 0
 1472 -24 1376 99 1376 199 c 1
 1339 181 1283 115 1209 0 c 1
 900 0 l 1
 900 796 l 2
 900 847 879 892 837 930 c 0
 796 967 722 985 615 985 c 0
 512 985 465 968 410 938 c 1
 612 847 l 1
 612 651 l 1
 508 629 452 580 443 509 c 1
 499 509 l 2
 607 509 743 421 743 252 c 256
 743 100 614 -18 444 -18 c 256
 234 -18 129 141 129 330 c 2
 129 465 l 2
 129 569 183 681 282 735 c 1
 96 812 l 1
 96 1088 l 1
 374 1202 547 1225 660 1225 c 0x7740
 978 1225 1210 1120 1210 812 c 2
 1210 345 l 1
 1291 429 1381 479 1481 495 c 1
 1481 1204 l 1
 1791 1204 l 1
 1791 501 l 1x2f80
 1850 489 1953 397 1953 265 c 0
 1953 76 1830 -24 1652 -24 c 0
537 261 m 0
 537 305 502 334 462 334 c 24
 419 334 385 300 385 260 c 0
 385 221 417 185 461 185 c 0
 505 185 537 221 537 261 c 0
EndSplineSet
Validated: 1
Layer: 2
SplineSet
1588 251 m 0,0,1
 1588 219 1588 219 1610 198.5 c 128,-1,2
 1632 178 1632 178 1663 178 c 0,3,4
 1695 178 1695 178 1717.5 200 c 128,-1,5
 1740 222 1740 222 1740 252 c 0,6,7
 1740 283 1740 283 1718.5 305 c 128,-1,8
 1697 327 1697 327 1664 327 c 128,-1,9
 1631 327 1631 327 1609.5 304.5 c 128,-1,10
 1588 282 1588 282 1588 251 c 0,0,1
1652 -24 m 0,11,12
 1526 -24 1526 -24 1451 46 c 128,-1,13
 1376 116 1376 116 1376 199 c 1,14,15
 1319 171 1319 171 1209 0 c 1,16,-1
 900 0 l 1,17,-1
 900 796 l 2,18,19
 900 873 900 873 837 930 c 0,20,21
 776 985 776 985 615 985 c 0,22,23
 543 985 543 985 499.5 974 c 128,-1,24
 456 963 456 963 410 938 c 1,25,-1
 612 847 l 1,26,-1
 612 651 l 1,27,28
 457 618 457 618 443 509 c 1,29,-1
 499 509 l 2,30,31
 556 509 556 509 610.5 481 c 128,-1,32
 665 453 665 453 704 392.5 c 128,-1,33
 743 332 743 332 743 252 c 0,34,35
 743 138 743 138 657 60 c 128,-1,36
 571 -18 571 -18 444 -18 c 0,37,38
 293 -18 293 -18 211 81 c 128,-1,39
 129 180 129 180 129 330 c 2,40,-1
 129 465 l 2,41,42
 129 546 129 546 169.5 621 c 128,-1,43
 210 696 210 696 282 735 c 1,44,-1
 96 812 l 1,45,-1
 96 1088 l 1,46,47
 430 1225 430 1225 660 1225 c 0,48,49
 1210 1225 1210 1225 1210 812 c 2,50,-1
 1210 345 l 1,51,52
 1332 471 1332 471 1481 495 c 1,53,-1
 1481 1204 l 1,54,-1
 1791 1204 l 1,55,-1
 1791 501 l 1,56,57
 1844 490 1844 490 1898.5 422.5 c 128,-1,58
 1953 355 1953 355 1953 265 c 0,59,60
 1953 126 1953 126 1871 51 c 128,-1,61
 1789 -24 1789 -24 1652 -24 c 0,11,12
537 261 m 0,62,63
 537 293 537 293 515 313.5 c 128,-1,64
 493 334 493 334 462 334 c 0,65,66
 430 334 430 334 407.5 312 c 128,-1,67
 385 290 385 290 385 260 c 128,-1,68
 385 230 385 230 407 207.5 c 128,-1,69
 429 185 429 185 461 185 c 128,-1,70
 493 185 493 185 515 207.5 c 128,-1,71
 537 230 537 230 537 261 c 0,62,63
EndSplineSet
EndChar

StartChar: uni0E14
Encoding: 3604 3604 143
Width: 1600
Flags: W
HStem: 0 21G<170.426 546 1114 1425> 666 145<706.542 843.366> 984 240<598.667 1008.13>
VStem: 150 320<264 850.005> 171 313<264 499.712> 554 144<522.888 657.19> 850 148<524.291 658.062> 1114 311<0 870.1>
LayerCount: 3
Fore
SplineSet
150 751 m 2xf7
 150 1129 515 1224 823 1224 c 0
 1036 1224 1188 1175 1281 1078 c 1
 1377 976 1425 860 1425 729 c 2
 1425 0 l 1
 1114 0 l 1
 1114 738 l 2
 1114 787 1094 840 1054 898 c 0
 1015 956 935 984 815 984 c 0
 724 984 606 971 542 897 c 0
 494 842 470 790 470 741 c 2
 470 735 l 1xf7
 484 264 l 1
 555 283 625 329 694 402 c 1
 648 413 554 471 554 595 c 0
 554 717 664 811 786 811 c 0
 888 811 998 707 998 595 c 0
 998 466 943 353 844 261 c 0
 730 155 610 68 482 0 c 1
 171 0 l 1xef
 150 732 l 1
 150 751 l 2xf7
698 590 m 0
 698 546 733 517 773 517 c 24
 816 517 850 551 850 590 c 0
 850 634 816 666 774 666 c 0
 730 666 698 632 698 590 c 0
EndSplineSet
Validated: 1
Layer: 2
SplineSet
150 751 m 2,0,1
 150 830 150 830 171.5 896 c 128,-1,2
 193 962 193 962 229.5 1010 c 128,-1,3
 266 1058 266 1058 318 1095.5 c 128,-1,4
 370 1133 370 1133 428.5 1157 c 128,-1,5
 487 1181 487 1181 555 1196.5 c 128,-1,6
 623 1212 623 1212 688.5 1218 c 128,-1,7
 754 1224 754 1224 823 1224 c 0,8,9
 1141 1224 1141 1224 1281 1078 c 0,10,11
 1425 925 1425 925 1425 729 c 2,12,-1
 1425 0 l 1,13,-1
 1114 0 l 1,14,-1
 1114 738 l 2,15,16
 1114 811 1114 811 1054 898 c 0,17,18
 996 984 996 984 815 984 c 0,19,20
 617 984 617 984 542 897 c 0,21,22
 470 814.5 470 814.5 470 741 c 2,23,-1
 470 735 l 1,24,-1
 484 264 l 1,25,26
 590.5 292.5 590.5 292.5 694 402 c 1,27,28
 647 413 647 413 600.5 463 c 128,-1,29
 554 513 554 513 554 595 c 0,30,31
 554 685 554 685 623.5 748 c 128,-1,32
 693 811 693 811 786 811 c 0,33,34
 864 811 864 811 931 744.5 c 128,-1,35
 998 678 998 678 998 595 c 0,36,37
 998 404 998 404 844 261 c 0,38,39
 672 101 672 101 482 0 c 1,40,-1
 171 0 l 1,41,-1
 150 732 l 1,42,-1
 150 751 l 2,0,1
698 590 m 128,-1,44
 698 558 698 558 720 537.5 c 128,-1,45
 742 517 742 517 773 517 c 0,46,47
 805 517 805 517 827.5 538.5 c 128,-1,48
 850 560 850 560 850 590 c 0,49,50
 850 623 850 623 828 644.5 c 128,-1,51
 806 666 806 666 774 666 c 0,52,53
 741 666 741 666 719.5 644 c 128,-1,43
 698 622 698 622 698 590 c 128,-1,44
EndSplineSet
EndChar

StartChar: uni0E15
Encoding: 3605 3605 144
Width: 1600
Flags: W
HStem: 0 21G<170.434 653 1114 1425> 636 135<706.34 842.809> 1193 20G<508 592.487 1019.7 1223>
VStem: 150 319<306.527 915.438> 171 310<302 506.539> 564 134<493.985 627.096> 850 148<495.863 627.271> 1114 311<0 941.195>
LayerCount: 3
Fore
SplineSet
786 771 m 0xef
 885 771 998 681 998 561 c 0
 998 366 825 179 481 0 c 1
 171 0 l 1xef
 150 742 l 1
 150 751 l 2
 150 909 186 1022 268 1088 c 1
 350 1156 450 1198 566 1213 c 1
 811 1028 l 1
 1045 1213 l 1
 1401 1127 1425 890 1425 739 c 2
 1425 0 l 1
 1114 0 l 1
 1114 748 l 2
 1114 847 1104 907 1084 928 c 0
 1064 949 1046 962 1030 965 c 1
 897 854 l 1
 708 854 l 1
 572 966 l 1
 489 917 469 863 469 766 c 0xf7
 469 720 481 395 481 302 c 1
 557 313 627 343 690 392 c 1
 661 401 564 451 564 565 c 0
 564 704 684 771 786 771 c 0xef
698 560 m 0
 698 516 733 487 773 487 c 24
 816 487 850 521 850 560 c 0
 850 604 816 636 774 636 c 0
 730 636 698 602 698 560 c 0
EndSplineSet
Validated: 1
Layer: 2
SplineSet
786 771 m 0,0,1
 864 771 864 771 931 709 c 128,-1,2
 998 647 998 647 998 561 c 0,3,4
 998 269 998 269 481 0 c 1,5,-1
 171 0 l 1,6,-1
 150 742 l 1,7,-1
 150 751 l 2,8,9
 150 993 150 993 268 1088 c 0,10,11
 392 1190 392 1190 566 1213 c 1,12,-1
 811 1028 l 1,13,-1
 1045 1213 l 1,14,15
 1119 1195 1119 1195 1178 1167 c 128,-1,16
 1237 1139 1237 1139 1276 1108 c 128,-1,17
 1315 1077 1315 1077 1343.5 1037 c 128,-1,18
 1372 997 1372 997 1387.5 962 c 128,-1,19
 1403 927 1403 927 1412 883.5 c 128,-1,20
 1421 840 1421 840 1423 809 c 128,-1,21
 1425 778 1425 778 1425 739 c 2,22,-1
 1425 0 l 1,23,-1
 1114 0 l 1,24,-1
 1114 748 l 2,25,26
 1114 896.5 1114 896.5 1084 928 c 0,27,28
 1053 961 1053 961 1030 965 c 1,29,-1
 897 854 l 1,30,-1
 708 854 l 1,31,-1
 572 966 l 1,32,33
 512 931 512 931 490.5 886.5 c 128,-1,34
 469 842 469 842 469 766 c 0,35,36
 469 749 469 749 475 551.5 c 128,-1,37
 481 354 481 354 481 302 c 1,38,39
 596 319 596 319 690 392 c 1,40,41
 676 396 676 396 657.5 407.5 c 128,-1,42
 639 419 639 419 616.5 438.5 c 128,-1,43
 594 458 594 458 579 491.5 c 128,-1,44
 564 525 564 525 564 565 c 0,45,46
 564 662 564 662 632 716.5 c 128,-1,47
 700 771 700 771 786 771 c 0,0,1
698 560 m 128,-1,49
 698 528 698 528 720 507.5 c 128,-1,50
 742 487 742 487 773 487 c 0,51,52
 805 487 805 487 827.5 508.5 c 128,-1,53
 850 530 850 530 850 560 c 0,54,55
 850 593 850 593 828 614.5 c 128,-1,56
 806 636 806 636 774 636 c 0,57,58
 741 636 741 636 719.5 614 c 128,-1,48
 698 592 698 592 698 560 c 128,-1,49
EndSplineSet
EndChar

StartChar: uni0E16
Encoding: 3606 3606 145
Width: 1430
Flags: W
HStem: -11 195<391.279 527.317> 333 175<443.463 525.954> 986 238<414.033 843.709>
VStem: 128 256<194.498 325.577> 536 206<190.726 325.51> 930 310<0 905.427>
LayerCount: 3
Fore
SplineSet
128 466 m 2
 128 574 205 683 301 736 c 1
 96 813 l 1
 96 1090 l 1
 404 1215 537 1224 671 1224 c 0
 782 1224 941 1213 1076 1132 c 1
 1179 1072 1240 948 1240 813 c 2
 1240 0 l 1
 930 0 l 1
 930 797 l 2
 930 948 765 986 643 986 c 0
 558 986 456 965 409 939 c 1
 611 848 l 1
 611 652 l 1
 502 615 456 576 442 508 c 1
 498 508 l 2
 651 508 742 367 742 252 c 0
 742 78 599 -11 449 -11 c 0
 368 -11 284 16 220 68 c 1
 162 118 128 203 128 325 c 2
 128 466 l 2
536 260 m 0
 536 304 501 333 461 333 c 24
 418 333 384 299 384 260 c 0
 384 216 418 184 460 184 c 0
 504 184 536 218 536 260 c 0
EndSplineSet
Validated: 1
Layer: 2
SplineSet
128 466 m 2,0,1
 128 545 128 545 177.5 620 c 128,-1,2
 227 695 227 695 301 736 c 1,3,-1
 96 813 l 1,4,-1
 96 1090 l 1,5,6
 305 1175 305 1175 426.5 1199.5 c 128,-1,7
 548 1224 548 1224 671 1224 c 0,8,9
 923 1224 923 1224 1076 1132 c 0,10,11
 1153 1087 1153 1087 1196.5 1001 c 128,-1,12
 1240 915 1240 915 1240 813 c 2,13,-1
 1240 0 l 1,14,-1
 930 0 l 1,15,-1
 930 797 l 2,16,17
 930 851 930 851 903 890 c 128,-1,18
 876 929 876 929 831.5 948.5 c 128,-1,19
 787 968 787 968 740.5 977 c 128,-1,20
 694 986 694 986 643 986 c 0,21,22
 580 986 580 986 512.5 972.5 c 128,-1,23
 445 959 445 959 409 939 c 1,24,-1
 611 848 l 1,25,-1
 611 652 l 1,26,27
 529 624 529 624 490.5 591.5 c 128,-1,28
 452 559 452 559 442 508 c 1,29,-1
 498 508 l 2,30,31
 571 508 571 508 628.5 467.5 c 128,-1,32
 686 427 686 427 714 369.5 c 128,-1,33
 742 312 742 312 742 252 c 0,34,35
 742 128 742 128 656 58.5 c 128,-1,36
 570 -11 570 -11 449 -11 c 0,37,38
 317 -11 317 -11 220 68 c 0,39,40
 128 147 128 147 128 325 c 2,41,-1
 128 466 l 2,0,1
536 260 m 128,-1,43
 536 292 536 292 514 312.5 c 128,-1,44
 492 333 492 333 461 333 c 0,45,46
 429 333 429 333 406.5 311.5 c 128,-1,47
 384 290 384 290 384 260 c 0,48,49
 384 227 384 227 406 205.5 c 128,-1,50
 428 184 428 184 460 184 c 0,51,52
 493 184 493 184 514.5 206 c 128,-1,42
 536 228 536 228 536 260 c 128,-1,43
EndSplineSet
EndChar

StartChar: uni0E17
Encoding: 3607 3607 146
Width: 1690
Flags: W
HStem: 0 21G<335 684.13 1202 1512> 745 146<191.309 329.257> 901 313<1067.65 1333> 1040 175<190.579 327.1>
VStem: 38 146<898.692 1033.1> 335 316<467 759 897.653 1026> 1202 310<0 895.357>
DStem2: 651 467 675 0 0.415273 0.909697<0 593.039>
LayerCount: 3
Fore
SplineSet
307 1215 m 0xde
 430 1215 651 1169 651 813 c 2
 651 467 l 1
 862 993 l 2
 898 1082 998 1214 1202 1214 c 0
 1464 1214 1512 1049 1512 941 c 2
 1512 0 l 1
 1202 0 l 1
 1202 839 l 2
 1202 876 1161 901 1130 901 c 0xee
 1096 901 1069 863 1058 839 c 2
 675 0 l 1
 335 0 l 1
 335 759 l 1
 315 750 290 745 259 745 c 0
 174 745 38 815 38 965 c 0
 38 1058 81 1215 307 1215 c 0xde
184 964 m 0
 184 920 219 891 259 891 c 24
 302 891 336 925 336 964 c 0
 336 1008 302 1040 260 1040 c 0xde
 216 1040 184 1006 184 964 c 0
EndSplineSet
Validated: 1
Layer: 2
SplineSet
307 1215 m 0,0,1
 351 1215 351 1215 391 1208 c 128,-1,2
 431 1201 431 1201 480.5 1175.5 c 128,-1,3
 530 1150 530 1150 566 1108.5 c 128,-1,4
 602 1067 602 1067 626.5 991 c 128,-1,5
 651 915 651 915 651 813 c 2,6,-1
 651 467 l 1,7,-1
 862 993 l 2,8,9
 877 1031 877 1031 902.5 1066 c 128,-1,10
 928 1101 928 1101 968 1136 c 128,-1,11
 1008 1171 1008 1171 1069 1192.5 c 128,-1,12
 1130 1214 1130 1214 1202 1214 c 0,13,14
 1277 1214 1277 1214 1334.5 1195.5 c 128,-1,15
 1392 1177 1392 1177 1424.5 1149.5 c 128,-1,16
 1457 1122 1457 1122 1478 1083.5 c 128,-1,17
 1499 1045 1499 1045 1505.5 1011 c 128,-1,18
 1512 977 1512 977 1512 941 c 2,19,-1
 1512 0 l 1,20,-1
 1202 0 l 1,21,-1
 1202 839 l 2,22,23
 1202 865 1202 865 1178.5 883 c 128,-1,24
 1155 901 1155 901 1130 901 c 0,25,26
 1107 901 1107 901 1088 881.5 c 128,-1,27
 1069 862 1069 862 1058 839 c 2,28,-1
 675 0 l 1,29,-1
 335 0 l 1,30,-1
 335 759 l 1,31,32
 304 745 304 745 259 745 c 0,33,34
 213 745 213 745 164 767.5 c 128,-1,35
 115 790 115 790 76.5 842.5 c 128,-1,36
 38 895 38 895 38 965 c 0,37,38
 38 996 38 996 44 1027 c 128,-1,39
 50 1058 50 1058 68 1093 c 128,-1,40
 86 1128 86 1128 114.5 1154 c 128,-1,41
 143 1180 143 1180 192.5 1197.5 c 128,-1,42
 242 1215 242 1215 307 1215 c 0,0,1
184 964 m 128,-1,44
 184 932 184 932 206 911.5 c 128,-1,45
 228 891 228 891 259 891 c 0,46,47
 291 891 291 891 313.5 912.5 c 128,-1,48
 336 934 336 934 336 964 c 0,49,50
 336 997 336 997 314 1018.5 c 128,-1,51
 292 1040 292 1040 260 1040 c 0,52,53
 227 1040 227 1040 205.5 1018 c 128,-1,43
 184 996 184 996 184 964 c 128,-1,44
EndSplineSet
EndChar

StartChar: uni0E18
Encoding: 3608 3608 147
Width: 1330
Flags: W
HStem: 0 158<515 802> 984 241<458.064 947.088>
VStem: 204 311<158 622> 802 314<158 608.304>
DStem2: 453 938 647 656 0.96485 -0.2628<0 421.373>
LayerCount: 3
Fore
SplineSet
1010 848 m 1
 973 962 889 984 732 984 c 0
 578 984 502 961 453 938 c 1
 967 798 l 2
 1066 771 1116 678 1116 521 c 2
 1116 0 l 1
 204 0 l 1
 204 622 l 1
 515 622 l 1
 515 158 l 1
 802 158 l 1
 802 520 l 2
 802 587 751 632 647 656 c 2
 139 772 l 1
 139 1078 l 1
 387 1182 530 1225 728 1225 c 0
 832 1225 1053 1218 1193 1112 c 1
 1010 848 l 1
EndSplineSet
Validated: 1
Layer: 2
SplineSet
1010 848 m 1,0,1
 984 929 984 929 921 956.5 c 128,-1,2
 858 984 858 984 732 984 c 0,3,4
 551 984 551 984 453 938 c 1,5,-1
 967 798 l 2,6,7
 1116 757 1116 757 1116 521 c 2,8,-1
 1116 0 l 1,9,-1
 204 0 l 1,10,-1
 204 622 l 1,11,-1
 515 622 l 1,12,-1
 515 158 l 1,13,-1
 802 158 l 1,14,-1
 802 520 l 2,15,16
 802 620 802 620 647 656 c 2,17,-1
 139 772 l 1,18,-1
 139 1078 l 1,19,20
 334 1160 334 1160 459.5 1192.5 c 128,-1,21
 585 1225 585 1225 728 1225 c 0,22,23
 1044 1225 1044 1225 1193 1112 c 1,24,-1
 1010 848 l 1,0,1
EndSplineSet
EndChar

StartChar: uni0E19
Encoding: 3609 3609 148
Width: 1580
Flags: W
HStem: -23 196<1161.74 1299.15> 0 21G<336 705.5> 751 146<190.467 329.234> 1046 175<190.369 329.182> 1184 20G<1046 1358>
VStem: 38 146<905.059 1037.23> 336 315<304 765 904.423 1031.58> 1046 312<480.643 1204> 1306 213<182.633 313.47>
LayerCount: 3
Fore
SplineSet
184 970 m 3x36
 184 926 219 897 259 897 c 27
 302 897 336 931 336 970 c 3
 336 1014 302 1046 260 1046 c 3
 216 1046 184 1012 184 970 c 3x36
1154 246 m 3
 1154 202 1189 173 1229 173 c 27
 1272 173 1306 207 1306 246 c 3xa680
 1306 290 1272 322 1230 322 c 3
 1186 322 1154 288 1154 246 c 3
1229 -23 m 3
 1014 -23 960 144 960 199 c 1
 867 178 763 112 648 0 c 1
 336 0 l 1
 336 765 l 17
 312 756 286 751 258 751 c 3
 171 751 38 825 38 970 c 3
 38 1069 85 1221 318 1221 c 3x7680
 433 1221 651 1174 651 819 c 2
 651 304 l 1
 746 409 877 470 1046 485 c 1
 1046 1204 l 1
 1358 1204 l 1
 1358 491 l 1x2f
 1426 481 1519 356 1519 260 c 3
 1519 159 1461 -23 1229 -23 c 3
EndSplineSet
Validated: 1
Layer: 2
SplineSet
184 970 m 131,-1,1
 184 938 184 938 206 917.5 c 128,-1,2
 228 897 228 897 259 897 c 0,3,4
 291 897 291 897 313.5 918.5 c 128,-1,5
 336 940 336 940 336 970 c 0,6,7
 336 1003 336 1003 314 1024.5 c 128,-1,8
 292 1046 292 1046 260 1046 c 0,9,10
 227 1046 227 1046 205.5 1024 c 128,-1,0
 184 1002 184 1002 184 970 c 131,-1,1
1154 246 m 131,-1,12
 1154 214 1154 214 1176 193.5 c 128,-1,13
 1198 173 1198 173 1229 173 c 0,14,15
 1261 173 1261 173 1283.5 194.5 c 128,-1,16
 1306 216 1306 216 1306 246 c 0,17,18
 1306 279 1306 279 1284 300.5 c 128,-1,19
 1262 322 1262 322 1230 322 c 0,20,21
 1197 322 1197 322 1175.5 300 c 128,-1,11
 1154 278 1154 278 1154 246 c 131,-1,12
1229 -23 m 3,22,23
 1168 -23 1168 -23 1119 -5 c 128,-1,24
 1070 13 1070 13 1041 39 c 128,-1,25
 1012 65 1012 65 993 97 c 128,-1,26
 974 129 974 129 967 154.5 c 128,-1,27
 960 180 960 180 960 199 c 1,28,29
 820 167 820 167 648 0 c 1,30,-1
 336 0 l 1,31,-1
 336 765 l 1,32,33
 299 751 299 751 258 751 c 0,34,35
 211 751 211 751 162 774.5 c 128,-1,36
 113 798 113 798 75.5 850 c 128,-1,37
 38 902 38 902 38 970 c 0,38,39
 38 1003 38 1003 44.5 1034.5 c 128,-1,40
 51 1066 51 1066 70 1101 c 128,-1,41
 89 1136 89 1136 118.5 1161.5 c 128,-1,42
 148 1187 148 1187 199.5 1204 c 128,-1,43
 251 1221 251 1221 318 1221 c 0,44,45
 346 1221 346 1221 373 1217.5 c 128,-1,46
 400 1214 400 1214 434 1203 c 128,-1,47
 468 1192 468 1192 497.5 1174.5 c 128,-1,48
 527 1157 527 1157 556 1126 c 128,-1,49
 585 1095 585 1095 605.5 1054 c 128,-1,50
 626 1013 626 1013 638.5 952.5 c 128,-1,51
 651 892 651 892 651 819 c 2,52,-1
 651 304 l 1,53,54
 795 463 795 463 1046 485 c 1,55,-1
 1046 1204 l 1,56,-1
 1358 1204 l 1,57,-1
 1358 491 l 1,58,59
 1410 483 1410 483 1464.5 407 c 128,-1,60
 1519 331 1519 331 1519 260 c 0,61,62
 1519 227 1519 227 1511.5 191.5 c 128,-1,63
 1504 156 1504 156 1483.5 117 c 128,-1,64
 1463 78 1463 78 1431.5 47.5 c 128,-1,65
 1400 17 1400 17 1347.5 -3 c 128,-1,66
 1295 -23 1295 -23 1229 -23 c 3,22,23
EndSplineSet
EndChar

StartChar: uni0E1A
Encoding: 3610 3610 149
Width: 1600
Flags: W
HStem: 0 222<651 1114> 744 146<190.042 329.509> 1039 176<193.25 326.745>
VStem: 38 146<896.516 1031.25> 336 315<222 755 897.423 1025.96> 1114 314<222 1204>
LayerCount: 3
Fore
SplineSet
184 963 m 0
 184 919 219 890 259 890 c 24
 302 890 336 924 336 963 c 0
 336 1004 305 1039 260 1039 c 0
 215 1039 184 1004 184 963 c 0
308 1215 m 0
 484 1215 651 1129 651 831 c 2
 651 222 l 1
 1114 222 l 1
 1114 1204 l 1
 1428 1204 l 1
 1428 0 l 1
 336 0 l 1
 336 755 l 1
 323 748 297 744 259 744 c 0
 130 744 38 843 38 961 c 0
 38 1070 92 1215 308 1215 c 0
EndSplineSet
Validated: 1
Layer: 2
SplineSet
184 963 m 0,0,1
 184 931 184 931 206 910.5 c 128,-1,2
 228 890 228 890 259 890 c 0,3,4
 291 890 291 890 313.5 911.5 c 128,-1,5
 336 933 336 933 336 963 c 0,6,7
 336 994 336 994 314.5 1016.5 c 128,-1,8
 293 1039 293 1039 260 1039 c 128,-1,9
 227 1039 227 1039 205.5 1016.5 c 128,-1,10
 184 994 184 994 184 963 c 0,0,1
308 1215 m 0,11,12
 364 1215 364 1215 411.5 1204 c 128,-1,13
 459 1193 459 1193 504.5 1165.5 c 128,-1,14
 550 1138 550 1138 581.5 1095.5 c 128,-1,15
 613 1053 613 1053 632 985.5 c 128,-1,16
 651 918 651 918 651 831 c 2,17,-1
 651 222 l 1,18,-1
 1114 222 l 1,19,-1
 1114 1204 l 1,20,-1
 1428 1204 l 1,21,-1
 1428 0 l 1,22,-1
 336 0 l 1,23,-1
 336 755 l 1,24,25
 316 744 316 744 259 744 c 0,26,27
 164 744 164 744 101 807.5 c 128,-1,28
 38 871 38 871 38 961 c 0,29,30
 38 1006 38 1006 50.5 1047.5 c 128,-1,31
 63 1089 63 1089 91.5 1128.5 c 128,-1,32
 120 1168 120 1168 175.5 1191.5 c 128,-1,33
 231 1215 231 1215 308 1215 c 0,11,12
EndSplineSet
EndChar

